<?xml version="1.0" standalone="no"?>
<!DOCTYPE svg PUBLIC "-//W3C//DTD SVG 1.1//EN" "http://www.w3.org/Graphics/SVG/1.1/DTD/svg11.dtd" >
<svg xmlns="http://www.w3.org/2000/svg">
<metadata>Generated by IcoMoon</metadata>
<defs>
<font id="icomoon" horiz-adv-x="1024">
<font-face units-per-em="1024" ascent="960" descent="-64" />
<missing-glyph horiz-adv-x="1024" />
<glyph unicode="&#x20;" horiz-adv-x="512" d="" />
<glyph unicode="&#xe000;" glyph-name="brand" d="M612.529 450.048c-9.803-30.952-22.446-60.867-37.711-89.457l-5.202-9.489 157.71-146.255c9.312-8.602 20.849-12.848 32.331-12.848 13.735 0 27.457 6.076 37.192 17.981 17.244 21.012 15.838 52.483-2.772 71.666l-2.062 2.021-179.487 166.38zM560.756 744.96h-163.635c-27.566 0-49.889-23.306-49.889-52.101 0-27.866 20.903-50.627 47.241-52.060l2.649-0.082h63.843v-48.538c0-68.048-20.617-132.697-59.556-186.982-37.751-52.524-91.395-92.037-151.101-111.193-26.365-8.465-41.151-37.629-33.041-65.181 6.595-22.378 26.351-36.823 47.691-36.823 4.833 0 9.789 0.737 14.664 2.335 79.722 25.6 151.306 78.247 201.591 148.262 50.558 70.41 77.947 153.859 79.476 241.814l0.068 7.769v152.781zM512 960c282.788 0 512-229.239 512-512 0-282.774-229.212-512-512-512-282.761 0-512 229.226-512 512 0 282.761 229.239 512 512 512v0z" />
<glyph unicode="&#xe005;" glyph-name="brand-full" horiz-adv-x="3837" d="M3365.492 509.836c-35.321 0-61.809-11.032-79.462-33.109l-0.833-1.051c-11.401-14.691-19.005-33.737-22.815-57.153h194.847c-3.031 26.337-10.131 46.749-21.34 61.331-15.333 19.988-38.789 29.983-70.397 29.983zM2503.229 508.443c-33.464 0-58.914-11.974-76.336-35.908-17.422-23.921-26.132-54.709-26.132-92.351 0-37.656 8.479-68.431 25.436-92.351 16.957-23.934 41.711-35.908 74.247-35.908 33.451 0 58.191 11.496 74.22 34.502 16.043 23.006 24.057 54.258 24.057 93.757s-7.892 70.752-23.689 93.757c-15.811 23.006-39.745 34.502-71.803 34.502zM2067.565 508.443c-32.536 0-57.754-11.619-75.639-34.857s-26.829-54.368-26.829-93.402c0-37.656 8.588-68.431 25.777-92.351 17.203-23.934 42.298-35.908 75.284-35.908 33 0 57.399 11.605 73.196 34.843 15.811 23.252 23.702 54.381 23.702 93.416 0 39.499-7.892 70.752-23.702 93.757-15.797 23.006-39.731 34.502-71.789 34.502zM612.529 450.048c-9.803-30.952-22.446-60.867-37.711-89.457l-5.202-9.489 157.71-146.255c9.312-8.602 20.849-12.848 32.331-12.848 13.735 0 27.457 6.076 37.192 17.981 17.244 21.012 15.838 52.483-2.772 71.666l-2.062 2.021-179.487 166.38zM560.756 744.96h-163.635c-27.566 0-49.889-23.306-49.889-52.101 0-27.866 20.903-50.627 47.241-52.060l2.649-0.082h63.843v-48.538c0-68.048-20.617-132.697-59.556-186.982-37.751-52.524-91.395-92.037-151.101-111.193-26.365-8.465-41.151-37.629-33.041-65.181 6.595-22.378 26.351-36.823 47.691-36.823 4.833 0 9.789 0.737 14.664 2.335 79.722 25.6 151.306 78.247 201.591 148.262 50.558 70.41 77.947 153.859 79.476 241.814l0.068 7.769v152.781zM2958.404 578.854c59.023 0 98.522-18.596 118.497-55.774 19.988-37.178 29.983-77.606 29.983-121.296v-209.811h-79.476v183.337l-0.068 6.813c-0.71 33.724-6.84 62.232-18.391 85.538-12.329 24.863-36.605 37.287-72.854 37.287-26.952 0-49.029-9.161-66.219-27.525-17.19-18.35-25.777-48.674-25.777-90.972v-194.478h-79.476v376.409h70.41v-43.363l0.287 0.369c10.185 12.22 22.282 22.61 36.304 31.157 24.385 14.868 53.316 22.31 86.781 22.31zM1769.158 704c23.648 0 35.758-13.517 36.304-40.55v-471.477h-73.892v332.5l-158.228-332.5h-32.768l-158.228 332.5v-332.5h-73.892l0.014 474.317c0.478 25.136 12.93 37.711 37.369 37.711 20.289 0 36.427-13.503 48.442-40.509l163.034-336.295 162.27 336.063c11.073 27.156 27.607 40.742 49.575 40.742zM3720.929 663.45l0.765-95.068h111.52v-62.027h-111.52v-170.093c0-15.333 0.451-27.184 1.393-35.54 0.928-8.369 3.017-15.333 6.267-20.917 7.905-13.476 20.343-21.504 37.301-24.044 16.957-2.567 39.144-1.748 66.56 2.444v-66.232c-39.963-7.892-75.858-8.356-107.697-1.393-31.826 6.963-54.477 22.774-67.953 47.404-6.513 12.547-10.581 25.327-12.206 38.339l-0.164 1.27c-1.502 12.848-2.021 29.614-1.584 50.313v178.449h-70.397v62.027h70.397l-0.737 95.068h78.056zM3362.707 578.854c38.093 0 70.861-8.957 98.277-26.842s47.746-43.445 60.989-76.677c13.257-33.232 18.487-72.144 15.688-116.763h-277.176l0.055-0.56c2.744-29.368 11.25-52.756 25.491-70.178 17.654-21.613 43.213-32.413 76.677-32.413 21.367 0 39.963 4.861 55.76 14.623s28.126 23.702 36.946 41.82l77.373-23.689-2.348-5.229c-14.418-30.966-35.703-55.364-63.884-73.196-29.723-18.814-62.956-28.235-99.669-28.235-37.642 0-70.874 8.247-99.683 24.753-28.809 16.493-51.118 39.499-66.915 69.004-15.811 29.519-23.702 63.311-23.702 101.417 0 40.428 7.782 75.981 23.347 106.66 15.578 30.665 37.41 54.245 65.522 70.752 28.126 16.493 60.539 24.753 97.253 24.753zM2057.107 578.854c29.273 0 54.723-6.403 76.322-19.183l1.461-0.874c14.595-8.875 26.965-20.18 37.123-33.915l0.109-0.15v43.65h69.004v-376.409h-69.004v44.483l-0.956-1.256c-10.554-13.817-23.607-25.204-39.13-34.161-22.542-13.012-48.21-19.524-77.018-19.524-34.857 0-65.304 8.602-91.327 25.791-26.023 17.203-46.121 40.892-60.293 71.107-14.172 30.201-21.258 64.116-21.258 101.772 0 38.106 7.195 72.267 21.613 102.468 14.404 30.201 34.734 53.794 60.976 70.752 26.269 16.957 57.057 25.45 92.378 25.45zM2491.378 578.854c34.843 0 64.471-8.602 88.87-25.805l1.488-1.051c5.912-4.273 11.482-8.929 16.698-13.954l0.287-0.273v30.611h69.018v-390.349l-0.055-6.308c-0.3-18.664-1.911-34.679-4.833-48.060-7.905-36.714-26.61-64.13-56.115-82.248-29.505-18.132-66.56-27.184-111.179-27.184-31.143 0-60.184 7.195-87.136 21.6s-47.636 34.625-62.041 60.648l71.803 36.236 1.925-3.523c7.305-12.67 17.353-22.419 30.133-29.232 13.94-7.441 29.273-11.155 46.012-11.155 19.060 0 35.663 3.372 49.835 10.117 14.186 6.731 24.986 16.712 32.413 29.969l0.642 1.174c7.004 13.053 10.267 29.259 9.817 48.66v35.635l-0.724-0.573c-2.813-2.253-5.707-4.41-8.684-6.485-24.863-17.19-54.955-25.791-90.276-25.791-34.379 0-64.471 8.602-90.262 25.791-25.805 17.203-45.78 40.892-59.952 71.107-14.172 30.201-21.258 64.116-21.258 101.772 0 38.106 7.195 72.267 21.613 102.468 14.391 30.201 34.611 53.794 60.634 70.752s56.47 25.45 91.327 25.45zM512 960c282.788 0 512-229.239 512-512 0-282.774-229.212-512-512-512-282.761 0-512 229.226-512 512 0 282.761 229.239 512 512 512v0z" />
<glyph unicode="&#xe100;" glyph-name="control-previous" d="M319.388 482l272 272c18.8 18.8 49.2 18.8 67.8 0l45.2-45.2c18.8-18.8 18.8-49.2 0-67.8l-192.6-193 192.8-192.8c18.8-18.8 18.8-49.2 0-67.8l-45.2-45.4c-18.8-18.8-49.2-18.8-67.8 0l-272 272c-19 18.8-19 49.2-0.2 68z" />
<glyph unicode="&#xe101;" glyph-name="control-first" d="M401.241 448l288-288 67.68 67.68-219.839 220.32 219.839 220.32-67.68 67.68-288-288zM267.080 160h95.999v576h-95.999v-576z" />
<glyph unicode="&#xe105;" glyph-name="control-next" d="M704.512 414l-272-272c-18.8-18.8-49.2-18.8-67.8 0l-45.2 45.2c-18.8 18.8-18.8 49.2 0 67.8l192.8 192.8-192.8 192.8c-18.8 18.8-18.8 49.2 0 67.8l45 45.6c18.8 18.8 49.2 18.8 67.8 0l272-272c19-18.8 19-49.2 0.2-68z" />
<glyph unicode="&#xe106;" glyph-name="control-last" d="M622.759 448l-288-288-67.68 67.68 219.839 220.32-219.839 220.32 67.68 67.68 288-288zM756.92 160h-95.999v576h95.999v-576z" />
<glyph unicode="&#xe110;" glyph-name="control-lo-previous" d="M23 398.8l384-320c41.2-34.4 105-5.6 105 49.2v640c0 54.8-63.8 83.6-105 49.2l-384-320c-30.6-25.6-30.6-72.8 0-98.4zM535 398.8l384-320c41.2-34.4 105-5.6 105 49.2v640c0 54.8-63.8 83.6-105 49.2l-384-320c-30.6-25.6-30.6-72.8 0-98.4z" />
<glyph unicode="&#xe115;" glyph-name="control-lo-next" d="M1001 497.2l-384 320c-41.2 34.2-105 5.6-105-49.2v-640c0-54.8 63.8-83.6 105-49.2l384 320c30.6 25.6 30.6 72.8 0 98.4zM489 497.2l-384 320c-41.2 34.2-105 5.6-105-49.2v-640c0-54.8 63.8-83.6 105-49.2l384 320c30.6 25.6 30.6 72.8 0 98.4z" />
<glyph unicode="&#xe120;" glyph-name="control-toc" d="M214.154 258.462h-108.308c-14.954 0-27.076-12.123-27.076-27.076v0-108.308c0-14.954 12.123-27.076 27.076-27.076v0h108.308c14.954 0 27.076 12.123 27.076 27.076v0 108.308c0 14.954-12.123 27.076-27.076 27.076v0zM214.154 800h-108.308c-14.954 0-27.076-12.123-27.076-27.076v0-108.308c0-14.954 12.123-27.076 27.076-27.076v0h108.308c14.954 0 27.076 12.123 27.076 27.076v0 108.308c0 14.954-12.123 27.076-27.076 27.076v0zM214.154 529.23h-108.308c-14.954 0-27.076-12.123-27.076-27.076v0-108.308c0-14.954 12.123-27.076 27.076-27.076v0h108.308c14.954 0 27.076 12.123 27.076 27.076v0 108.308c0 14.954-12.123 27.076-27.076 27.076v0zM918.154 231.384h-541.538c-14.954 0-27.076-12.123-27.076-27.076v0-54.154c0-14.954 12.123-27.076 27.076-27.076v0h541.538c14.954 0 27.076 12.123 27.076 27.076v0 54.154c0 14.954-12.123 27.076-27.076 27.076v0zM918.154 772.923h-541.538c-14.954 0-27.076-12.123-27.076-27.076v0-54.154c0-14.954 12.123-27.076 27.076-27.076v0h541.538c14.954 0 27.076 12.123 27.076 27.076v0 54.154c0 14.954-12.123 27.076-27.076 27.076v0zM918.154 502.154h-541.538c-14.954 0-27.076-12.123-27.076-27.076v0-54.154c0-14.954 12.123-27.076 27.076-27.076v0h541.538c14.954 0 27.076 12.123 27.076 27.076v0 54.154c0 14.954-12.123 27.076-27.076 27.076v0z" />
<glyph unicode="&#xe125;" glyph-name="control-notes" d="M895.998 290.094v459.608c0 45.446-36.84 82.286-82.286 82.286h-603.426c-45.446 0-82.286-36.84-82.286-82.286v-603.406c0-45.446 36.84-82.286 82.286-82.286h459.628c22.722 0 43.293 9.21 58.184 24.101l143.798 143.798c14.891 14.891 24.101 35.462 24.101 58.184v0zM676.57 152.952v130.488h130.488l-130.488-130.488zM813.713 749.702v-383.978h-178.285c-22.722 0-41.142-18.42-41.142-41.142v-178.285h-383.998v603.406h603.426z" />
<glyph unicode="&#xe130;" glyph-name="control-special-chars" d="M511.609 925.861c237.92 0 431.396-188.579 431.396-421.974 0-143.39-73.754-273.581-191.242-350.613l-6.217-3.869 244.252 0.23 0.11-119.461-378.075-0.343v185.085l34.528 16.071c107.549 50.057 177.184 155.51 177.184 272.918 0 166.721-139.316 302.505-311.935 302.505s-311.935-135.783-311.935-302.505c0-113.199 64.731-215.266 165.711-267.295l12.291-5.998 34.687-16.020v-184.752l-378.272 0.343 0.11 119.461 243.356-0.23-5.202 3.28c-113.623 74.093-186.591 197.838-191.837 335.288l-0.305 15.914c0 233.395 193.484 421.974 431.396 421.974z" />
<glyph unicode="&#xe135;" glyph-name="control-signal" d="M512.64 960c193.815 0 351.698-153.845 358.192-346.079l0.208-12.321c0-67.005-18.21-132.751-52.684-190.207l-48.231-80.385c-16.285-27.142-28.941-56.133-37.762-86.234-4.204-14.345-8.087-67.394-11.647-159.145-2.134-54.967-47.314-98.428-102.323-98.428l-17.194-0.054c-17.78-30.52-50.877-51.146-88.558-51.146s-70.778 20.626-88.558 51.146l-21.125 0.054c-53.168-0.001-97.492 40.69-102.028 93.664-11.576 135.196-26.834 218.578-45.774 250.144l-48.231 80.385c-31.601 52.668-49.536 112.302-52.306 173.486l-0.378 16.721c0 197.939 160.461 358.4 358.4 358.4zM512.64 857.6c-137.664 0-249.949-108.662-255.788-242.757l-0.239-10.927 0.3-14.406c1.782-39.363 12.243-77.798 30.576-112.57l7.242-12.862 48.231-80.385c25.156-41.926 43.53-87.309 54.659-134.473l1.303-57.219h227.43l1.748 59.087c9.781 40.708 24.96 80.047 45.221 116.944l8.993 15.66 48.231 80.385c22.433 37.388 35.341 79.63 37.709 121.763l0.398 14.033-0.164 10.591c-4.648 137.569-117.755 247.136-255.851 247.136z" />
<glyph unicode="&#xe140;" glyph-name="control-signal-on" d="M88.757 944.808l900.043-910.281-72.757-72.017-191.921 194.172c-1.105-20.321-2.182-44.005-3.231-71.052-2.133-54.968-47.314-98.431-102.323-98.431l-17.129-0.054c-17.77-30.52-50.849-51.146-88.51-51.146s-70.739 20.626-88.51 51.146l-21.059 0.054c-53.17-0.001-97.494 40.692-102.028 93.668-11.57 135.194-26.82 218.573-45.749 250.139l-48.205 80.385c-31.584 52.668-49.51 112.302-52.278 173.486l-0.378 16.721c0 39.347 6.337 77.213 18.046 112.632l-156.769 158.559 72.757 72.017zM257.28 614.843l-0.238-10.927 0.3-14.406c1.781-39.363 12.236-77.798 30.559-112.57l7.238-12.862 48.205-80.385c25.142-41.926 43.507-87.309 54.63-134.473l1.302-57.219h227.307l1.747 59.087 0.484 1.944-370.631 374.785c-0.411-4.296-0.712-8.621-0.902-12.973zM512.929 960c193.71 0 351.507-153.845 357.998-346.079l0.208-12.321c0-67.005-18.201-132.751-52.656-190.207l-38.194-63.591-74.291 75.162 24.726 41.114c22.421 37.388 35.322 79.63 37.688 121.763l0.397 14.033-0.164 10.591c-4.645 137.569-117.691 247.136-255.712 247.136-66.022 0-126.204-25.020-171.593-65.864l-71.902 72.729c63.906 59.289 149.47 95.535 243.494 95.535z" />
<glyph unicode="&#xe145;" glyph-name="control-reveal" d="M512 727.273c176.408 0 333.731-99.142 410.531-256.001-76.8-156.859-234.123-256.001-410.531-256.001s-333.731 99.142-410.531 256.001c76.8 156.859 234.123 256.001 410.531 256.001zM512 820.363c-232.727 0-431.477-144.756-512-349.091 80.523-204.335 279.273-349.091 512-349.091s431.477 144.756 512 349.091c-80.523 204.335-279.273 349.091-512 349.091zM512 587.636c64.233 0 116.364-52.131 116.364-116.364s-52.131-116.364-116.364-116.364c-64.233 0-116.364 52.131-116.364 116.364s52.131 116.364 116.364 116.364zM512 680.727c-115.432 0-209.455-94.022-209.455-209.455s94.022-209.455 209.455-209.455c115.432 0 209.455 94.022 209.455 209.455s-94.022 209.455-209.455 209.455z" />
<glyph unicode="&#xe150;" glyph-name="control-hide" d="M512 727.273c176.408 0 333.731-99.142 410.531-256.001-27.461-56.785-66.095-105.658-112.175-145.222l65.629-65.629c64.699 57.251 115.898 128.931 148.015 210.851-80.523 204.335-279.273 349.091-512 349.091-59.113 0-115.898-9.309-169.426-26.531l76.8-76.8c30.254 6.051 60.974 10.24 92.626 10.24zM47.011 826.415l124.742-124.742c-75.87-59.578-135.913-138.706-171.753-230.4 80.523-204.335 279.273-349.091 512-349.091 70.749 0 138.706 13.498 201.077 38.168l159.186-159.186 65.629 65.629-825.251 825.717-65.629-66.095zM237.847 635.579l402.153-402.619c-40.96-11.171-83.782-17.687-128-17.687-176.408 0-333.731 99.142-410.531 256.001 32.582 66.56 80.059 121.484 136.378 164.305z" />
<glyph unicode="&#xe155;" glyph-name="control-hints" d="M511.999 959.999c193.815 0 351.698-153.845 358.192-346.079l0.208-12.321c0-67.005-18.21-132.751-52.684-190.207l-48.231-80.385c-16.285-27.142-28.941-56.133-37.762-86.234-4.204-14.345-8.087-67.394-11.647-159.145-2.134-54.967-47.314-98.428-102.323-98.428l-17.194-0.054c-17.78-30.52-50.877-51.146-88.558-51.146s-70.778 20.626-88.558 51.146l-21.125 0.054c-53.168-0.001-97.492 40.69-102.028 93.664-11.576 135.196-26.834 218.578-45.774 250.144l-48.231 80.385c-31.601 52.668-49.536 112.302-52.306 173.486l-0.378 16.721c0 197.939 160.461 358.4 358.4 358.4zM511.999 857.599c-137.664 0-249.949-108.662-255.788-242.757l-0.239-10.927 0.3-14.406c1.782-39.363 12.243-77.798 30.576-112.57l7.242-12.862 48.231-80.385c25.156-41.926 43.53-87.309 54.659-134.473l1.303-57.219h227.43l1.748 59.087c9.781 40.708 24.96 80.047 45.221 116.944l8.993 15.66 48.231 80.385c22.433 37.388 35.341 79.63 37.709 121.763l0.398 14.033-0.164 10.591c-4.648 137.569-117.755 247.136-255.851 247.136z" />
<glyph unicode="&#xe160;" glyph-name="control-nextanswer" d="M559.812 734.864c184.836 0 334.673-149.84 334.673-334.673 0-75.045-24.701-144.324-66.417-200.146l149.293-145.47-66.628-68.586-150.204 146.37c-55.919-41.974-125.415-66.844-200.717-66.844-184.836 0-334.673 149.84-334.673 334.673 0 71.112 22.178 137.046 59.999 191.258l-251.24-0.017v95.62l353.431-0.002c50.37 30.354 109.389 47.814 172.486 47.814zM559.812 639.241c-132.026 0-239.052-107.027-239.052-239.052s107.027-239.052 239.052-239.052c132.026 0 239.052 107.027 239.052 239.052s-107.027 239.052-239.052 239.052zM679.079 519.716l60.24-57.843-228.755-218.081-141.996 136.349 60.24 57.843 81.756-78.503 168.512 160.234zM751.052 878.293v-95.62h-573.725v95.62h573.725zM129.516 878.293v-95.62h-95.62v95.62h95.62z" />
<glyph unicode="&#xe165;" glyph-name="control-allanswers" d="M896 746.667c46.933 0 85.333-38.4 85.333-85.333v-128l-85.333 0.043v127.957h-597.333v-597.333h128v-85.333l470.413 0.007c-0.359-0.005-0.719-0.007-1.080-0.007h-597.333c-46.933 0-85.333 38.4-85.333 85.333v597.333c0 46.933 38.4 85.333 85.333 85.333h597.333zM618.667 618.667c153.167 0 277.333-124.166 277.333-277.333 0-63.754-21.513-122.484-57.675-169.326l107.756-107.812-60.34-60.34-109.332 109.345c-44.782-31.023-99.14-49.2-157.743-49.2-153.167 0-277.333 124.166-277.333 277.333s124.166 277.333 277.333 277.333zM810.667 917.333v-85.333h-682.667v-682.667h-85.333v682.667c0 46.933 38.4 85.333 85.333 85.333h682.667zM618.667 533.333c-106.039 0-192-85.961-192-192s85.961-192 192-192c106.039 0 192 85.961 192 192s-85.961 192-192 192zM706.648 448l60.16-60.16-186.422-189.876-111.052 109.442 60.16 60.16 50.465-48.855 126.689 129.289z" />
<glyph unicode="&#xe170;" glyph-name="control-answers" d="M766.437 828.982c171.53-159.955 189.346-425.441 46.82-606.678l203.265-197.506-73.711-75.874-204.307 198.46c-170.994-134.97-421.338-128.902-585.295 23.99-180.842 168.638-190.828 454.576-22.189 635.418s454.576 190.828 635.418 22.189zM208.383 734.648c-128.793-138.114-121.146-357.114 16.968-485.908s357.114-121.146 485.908 16.968c128.793 138.114 121.146 357.114-16.968 485.908s-357.114 121.146-485.908-16.968zM631.192 685.3l66.644-63.993-318.939-306.251-157.089 150.84 66.644 63.993 90.445-86.847 252.295 242.259z" />
<glyph unicode="&#xe175;" glyph-name="control-solutionhint" d="M512 954.667c-279.68 0-506.667-226.987-506.667-506.667s226.987-506.667 506.667-506.667c279.68 0 506.667 226.987 506.667 506.667s-226.987 506.667-506.667 506.667zM512 42.667c-223.44 0-405.333 181.893-405.333 405.333s181.893 405.333 405.333 405.333c223.44 0 405.333-181.893 405.333-405.333s-181.893-405.333-405.333-405.333zM233.333 169.333l380.507 176.827 176.827 380.507-380.507-176.827-176.827-380.507zM512 503.733c30.907 0 55.733-24.827 55.733-55.733s-24.827-55.733-55.733-55.733c-30.907 0-55.733 24.827-55.733 55.733s24.827 55.733 55.733 55.733z" />
<glyph unicode="&#xe180;" glyph-name="control-check" d="M728.45 494.939l-172.187 172.187 68.584 68.584 103.115-103.115 206.236 206.236 68.584-68.584-274.333-275.306zM458.979 689.5h-437.761v-97.277h437.761v97.277zM945.386 377.715l-68.584 68.584-125.978-125.978-125.978 125.978-68.584-68.584 125.978-125.978-125.978-125.978 68.584-68.584 125.978 125.978 125.978-125.978 68.584 68.584-125.978 125.978 125.978 125.978zM458.979 300.379h-437.761v-97.277h437.761v97.277z" />
<glyph unicode="&#xe185;" glyph-name="control-clear" d="M832.002 714.667v-639.998c0-58.669-48-106.669-106.669-106.669v0h-426.665c-58.669 0-106.669 48-106.669 106.669v0 639.998h639.998zM725.333 607.998h-426.665v-533.335h426.665v533.335zM472.002 501.499v-320.002h-80.002v320.002h80.002zM631.906 501.499v-320.002h-80.002v320.002h80.002zM645.331 928l53.335-53.335h186.665v-106.669h-746.667v106.669h186.665l53.335 53.335h266.667z" />
<glyph unicode="&#xe190;" glyph-name="control-clearAll" d="M625.067 529.6l-113.067-113.067-113.602 113.067-75.202-75.202 113.602-113.067-113.067-113.067 75.202-75.202 113.067 113.067 113.067-113.067 75.202 75.202-113.067 113.067 113.067 113.067-75.202 75.202zM698.665 874.665l-53.335 53.335h-266.667l-53.335-53.335h-186.665v-106.669h746.667v106.669h-186.665zM191.998 74.669c0-58.669 48-106.669 106.669-106.669h426.665c58.669 0 106.669 48 106.669 106.669v639.998h-639.998v-639.998zM298.667 607.998h426.665v-533.335h-426.665v533.335z" />
<glyph unicode="&#xe195;" glyph-name="control-retry" d="M150.4 809.6c92.8 92.8 220.16 150.4 361.6 150.4 282.88 0 511.36-229.12 511.36-512s-228.48-512-511.36-512c-238.72 0-437.76 163.2-494.72 384h133.12c52.48-149.12 194.56-256 361.6-256 211.84 0 384 172.16 384 384s-172.16 384-384 384c-106.24 0-200.96-44.16-270.080-113.92l206.080-206.080h-448v448l150.4-150.4z" />
<glyph unicode="&#xe200;" glyph-name="control-sendscores" d="M18.874 572.259l963.968 385.587c15.387 6.155 32.852-1.329 39.007-16.718 2.861-7.154 2.861-15.135 0-22.289l-385.587-963.968c-6.155-15.387-23.618-22.872-39.007-16.718-6.85 2.74-12.45 7.907-15.732 14.515l-187.427 377.423-377.423 187.427c-14.844 7.371-20.901 25.38-13.53 40.224 3.282 6.608 8.881 11.775 15.732 14.515zM826.732 708.201l-337.801-337.801 112.255-226.075 225.547 563.877zM208.215 537.209l226.099-112.277 337.844 337.844-563.943-225.566z" />
<glyph unicode="&#xe205;" glyph-name="control-submit" d="M776.516 28.874l214.022 535.053c4.2 10.498-0.908 22.411-11.403 26.612-4.881 1.951-10.324 1.951-15.206 0l-535.053-214.022c-10.498-4.2-15.604-16.114-11.403-26.612 1.869-4.673 5.395-8.495 9.903-10.734l208.339-103.461 103.461-208.339c5.028-10.126 17.314-14.259 27.44-9.231 4.508 2.239 8.034 6.058 9.903 10.734zM825.49 462.801l-159.182-159.182-99.192 45.567 258.371 113.614zM752.598 163.956l-45.587 99.17 159.079 159.079-113.489-258.249zM693.333 880c56.115 0 102.472-39.525 106.399-89.171l0.269-6.83-0.049-96.001h-96.001l0.049 96.001h-575.999v-672h383.999v-96.001h-373.333c-56.115 0-102.472 39.525-106.399 89.171l-0.269 6.83v672c0 50.506 43.918 92.226 99.079 95.759l7.588 0.242h554.666zM368.001 496.001v-96.001h-143.999v96.001h143.999zM608.001 688v-96.001h-383.999v96.001h383.999z" />
<glyph unicode="&#xe210;" glyph-name="control-results" d="M610.134 791.466h392.534v-98.134h-392.534v98.134zM610.134 521.6h392.534v-98.134h-392.534v98.134zM610.134 251.734h392.534v-98.134h-392.534v98.134zM21.334 472.534c0-175.658 143.274-318.934 318.934-318.934h24.534v-98.134l147.2 147.2-147.2 147.2v-98.134h-24.534c-121.686 0-220.8 99.114-220.8 220.8s99.114 220.8 220.8 220.8h171.734v98.134h-171.734c-175.658 0-318.934-143.274-318.934-318.934z" />
<glyph unicode="&#xe215;" glyph-name="control-review" d="M895.999 880c52.801 0 96.001-43.2 96.001-96.001v0-672c0-52.801-43.2-96.001-96.001-96.001v0h-767.999c-52.801 0-96.001 43.2-96.001 96.001v0 672c0 52.801 43.2 96.001 96.001 96.001v0zM895.999 783.999h-767.999v-672h767.999v672zM415.999 304.001v-96.001h-240v96.001h240zM799.52 591.999l68.159-68.159-220.32-219.839-135.359 136.32 67.681 67.681 67.681-68.159 152.161 152.161zM415.999 496.001v-96.001h-240v96.001h240zM415.999 688v-96.001h-240v96.001h240z" />
<glyph unicode="&#xe220;" glyph-name="control-save" d="M760.889 896h-597.332c-55.252 0-99.557-44.8-99.557-99.557v-696.889c0-54.757 44.301-99.557 99.557-99.557h696.889c54.757 0 99.557 44.8 99.557 99.557v597.332l-199.111 199.111zM860.443 99.557h-696.889v696.889h556.019l140.871-140.871v-556.019zM512 448c-82.631 0-149.332-66.701-149.332-149.332s66.701-149.332 149.332-149.332c82.631 0 149.332 66.701 149.332 149.332s-66.701 149.332-149.332 149.332zM213.332 746.668h398.221v-149.332h-398.221v149.332z" />
<glyph unicode="&#xe225;" glyph-name="control-export" d="M965.333 108v-113.333h-906.667v113.333h906.667zM512 901.333l283.333-283.333-79.9-80.467-146.767 146.767v-462.967h-113.333v462.967l-146.767-146.2-79.9 79.9 283.333 283.333z" />
<glyph unicode="&#xe230;" glyph-name="control-settings" d="M889.142 246.858h-528v25.142c0 13.829-11.313 25.142-25.142 25.142h-50.286c-13.829 0-25.142-11.313-25.142-25.142v-25.142h-125.713c-13.829 0-25.142-11.313-25.142-25.142v-50.286c0-13.829 11.313-25.142 25.142-25.142h125.713v-25.142c0-13.829 11.313-25.142 25.142-25.142h50.286c13.829 0 25.142 11.313 25.142 25.142v25.142h528c13.829 0 25.142 11.313 25.142 25.142v50.286c0 13.829-11.313 25.142-25.142 25.142zM889.142 498.286h-125.713v25.142c0 13.829-11.313 25.142-25.142 25.142h-50.286c-13.829 0-25.142-11.313-25.142-25.142v-25.142h-528c-13.829 0-25.142-11.313-25.142-25.142v-50.286c0-13.829 11.313-25.142 25.142-25.142h528v-25.142c0-13.829 11.313-25.142 25.142-25.142h50.286c13.829 0 25.142 11.313 25.142 25.142v25.142h125.713c13.829 0 25.142 11.313 25.142 25.142v50.286c0 13.829-11.313 25.142-25.142 25.142zM889.142 749.713h-326.858v25.142c0 13.829-11.313 25.142-25.142 25.142h-50.286c-13.829 0-25.142-11.313-25.142-25.142v-25.142h-326.858c-13.829 0-25.142-11.313-25.142-25.142v-50.286c0-13.829 11.313-25.142 25.142-25.142h326.858v-25.142c0-13.829 11.313-25.142 25.142-25.142h50.286c13.829 0 25.142 11.313 25.142 25.142v25.142h326.858c13.829 0 25.142 11.313 25.142 25.142v50.286c0 13.829-11.313 25.142-25.142 25.142z" />
<glyph unicode="&#xe235;" glyph-name="control-rights" d="M505.92 592.907c64.853-3.040 81.573-58.267 82.587-84.107h90.693c-4.053 100.32-75.493 161.627-174.8 161.627-111.973 0-195.067-70.427-195.067-229.52 0-98.293 47.12-214.827 194.56-214.827 112.48 0 172.773 83.6 174.293 149.467h-90.693c-1.52-29.893-22.8-69.92-82.587-72.96-66.373 2.027-94.24 53.707-94.24 138.32 0 146.427 64.853 150.987 95.253 152zM512 954.667c-279.68 0-506.667-226.987-506.667-506.667s226.987-506.667 506.667-506.667c279.68 0 506.667 226.987 506.667 506.667s-226.987 506.667-506.667 506.667zM512 42.667c-223.44 0-405.333 181.893-405.333 405.333s181.893 405.333 405.333 405.333c223.44 0 405.333-181.893 405.333-405.333s-181.893-405.333-405.333-405.333z" />
<glyph unicode="&#xe240;" glyph-name="control-help" d="M461.333 144h101.333v101.333h-101.333v-101.333zM512 954.667c-279.68 0-506.667-226.987-506.667-506.667s226.987-506.667 506.667-506.667c279.68 0 506.667 226.987 506.667 506.667s-226.987 506.667-506.667 506.667zM512 42.667c-223.44 0-405.333 181.893-405.333 405.333s181.893 405.333 405.333 405.333c223.44 0 405.333-181.893 405.333-405.333s-181.893-405.333-405.333-405.333zM512 752c-111.973 0-202.667-90.693-202.667-202.667h101.333c0 55.733 45.6 101.333 101.333 101.333s101.333-45.6 101.333-101.333c0-101.333-152-88.667-152-253.333h101.333c0 114 152 126.667 152 253.333 0 111.973-90.693 202.667-202.667 202.667z" />
<glyph unicode="&#xe245;" glyph-name="control-scrollIndicator-left" d="M520.747 643.84l-60.16 60.16-256-256 256-256 60.16 60.16-195.413 195.84zM819.413 643.84l-60.16 60.16-256-256 256-256 60.16 60.16-195.413 195.84z" />
<glyph unicode="&#xe250;" glyph-name="control-scrollIndicator-right" d="M503.253 643.84l60.16 60.16 256-256-256-256-60.16 60.16 195.413 195.84-195.413 195.84zM204.587 643.84l60.16 60.16 256-256-256-256-60.16 60.16 195.413 195.84-195.413 195.84z" />
<glyph unicode="&#xe255;" glyph-name="control-showContent" d="M483.563 220.448v455.101l-227.551-227.551 227.551-227.551zM113.792-63.989c-31.289 0-58.026 11.151-80.382 33.392-20.61 19.949-33.405 47.862-33.405 78.767 0 0.567 0.004 1.136 0.014 1.701l-0.001-0.084v796.427c0 31.289 11.151 58.026 33.392 80.382 19.949 20.61 47.862 33.405 78.767 33.405 0.567 0 1.136-0.004 1.701-0.014l-0.084 0.001h796.427c31.289 0 58.026-11.151 80.382-33.392 22.187-22.356 33.392-49.094 33.392-80.382v-796.427c0-31.289-11.151-58.026-33.392-80.382-19.949-20.61-47.862-33.405-78.767-33.405-0.567 0-1.136 0.004-1.701 0.014l0.084-0.001h-796.427zM739.557 49.785h170.663v796.427h-170.663v-796.427zM625.779 49.785v796.427h-511.988v-796.427h511.988z" />
<glyph unicode="&#xe260;" glyph-name="control-hideContent" d="M256.012 675.552v-455.101l227.551 227.551-227.551 227.551zM113.793-63.987c-31.289 0-58.025 11.15-80.382 33.393-20.61 19.948-33.405 47.863-33.405 78.766 0 0.568 0.004 1.135 0.013 1.701l-0.001-0.085v796.426c0 31.289 11.15 58.025 33.393 80.382 19.948 20.61 47.863 33.405 78.766 33.405 0.568 0 1.135-0.004 1.701-0.013l-0.085 0.001h796.426c31.289 0 58.025-11.15 80.382-33.393 22.186-22.357 33.393-49.094 33.393-80.382v-796.426c0-31.289-11.15-58.025-33.393-80.382-19.948-20.61-47.863-33.405-78.766-33.405-0.568 0-1.135 0.004-1.701 0.013l0.085-0.001h-796.426zM739.558 49.788h170.663v796.426h-170.663v-796.426zM625.781 49.788v796.426h-511.989v-796.426h511.989z" />
<glyph unicode="&#xe265;" glyph-name="info-circle" d="M464 688h96v-96h-96zM464 496h96v-288h-96zM512 928c-264.96 0-480-215.040-480-480s215.040-480 480-480 480 215.040 480 480-215.040 480-480 480zM512 64c-211.68 0-384 172.32-384 384s172.32 384 384 384 384-172.32 384-384-172.32-384-384-384z" />
<glyph unicode="&#xe300;" glyph-name="mediaplayer-play" d="M704 448l-298.667-213.333v426.667z" />
<glyph unicode="&#xe305;" glyph-name="mediaplayer-pause" d="M455.111 618.667v-341.333h-113.778v341.333h113.778zM682.667 618.667v-341.333h-113.778v341.333h113.778z" />
<glyph unicode="&#xe310;" glyph-name="mediaplayer-stop" d="M341.333 618.667h341.333v-341.333h-341.333v341.333z" />
<glyph unicode="&#xe315;" glyph-name="mediaplayer-replay" d="M753.004 689.067c-61.905 61.867-146.865 100.267-241.217 100.267-188.705 0-341.12-152.747-341.12-341.333s152.415-341.333 341.12-341.333c159.246 0 292.023 108.8 330.020 256h-88.802c-35.009-99.413-129.788-170.667-241.217-170.667-141.315 0-256.16 114.773-256.16 256s114.845 256 256.16 256c70.871 0 134.057-29.44 180.166-75.947l-137.473-137.387h298.853v298.667l-100.329-100.267z" />
<glyph unicode="&#xe320;" glyph-name="mediaplayer-volume-high" d="M490.933 832v-768l-236.538 236.509h-169.061v294.981h169.024l236.575 236.509zM881.92 675.84c37.547-75.947 56.747-152.32 56.747-226.56 0-68.937-16.555-140.082-48.982-211.725l-7.765-16.541-57.6 28.16c33.28 68.267 50.347 135.68 50.347 200.107 0 59.077-14.542 120.699-42.955 182.516l-7.392 15.457 57.6 28.587zM417.187 653.971l-132.218-132.225h-125.891v-147.491h125.891l132.218-132.189v411.905zM747.947 616.533c27.307-54.613 40.96-113.067 40.96-173.653 0-56.32-11.831-107.621-35.165-153.574l-6.649-12.4-55.467 31.573c22.187 39.253 33.28 84.48 33.28 134.4 0 45.696-9.331 89.664-27.683 131.282l-6.451 13.785 57.173 28.587zM616.96 552.107c14.933-32 22.613-66.56 23.040-102.4 0.373-31.733-5.46-63.14-17.5-93.648l-5.54-13.018-58.453 26.453c11.52 26.027 17.493 52.48 17.067 79.36-0.366 23.406-4.493 45.558-12.651 66.456l-4.416 10.344 58.453 26.453z" />
<glyph unicode="&#xe325;" glyph-name="mediaplayer-volume-medium" d="M490.933 832v-768l-236.538 236.509h-169.061v294.981h169.024l236.575 236.509zM417.187 653.971l-132.218-132.225h-125.891v-147.491h125.891l132.218-132.189v411.905zM747.947 616.533c27.307-54.613 40.96-113.067 40.96-173.653 0-56.32-11.831-107.621-35.165-153.574l-6.649-12.4-55.467 31.573c22.187 39.253 33.28 84.48 33.28 134.4 0 45.696-9.331 89.664-27.683 131.282l-6.451 13.785 57.173 28.587zM616.96 552.107c14.933-32 22.613-66.56 23.040-102.4 0.373-31.733-5.46-63.14-17.5-93.648l-5.54-13.018-58.453 26.453c11.52 26.027 17.493 52.48 17.067 79.36-0.366 23.406-4.493 45.558-12.651 66.456l-4.416 10.344 58.453 26.453z" />
<glyph unicode="&#xe330;" glyph-name="mediaplayer-volume-low" d="M490.933 832v-768l-236.538 236.509h-169.061v294.981h169.024l236.575 236.509zM417.187 653.971l-132.218-132.225h-125.891v-147.491h125.891l132.218-132.189v411.905zM616.96 552.107c14.933-32 22.613-66.56 23.040-102.4 0.427-36.267-7.253-72.107-23.040-106.667v0l-58.453 26.453c11.52 26.027 17.493 52.48 17.067 79.36-0.427 27.307-5.973 52.907-17.067 76.8v0z" />
<glyph unicode="&#xe335;" glyph-name="mediaplayer-volume-mute" d="M490.933 832v-768l-236.538 236.509h-169.061v294.981h169.024l236.575 236.509zM417.187 653.971l-132.218-132.225h-125.891v-147.491h125.891l132.218-132.189v411.905zM893.585 641.43l45.255-45.255-130.832-130.802 130.832-130.862-45.255-45.255-130.832 130.862-130.832-130.862-45.255 45.255 130.832 130.862-130.832 130.802 45.255 45.255 130.832-130.802 130.832 130.802z" />
<glyph unicode="&#xe340;" glyph-name="mediaplayer-speed" d="M219.456 670.335c142.417 135.337 358.84 155.929 524.224 49.878v0l-78.933-52.48c-134.745 67.405-297.746 38.492-401.089-71.144s-122.581-274.059-47.338-404.59v0h591.36c57.269 99.38 60.796 220.879 9.387 323.413v0l52.48 78.933 0.427 0.427c87.225-134.523 91.675-306.589 11.52-445.44-15.304-26.507-43.632-42.788-74.24-42.667v0h-590.933c-30.303 0.184-58.236 16.424-73.387 42.667-97.487 170.573-65.895 385.665 76.522 521.002zM814.080 664.747l-241.493-362.24-120.747 120.747 362.24 241.493z" />
<glyph unicode="&#xe345;" glyph-name="mediaplayer-speed-on" d="M512 789.333c235.641 0 426.667-181.474 426.667-405.333 0-3.94-0.062-7.815-0.185-11.626 1.802-76.759-17.136-154.005-56.988-223.041-14.127-24.468-39.351-40.223-67.222-42.407l-7.018-0.26h-590.933c-30.303 0.184-58.236 16.424-73.387 42.667-36.080 63.129-54.479 132.356-56.124 201.381-0.982 10.517-1.476 21.616-1.476 33.286 0 223.859 191.025 405.333 426.667 405.333zM814.080 664.747l-362.24-241.493 120.747-120.747 241.493 362.24z" />
<glyph unicode="&#xe350;" glyph-name="mediaplayer-transcriptions" d="M853.333 789.333h-682.667c-46.933 0-85.333-38.4-85.333-85.333v-512c0-46.933 38.4-85.333 85.333-85.333h682.667c46.933 0 85.333 38.4 85.333 85.333v512c0 46.933-38.4 85.333-85.333 85.333zM853.333 192h-682.667v512h682.667v-512zM256 533.333h85.333v-85.333h-85.333v85.333zM256 362.667h341.333v-85.333h-341.333v85.333zM682.667 362.667h85.333v-85.333h-85.333v85.333zM426.667 533.333h341.333v-85.333h-341.333v85.333z" />
<glyph unicode="&#xe355;" glyph-name="mediaplayer-transcriptions-on" d="M853.333 789.333h-682.667c-46.933 0-85.333-38.4-85.333-85.333v-512c0-46.933 38.4-85.333 85.333-85.333h682.667c46.933 0 85.333 38.4 85.333 85.333v512c0 46.933-38.4 85.333-85.333 85.333zM256 533.333h85.333v-85.333h-85.333v85.333zM256 362.667h341.333v-85.333h-341.333v85.333zM682.667 362.667h85.333v-85.333h-85.333v85.333zM426.667 533.333h341.333v-85.333h-341.333v85.333z" />
<glyph unicode="&#xe360;" glyph-name="mediaplayer-closed-captioning" d="M810.667 789.333h-597.333c-47.36 0-85.333-38.4-85.333-85.333v-512c0-46.933 37.973-85.333 85.333-85.333h597.333c46.933 0 85.333 38.4 85.333 85.333v512c0 46.933-38.4 85.333-85.333 85.333zM810.667 192h-597.333v512h597.333v-512zM298.667 320h128c23.467 0 42.667 19.2 42.667 42.667v42.667h-64v-21.333h-85.333v128h85.333v-21.333h64v42.667c0 23.467-19.2 42.667-42.667 42.667h-128c-23.467 0-42.667-19.2-42.667-42.667v-170.667c0-23.467 19.2-42.667 42.667-42.667zM597.333 320h128c23.467 0 42.667 19.2 42.667 42.667v42.667h-64v-21.333h-85.333v128h85.333v-21.333h64v42.667c0 23.467-19.2 42.667-42.667 42.667h-128c-23.467 0-42.667-19.2-42.667-42.667v-170.667c0-23.467 19.2-42.667 42.667-42.667z" />
<glyph unicode="&#xe365;" glyph-name="mediaplayer-closed-captioning-on" d="M810.667 789.333c46.933 0 85.333-38.4 85.333-85.333v0-512c0-46.933-38.4-85.333-85.333-85.333v0h-597.333c-47.36 0-85.333 38.4-85.333 85.333v0 512c0 46.933 37.973 85.333 85.333 85.333v0zM426.667 576h-128c-23.467 0-42.667-19.2-42.667-42.667v-170.667c0-23.467 19.2-42.667 42.667-42.667h128c23.467 0 42.667 19.2 42.667 42.667v42.667h-64v-21.333h-85.333v128h85.333v-21.333h64v42.667c0 23.467-19.2 42.667-42.667 42.667zM725.333 576h-128c-23.467 0-42.667-19.2-42.667-42.667v-170.667c0-23.467 19.2-42.667 42.667-42.667h128c23.467 0 42.667 19.2 42.667 42.667v42.667h-64v-21.333h-85.333v128h85.333v-21.333h64v42.667c0 23.467-19.2 42.667-42.667 42.667z" />
<glyph unicode="&#xe370;" glyph-name="mediaplayer-fullscreen" d="M256 362.667h-85.333v-213.333h213.333v85.333h-128v128zM170.667 533.333h85.333v128h128v85.333h-213.333v-213.333zM768 234.667h-128v-85.333h213.333v213.333h-85.333v-128zM640 746.667v-85.333h128v-128h85.333v213.333h-213.333z" />
<glyph unicode="&#xe375;" glyph-name="mediaplayer-fullscreen-on" d="M170.667 277.333h128v-128h85.333v213.333h-213.333v-85.333zM298.667 618.667h-128v-85.333h213.333v213.333h-85.333v-128zM640 149.333h85.333v128h128v85.333h-213.333v-213.333zM725.333 618.667v128h-85.333v-213.333h213.333v85.333h-128z" />
<glyph unicode="&#xe380;" glyph-name="mediaplayer-record" d="M725.333 448c0-117.821-95.513-213.333-213.333-213.333s-213.333 95.513-213.333 213.333c0 117.821 95.513 213.333 213.333 213.333s213.333-95.513 213.333-213.333z" />
<glyph unicode="&#xe385;" glyph-name="mediaplayer-download" d="M562.525 422.736v-253.137h151.578l-202.105-201.6-202.105 201.6h151.578v253.137h101.053zM511.475 927.999c139.236 0 252.108-112.874 252.108-252.108v-25.785h13.677c104.644 0 189.473-84.83 189.473-189.473s-84.83-189.473-189.473-189.473h-113.685v101.053h113.685c48.833 0 88.422 39.587 88.422 88.422 0 46.393-35.728 84.438-81.168 88.127l-7.251 0.293h-114.731v126.839c0 80.446-62.886 146.205-142.181 150.799l-8.875 0.256h-14.967c-87.202 0-163.076-58.471-185.857-141.796l-2.39-9.723-16.949-77.483-36.405-2.101c-51.361-2.525-92.505-43.176-96.307-93.942l-0.286-7.688v-10.125c0-59.103 45.829-107.503 103.89-111.599l7.991-0.282h90.225v-101.053h-140.751c-87.154 0-162.405 85.024-162.405 212.932v10.125c0 155.891 136.695 202.291 142.158 202.559l10.123 0.249c29.5 134.857 148.92 230.978 286.965 230.978h14.967z" />
<glyph unicode="&#xe390;" glyph-name="mediaplayer-settings" d="M756.372 414.549c1.365 10.923 2.389 21.845 2.389 33.451s-1.024 22.528-2.389 33.451l72.021 56.32c6.485 5.12 8.192 14.336 4.096 21.845l-68.267 118.101c-3.072 5.461-8.875 8.533-15.019 8.533-2.048 0-4.096-0.341-5.803-1.024l-84.992-34.133c-17.749 13.653-36.864 24.917-57.685 33.451l-12.971 90.453c-1.024 8.192-8.192 14.336-16.725 14.336h-136.533c-8.533 0-15.701-6.144-16.725-14.336l-12.971-90.453c-20.821-8.533-39.936-20.139-57.685-33.451l-84.992 34.133c-2.048 0.683-4.096 1.024-6.144 1.024-5.803 0-11.605-3.072-14.677-8.533l-68.267-118.101c-4.437-7.509-2.389-16.725 4.096-21.845l72.021-56.32c-1.365-10.923-2.389-22.187-2.389-33.451s1.024-22.528 2.389-33.451l-72.021-56.32c-6.485-5.12-8.192-14.336-4.096-21.845l68.267-118.101c3.072-5.461 8.875-8.533 15.019-8.533 2.048 0 4.096 0.341 5.803 1.024l84.992 34.133c17.749-13.653 36.864-24.917 57.685-33.451l12.971-90.453c1.024-8.192 8.192-14.336 16.725-14.336h136.533c8.533 0 15.701 6.144 16.725 14.336l12.971 90.453c20.821 8.533 39.936 20.139 57.685 33.451l84.992-34.133c2.048-0.683 4.096-1.024 6.144-1.024 5.803 0 11.605 3.072 14.677 8.533l68.267 118.101c4.096 7.509 2.389 16.725-4.096 21.845l-72.021 56.32zM688.788 472.917c1.365-10.581 1.707-17.749 1.707-24.917s-0.683-14.677-1.707-24.917l-4.779-38.571 30.379-23.893 36.864-28.672-23.893-41.301-43.349 17.408-35.499 14.336-30.72-23.211c-14.677-10.923-28.672-19.115-42.667-24.917l-36.181-14.677-5.461-38.571-6.827-46.080h-47.787l-6.485 46.080-5.461 38.571-36.181 14.677c-14.677 6.144-28.331 13.995-41.984 24.235l-31.061 23.893-36.181-14.677-43.349-17.408-23.893 41.301 36.864 28.672 30.379 23.893-4.779 38.571c-1.024 10.581-1.707 18.432-1.707 25.259s0.683 14.677 1.707 24.917l4.779 38.571-30.379 23.893-36.864 28.672 23.893 41.301 43.349-17.408 35.499-14.336 30.72 23.211c14.677 10.923 28.672 19.115 42.667 24.917l36.181 14.677 5.461 38.571 6.827 46.080h47.445l6.485-46.080 5.461-38.571 36.181-14.677c14.677-6.144 28.331-13.995 41.984-24.235l31.061-23.893 36.181 14.677 43.349 17.408 23.893-41.301-36.523-29.013-30.379-23.893 4.779-38.571zM502.761 584.533c-75.435 0-136.533-61.099-136.533-136.533s61.099-136.533 136.533-136.533c75.435 0 136.533 61.099 136.533 136.533s-61.099 136.533-136.533 136.533zM502.761 379.733c-37.547 0-68.267 30.72-68.267 68.267s30.72 68.267 68.267 68.267c37.547 0 68.267-30.72 68.267-68.267s-30.72-68.267-68.267-68.267z" />
<glyph unicode="&#xe400;" glyph-name="input-radiobutton-outside" d="M512 896c247.424 0 448-200.576 448-448s-200.576-448-448-448c-247.424 0-448 200.576-448 448s200.576 448 448 448zM512 840c-216.496 0-392-175.504-392-392s175.504-392 392-392c216.496 0 392 175.504 392 392s-175.504 392-392 392z" />
<glyph unicode="&#xe405;" glyph-name="input-radiobutton-inside" d="M736 448c0-123.713-100.287-224-224-224s-224 100.287-224 224c0 123.713 100.287 224 224 224s224-100.287 224-224z" />
<glyph unicode="&#xe410;" glyph-name="input-checkbox-outside" d="M848 896c61.856 0 112-50.144 112-112v-672c0-61.856-50.144-112-112-112h-672c-61.856 0-112 50.144-112 112v672c0 61.856 50.144 112 112 112h672zM848 840h-672c-28.719 0-52.388-21.619-55.623-49.468l-0.377-6.532v-672c0-28.72 21.619-52.388 49.47-55.623l6.53-0.377h672c28.72 0 52.388 21.619 55.623 49.47l0.377 6.53v672c0 28.72-21.619 52.388-49.47 55.623l-6.53 0.377z" />
<glyph unicode="&#xe415;" glyph-name="input-checkbox-inside" d="M256 768h512c35.345 0 64-28.655 64-64v-512c0-35.345-28.655-64-64-64h-512c-35.345 0-64 28.655-64 64v512c0 35.345 28.655 64 64 64z" />
<glyph unicode="&#xe450;" glyph-name="glyph-more" d="M682.667 448c0-46.933 38.4-85.333 85.333-85.333s85.333 38.4 85.333 85.333c0 46.933-38.4 85.333-85.333 85.333s-85.333-38.4-85.333-85.333zM597.333 448c0 46.933-38.4 85.333-85.333 85.333s-85.333-38.4-85.333-85.333c0-46.933 38.4-85.333 85.333-85.333s85.333 38.4 85.333 85.333zM341.333 448c0 46.933-38.4 85.333-85.333 85.333s-85.333-38.4-85.333-85.333c0-46.933 38.4-85.333 85.333-85.333s85.333 38.4 85.333 85.333z" />
<glyph unicode="&#xe455;" glyph-name="glyph-directive" d="M805.973 457.813l-162.133 71.253c-5.547 2.56-11.947 4.267-18.773 4.267h-27.733v192c0 58.91-47.756 106.667-106.667 106.667s-106.667-47.756-106.667-106.667v0-347.733l-79.787 17.067c-8.107 1.28-43.52 6.4-73.813-23.893l-59.733-60.16 218.453-221.44c15.787-16.213 37.547-25.173 60.16-25.173h279.467c41.813 0 77.227 29.867 84.053 71.253l39.253 232.107c0.745 4.236 1.171 9.113 1.171 14.089 0 33.249-19.016 62.057-46.765 76.141l-0.486 0.224zM728.747 149.333h-279.467l-157.867 161.28 177.92-37.973v452.693c0 11.947 9.387 21.333 21.333 21.333s21.333-9.387 21.333-21.333v-263.68h75.093l180.907-80.213-39.253-232.107z" />
<glyph unicode="&#xe460;" glyph-name="glyph-question" d="M566.187 221.269c0 58.027 13.952 102.571 41.856 133.504l62.464 61.867c61.867 64.939 92.8 130.816 92.8 197.632 0 67.627-20.139 120.789-60.459 159.573-40.235 38.784-96.512 58.155-168.661 58.155-69.547 0-125.952-18.987-169.301-57.003-43.392-37.973-65.451-87.936-66.219-149.803h105.984c0 34.731 11.861 62.421 35.541 83.072 23.68 20.608 54.997 30.933 93.952 30.933 40.107 0 70.656-11.392 91.648-34.133 21.035-22.699 31.531-54.101 31.531-94.208 0-41.643-16.043-80.597-48.128-116.907l-75.093-77.312c-29.355-32.085-48.853-61.312-58.411-87.68-9.557-26.325-14.677-62.251-15.445-107.691h105.984zM567.125 24.96v124.373h-106.667v-124.373h106.667z" />
<glyph unicode="&#xe465;" glyph-name="glyph-info" d="M576 664.96v124.373h-106.667v-124.373h106.667zM576 106.667v469.035h-106.667v-469.035h106.667z" />
<glyph unicode="&#xe470;" glyph-name="glyph-warning" d="M576 231.040v-124.373h-106.667v124.373h106.667zM576 789.333v-469.035h-106.667v469.035h106.667z" />
<glyph unicode="&#xe471;" glyph-name="glyph-pdf" d="M853.333 874.667h-512c-46.933 0-85.333-38.4-85.333-85.333v-512c0-46.933 38.4-85.333 85.333-85.333h512c46.933 0 85.333 38.4 85.333 85.333v512c0 46.933-38.4 85.333-85.333 85.333zM853.333 277.333h-512v512h512v-512zM170.667 704h-85.333v-597.333c0-46.933 38.4-85.333 85.333-85.333h597.333v85.333h-597.333v597.333zM682.667 448v128c0 23.467-19.2 42.667-42.667 42.667h-85.333v-213.333h85.333c23.467 0 42.667 19.2 42.667 42.667zM597.333 576h42.667v-128h-42.667v128zM768 490.667h42.667v42.667h-42.667v42.667h42.667v42.667h-85.333v-213.333h42.667v85.333zM426.667 490.667h42.667c23.467 0 42.667 19.2 42.667 42.667v42.667c0 23.467-19.2 42.667-42.667 42.667h-85.333v-213.333h42.667v85.333zM426.667 576h42.667v-42.667h-42.667v42.667z" />
<glyph unicode="&#xe473;" glyph-name="glyph-waiting" horiz-adv-x="981" d="M490.042 906.501c-253.093 0-458.043-205.409-458.043-458.501s204.95-458.501 458.043-458.501c253.551 0 458.96 205.409 458.96 458.501s-205.409 458.501-458.96 458.501zM490.501 81.199c-202.658 0-366.801 164.143-366.801 366.801s164.143 366.801 366.801 366.801c202.658 0 366.801-164.143 366.801-366.801s-164.143-366.801-366.801-366.801zM513.426 677.251h-68.775v-275.101l240.713-144.428 34.388 56.396-206.326 122.42v240.713z" />
<glyph unicode="&#xe475;" glyph-name="glyph-close" d="M924.988 860.988c16.103-16.103 17.344-41.445 3.715-58.971l-3.715-4.209-349.863-349.795 349.863-349.828c17.447-17.447 17.447-45.733 0-63.179-16.103-16.103-41.445-17.344-58.971-3.715l-4.209 3.715-349.828 349.863-349.795-349.863c-17.447-17.447-45.733-17.447-63.179 0-16.103 16.103-17.344 41.445-3.715 58.971l3.715 4.209 349.777 349.828-349.777 349.795c-17.447 17.447-17.447 45.733 0 63.179 16.103 16.103 41.445 17.344 58.971 3.715l4.209-3.715 349.795-349.777 349.828 349.777c17.447 17.447 45.733 17.447 63.179 0z" />
<glyph unicode="&#xe480;" glyph-name="glyph-caret" d="M512 165.76l-457.068 457.068 107.412 107.412 349.656-348.892 349.656 348.892 107.412-107.412z" />
<glyph unicode="&#xe481;" glyph-name="glyph-caret-showing" d="M512 730.24l457.068-457.068-107.412-107.412-349.656 348.892-349.656-348.892-107.412 107.412z" />
<glyph unicode="&#xe485;" glyph-name="glyph-fullscreenImage" d="M800.64 480.070v256.57h-256.57l105.513-105.513-320.71-320.71-105.513 105.513v-256.57h256.57l-105.513 105.513 320.71 320.71z" />
<glyph unicode="&#xe490;" glyph-name="glyph-fullscreenImage-on" d="M826.667 718.299l-166.459-166.459 103.525-103.84h-251.733v251.733l103.525-103.525 166.773 166.459 44.368-44.368zM241.701 133.333l166.459 166.459 103.84-103.525v251.733h-251.733l103.525-103.525-166.459-166.773 44.368-44.368z" />
<glyph unicode="&#xe495;" glyph-name="glyph-endResult-manualMarking" d="M741.333 64c47.128 0 85.333 38.205 85.333 85.333v298.667h-85.333v-298.667h-469.333v597.333h341.333v85.333h-341.333c-47.128 0-85.333-38.205-85.333-85.333v-597.333c0-47.128 38.205-85.333 85.333-85.333h469.333zM582.582 362.667l310.543 310.815c25.168 24.763 25.168 65.322 0 90.512v0l-49.056 49.099c-11.941 12.098-28.225 18.908-45.216 18.908s-33.275-6.809-45.216-18.908v0l-310.969-311.242v-139.184h139.915zM554.855 427.989h-46.070v46.11l236.746 236.954 45.643-45.683-236.32-237.381zM655.842 245.352v64h-298.4v-64h298.4z" />
<glyph unicode="&#xe496;" glyph-name="glyph-audio" horiz-adv-x="970" d="M838.685 271.158v-151.578c0-27.79-22.737-50.527-50.527-50.527h-50.527v202.105h101.053zM232.369 271.158v-202.105h-50.527c-27.79 0-50.527 22.737-50.527 50.527v151.578h101.053zM485.001 928c-251.115 0-454.737-203.622-454.737-454.737v-353.685c0-83.873 67.705-151.578 151.578-151.578h151.578v404.21h-202.105v101.053c0 195.537 158.147 353.685 353.685 353.685s353.685-158.147 353.685-353.685v-101.053h-202.105v-404.21h151.578c83.873 0 151.578 67.705 151.578 151.578v353.685c0 251.115-203.622 454.737-454.737 454.737z" />
<glyph unicode="&#xe497;" glyph-name="glyph-video" horiz-adv-x="1138" d="M408.999 714.666v-426.667l373.334 213.334-373.334 213.334zM995.667 928h-853.334c-58.666 0-106.666-48-106.666-106.666v-640.001c0-58.666 48-106.666 106.666-106.666h213.334v-106.666h426.667v106.666h213.334c58.666 0 106.666 48 106.666 106.666v640.001c0 58.666-48 106.666-106.666 106.666zM995.667 181.334h-853.334v640.001h853.334v-640.001z" />
<glyph unicode="&#xe498;" glyph-name="glyph-previous" d="M324.267 447.954l301.699-301.699 73.585 73.585-228.092 228.136 228.092 228.092-73.585 73.585z" />
<glyph unicode="&#xe499;" glyph-name="glyph-next" d="M699.551 447.954l-301.699-301.699-73.585 73.585 228.092 228.136-228.092 228.092 73.585 73.585z" />
<glyph unicode="&#xe500;" glyph-name="tool-menu" d="M614.855 825.145c0-56.805-46.051-102.855-102.855-102.855s-102.855 46.051-102.855 102.855c0 56.805 46.051 102.855 102.855 102.855s102.855-46.051 102.855-102.855zM614.855 448c0-56.805-46.051-102.855-102.855-102.855s-102.855 46.051-102.855 102.855c0 56.805 46.051 102.855 102.855 102.855s102.855-46.051 102.855-102.855zM614.855 70.856c0-56.805-46.051-102.855-102.855-102.855s-102.855 46.051-102.855 102.855c0 56.805 46.051 102.855 102.855 102.855s102.855-46.051 102.855-102.855z" />
<glyph unicode="&#xe505;" glyph-name="tool-attachment" d="M686.544 709.819v-501.819c0-96.435-78.108-174.546-174.546-174.546s-174.546 78.108-174.546 174.546v545.454c0 60.219 48.873 109.092 109.092 109.092s109.092-48.873 109.092-109.092v-458.181c0-24-19.635-43.635-43.635-43.635s-43.635 19.635-43.635 43.635v414.546h-65.454v-414.546c0-60.219 48.873-109.092 109.092-109.092s109.092 48.873 109.092 109.092v458.181c0 96.435-78.108 174.546-174.546 174.546s-174.546-78.108-174.546-174.546v-545.454c0-132.654 107.346-240 240-240s240 107.346 240 240v501.819h-65.454z" />
<glyph unicode="&#xe510;" glyph-name="tool-toggleableMedia" d="M888 832h48c13.2 0 24-10.8 24-24v-720c0-13.2-10.8-24-24-24h-48c-13.2 0-24 10.8-24 24v720c0 13.2 10.8 24 24 24zM380.2 92.2l-288 288c-37.4 37.4-37.4 98.2 0 135.8l288 287.8c60.4 60.4 163.8 17.4 163.8-67.8v-103.2h160c53 0 96-43 96-96v-177.2c0-53-43-96-96-96h-160v-103.6c0-85.4-103.6-128-163.8-67.8zM448 160v199.4h256v177.2h-256v199.4l-288-288 288-288z" />
<glyph unicode="&#xe515;" glyph-name="tool-toggleableMedia-on" d="M352 736v-103.2h-192c-53 0-96-43-96-96v-177.2c0-53 43-96 96-96h192v-103.2c0-85.2 103.4-128.4 163.8-67.8l288 287.8c37.4 37.4 37.4 98.2 0 135.8l-288 288c-60.2 59.8-163.8 17.2-163.8-68.2zM736 448l-288-288v199.4h-288v177.2h288v199.4l288-288zM888 832h48c13.2 0 24-10.8 24-24v-720c0-13.2-10.8-24-24-24h-48c-13.2 0-24 10.8-24 24v720c0 13.2 10.8 24 24 24z" />
<glyph unicode="&#xe520;" glyph-name="tool-eraser" d="M703.071 800.873l191.069-191.069c35.175-35.175 35.175-92.204 0-127.379l-413.679-413.679-191.951 0.268-158.653 158.653c-35.175 35.175-35.175 92.204 0 127.379l445.827 445.827c35.175 35.175 92.204 35.175 127.379 0zM916.944 159v-90.071h-346.412l89.113 90.071h257.298zM421.555 519.286l-228.001-227.929 132.317-132.317 117.346-0.157 169.406 169.334-191.069 191.069z" />
<glyph unicode="&#xe525;" glyph-name="tool-eraser-on" d="M703.071 800.873l191.069-191.069c35.175-35.175 35.175-92.204 0-127.379l-413.679-413.679-191.951 0.268-158.653 158.653c-35.175 35.175-35.175 92.204 0 127.379l445.827 445.827c35.175 35.175 92.204 35.175 127.379 0zM916.944 159v-90.071h-346.412l89.113 90.071h257.298zM641.565 741.991l-105.682-105.682 191.037-191.037 105.716 105.645-191.069 191.069z" />
<glyph unicode="&#xe530;" glyph-name="tool-highlighter" d="M329.528 96.26l-44.345-52.847-185.273 65.403 88.69 105.694 140.928-118.25zM867.334 665.639c19.46-16.326 21.994-45.339 5.668-64.793l-354.756-422.783c-16.326-19.46-45.339-21.994-64.793-5.668l-59.125-70.464-211.392 177.381 59.125 70.464c-19.46 16.326-21.994 45.339-5.668 64.793l354.756 422.783c16.326 19.46 45.339 21.994 64.793 5.668l211.392-177.381zM772.977 624.738l-140.928 118.25-295.631-352.32 140.928-118.25 295.631 352.32z" />
<glyph unicode="&#xe535;" glyph-name="tool-highlighter-on" d="M329.528 96.26l-44.345-52.847-185.273 65.403 88.69 105.694 140.928-118.25zM867.334 665.639c19.46-16.326 21.994-45.339 5.668-64.793l-354.756-422.783c-16.326-19.46-45.339-21.994-64.793-5.668l-59.125-70.464-211.392 177.381 59.125 70.464c-19.46 16.326-21.994 45.339-5.668 64.793l354.756 422.783c16.326 19.46 45.339 21.994 64.793 5.668l211.392-177.381z" />
<glyph unicode="&#xe540;" glyph-name="tool-pen" d="M607.217 585.743l42.525-42.525-418.774-418.774h-42.525v42.525l418.774 418.774zM773.617 864c-11.555 0-23.574-4.623-32.355-13.405l-84.586-84.586 173.334-173.334 84.586 84.586c18.026 18.026 18.026 47.146 0 65.174l-108.16 108.16c-9.245 9.245-20.8 13.405-32.817 13.405zM607.217 716.551l-511.217-511.217v-173.334h173.334l511.217 511.217-173.334 173.334z" />
<glyph unicode="&#xe545;" glyph-name="tool-pen-on" d="M773.617 864c-11.555 0-23.574-4.623-32.355-13.405l-84.586-84.586 173.334-173.334 84.586 84.586c18.026 18.026 18.026 47.146 0 65.174l-108.16 108.16c-9.245 9.245-20.8 13.405-32.817 13.405zM607.217 716.551l-511.217-511.217v-173.334h173.334l511.217 511.217-173.334 173.334z" />
<glyph unicode="&#xe550;" glyph-name="tool-draggable" d="M800 160v-192h-192v192h192zM416 160v-192h-192v192h192zM416 544v-192h-192v192h192zM800 544v-192h-192v192h192zM800 928v-192h-192v192h192zM416 928v-192h-192v192h192z" />
<glyph unicode="&#xe555;" glyph-name="tool-pin" d="M712.374 569.427l-9.974 74.55h47.6c23.1 0 42 18.9 42 42v167.998c0 23.1-18.9 42-42 42h-475.996c-23.1 0-42-18.9-42-42v-167.998c0-23.1 18.9-42 42-42h47.6l-9.974-74.55c-83.824-57.4-135.624-147.174-135.624-247.448 0-23.1 18.9-42 42-42h251.998v-181.998c0-1.575 0.175-2.975 0.7-4.375l28-84c4.2-12.774 22.4-12.774 26.6 0l28 84c0.525 1.4 0.7 2.975 0.7 4.375v181.998h251.998c23.1 0 42 18.9 42 42 0 100.274-51.8 190.048-135.624 247.448zM264.376 363.979c14.524 67.374 62.3 122.5 125.124 153.648l28 210.348h-101.5v84h391.998v-84h-101.5l28-210.348c62.65-31.15 110.6-86.45 125.124-153.648z" />
<glyph unicode="&#xe560;" glyph-name="tool-pin-on" d="M180.131 840.209l165.879-165.862-0.043 0.469 75.861-75.861 0.043-0.469 338.176-338.219h0.469l68.267-68.267h-0.469l75.894-75.869-60.34-60.34-136.216 136.209h-110.319v-128c0-23.564-19.103-42.667-42.667-42.667s-42.667 19.103-42.667 42.667v128h-298.667c4.821 136.76 44.016 220.9 117.585 252.422 9.215 3.972 15.122 12.318 15.113 21.487l-0.021 87.777-226.219 226.183 60.34 60.34zM819.022 874.667c16.493-90.524 1.959-149.050-43.602-175.578-7.588-4.375-12.118-11.915-12.108-19.965v-213.223c-0.009-9.169 5.87-17.523 15.113-21.487 62.506-26.79 100.198-91.588 113.075-194.392l-203.040 202.966c-0.346 2.209-0.604 4.438-0.771 6.683l-0.228 6.229v213.153c-0.036 31.331 17.653 60.575 46.759 77.354 8.47 4.931 14.751 18.614 15.759 43.273l0.121 6.72h-390.903c0.045-10.689 0.966-19.554 2.568-26.756l-74.723 74.617c0.905 6.611 1.994 13.413 3.269 20.406h528.711zM421.871 477.824l0.011-11.854c0.034-33.451-20.109-64.010-52.204-80.302l-6.156-2.885c-30.219-12.948-53.425-48.261-65.534-109.634l-2.318-12.883h343.716l-217.515 217.557z" />
<glyph unicode="&#xe565;" glyph-name="tool-timer" d="M649.144 960h-274.285v-91.428h274.285v91.428zM466.286 365.715h91.428v274.285h-91.428v-274.285zM833.372 667.885l64.914 64.914c-19.658 23.315-41.144 45.256-64.456 64.456l-64.914-64.914c-70.857 56.685-160.001 90.515-256.914 90.515-227.201 0-411.429-184.228-411.429-411.429s183.771-411.429 411.429-411.429c227.656 0 411.429 184.228 411.429 411.429 0 96.915-33.828 186.057-90.057 256.456zM512 91.428c-176.915 0-319.999 143.085-319.999 319.999s143.085 319.999 319.999 319.999c176.915 0 319.999-143.085 319.999-319.999s-143.085-319.999-319.999-319.999z" />
<glyph unicode="&#xe570;" glyph-name="tool-print" d="M845.511 638.579h-47.643v238.221h-571.733v-238.221h-47.643c-79.091 0-142.933-63.845-142.933-142.933v-285.866h190.579v-190.579h571.733v190.579h190.579v285.866c0 79.091-63.845 142.933-142.933 142.933zM321.421 781.511h381.156v-142.933h-381.156v142.933zM702.578 209.779v-95.288h-381.156v190.579h381.156v-95.288zM797.866 305.067v95.288h-571.733v-95.288h-95.288v190.579c0 26.203 21.44 47.643 47.643 47.643h667.020c26.203 0 47.643-21.44 47.643-47.643v-190.579h-95.288zM845.511 471.821c0-26.312-21.331-47.643-47.643-47.643s-47.643 21.331-47.643 47.643c0 26.312 21.331 47.643 47.643 47.643s47.643-21.331 47.643-47.643z" />
<glyph unicode="&#xe575;" glyph-name="tool-resize" horiz-adv-x="973" d="M972.8 917.267v-138.251l-841.111-843.015h-131.689l972.8 981.267zM972.8 516.648v-130.041l-453.478-450.607h-129.683l583.161 580.648z" />
<glyph unicode="&#xe580;" glyph-name="tool-language" d="M549.12 317.013l-108.373 107.093 1.28 1.28c74.24 82.773 127.147 177.92 158.293 278.613h125.013v85.333h-298.667v85.333h-85.333v-85.333h-298.667v-84.907h476.587c-28.587-82.347-73.813-160.427-135.253-228.693-39.68 43.947-72.533 92.16-98.56 142.933h-85.333c31.147-69.547 73.813-135.253 127.147-194.56l-217.173-214.187 60.587-60.587 213.333 213.333 132.693-132.693 32.427 87.040zM789.333 533.333h-85.333l-192-512h85.333l47.787 128h202.667l48.213-128h85.333l-192 512zM677.547 234.667l69.12 184.747 69.12-184.747h-138.24z" />
<glyph unicode="&#xe585;" glyph-name="tool-annotations" d="M708.361 640.806l124.444-124.444-367.028-367.028h-124.444v124.444l367.028 367.028zM708.361 546.892l-300.658-300.658v-30.53h30.53l300.658 300.658-30.53 30.53zM302.869 362.667l-84.697-85.333h-90.172v85.333h174.869zM473.972 533.333l-85.49-85.333h-260.482v85.333h345.972zM827.828 746.667c8.628 0 16.924-2.987 23.561-9.624v0l77.653-77.653c12.942-12.942 12.942-33.849 0-46.791v0l-60.729-60.729-124.444 124.444 60.729 60.729c6.305 6.305 14.933 9.624 23.23 9.624zM644.745 704l-86.191-85.333h-430.554v85.333h516.745z" />
<glyph unicode="&#xe600;" glyph-name="checkmark" d="M760.904 199.097c-137.464-137.464-360.339-137.464-497.802 0l-248.904 248.904 248.904 248.904c137.464 137.464 360.339 137.464 497.802 0s137.464-360.339 0-497.802z" />
<glyph unicode="&#xe605;" glyph-name="checkmark-correct" d="M805.76 746.667l-421.76-417.88-165.76 163.601-90.24-89.41 256-253.645 512 507.289z" />
<glyph unicode="&#xe610;" glyph-name="checkmark-wrong" d="M863.027 700.371l-258.526-256.535 256.478-258.12-88.462-88.743-256.776 258.767-258.427-256.452-86.647 89.742 257.039 255.41-256.271 258.246 89.742 86.647 255.168-256.797 257.939 256.297z" />
<glyph unicode="&#xe615;" glyph-name="checkmark-revealed" d="M576 213.333l-0.328-128h-127.642l-0.030 128h128zM576 810.667l-0.328-469.333h-127.642l-0.030 469.333h128z" />
<glyph unicode="&#xe700;" glyph-name="at-crosswords-horizontal" d="M170.667 405.333h519.253l-238.507-238.507 60.587-60.16 341.333 341.333-341.333 341.333-60.16-60.16 238.080-238.507h-519.253z" />
<glyph unicode="&#xe705;" glyph-name="at-crosswords-vertical" d="M469.333 789.333v-519.253l-238.507 238.507-60.16-60.587 341.333-341.333 341.333 341.333-60.16 60.16-238.507-238.080v519.253z" />
<glyph unicode="&#xe710;" glyph-name="at-boxdrop-drop" d="M818.525 396.913h-34.738l-102.173-102.173h97.578l90.425-102.173h-715.218l90.937 102.173h104.727l-102.173 102.173h-42.403l-153.26-153.26v-204.347c0-56.193 45.468-102.173 101.662-102.173h715.73c56.193 0 102.173 45.468 102.173 102.173v204.347l-153.26 153.26zM869.612 39.302h-715.218v51.087h715.218v-51.087zM478.28 293.717c19.925-19.925 52.11-19.925 72.035 0l273.828 273.828c19.925 19.925 19.925 52.11 0 72.035l-252.88 252.88c-19.413 20.437-51.598 20.437-71.523 0.512l-274.34-274.34c-19.925-19.925-19.925-52.11 0-72.035l252.88-252.88zM535.502 784.663l180.85-180.85-201.793-201.793-180.85 180.85 201.793 201.793z" />
<glyph unicode="&#xe715;" glyph-name="at-boxdrop-pause" d="M228.572 117.333h188.953v661.333h-188.953v-661.333zM606.475 778.667v-661.333h188.953v661.333h-188.953z" />
<glyph unicode="&#xe720;" glyph-name="at-boxdrop-play" d="M323.047 778.667v-661.333l519.619 330.667z" />
<glyph unicode="&#xe725;" glyph-name="at-sequence-goback" d="M170.667 234.667v-85.333h170.667v85.333h-170.667zM426.667 234.667v-85.333h170.667v85.333h-170.667zM682.667 234.667v-85.333h170.667v85.333h-170.667zM490.667 746.667c148.362 0 270.157-117.17 277.028-263.884 0 0 34.275 0 102.826 0l-145.187-162.783-153.526 162.783c73.613-0.488 110.401-0.488 110.367 0-7.112 99.399-90.339 178.551-191.507 178.551-105.813 0-192-86.187-192-192v-149.333h-85.333v149.333c0 152.747 124.587 277.333 277.333 277.333z" />
<glyph unicode="&#xe730;" glyph-name="at-sequence-goback-inverse" d="M853.333 234.667v-85.333h-170.667v85.333h170.667zM597.333 234.667v-85.333h-170.667v85.333h170.667zM341.333 234.667v-85.333h-170.667v85.333h170.667zM533.333 746.667c-148.362 0-270.157-117.17-277.028-263.884 0 0-34.275 0-102.826 0l145.187-162.783 153.526 162.783c-73.613-0.488-110.401-0.488-110.367 0 7.112 99.399 90.339 178.551 191.507 178.551 105.813 0 192-86.187 192-192v-149.333h85.333v149.333c0 152.747-124.587 277.333-277.333 277.333z" />
<glyph unicode="&#xe735;" glyph-name="at-sequence-previous" d="M364.308 277.333v128h531.692v85.333h-531.692v128l-236.308-170.667z" />
<glyph unicode="&#xe740;" glyph-name="at-sequence-next" d="M659.692 618.667v-128h-531.692v-85.333h531.692v-128l236.308 170.667z" />
<glyph unicode="&#xe745;" glyph-name="at-slideshow-first" d="M24 64h48c13.2 0 24 10.8 24 24v316.6c2.2-2.4 4.4-4.8 7-6.8l368-319c41.2-34.4 105-5.6 105 49.2v248l343-297.2c41.2-34.4 105-5.6 105 49.2v640c0 54.8-63.8 83.6-105 49.2l-343-299.4v250c0 54.8-63.8 83.6-105 49.2l-368-321c-2.6-2.2-4.8-4.4-7-6.8v318.8c0 13.2-10.8 24-24 24h-48c-13.2 0-24-10.8-24-24v-720c0-13.2 10.8-24 24-24zM928 697.6v-499.6l-287.2 249 287.2 250.6zM480 697.6v-499.6l-287.2 249 287.2 250.6z" />
<glyph unicode="&#xe750;" glyph-name="at-slideshow-last" d="M1000 832h-48c-13.2 0-24-10.8-24-24v-316.6c-2.2 2.4-4.4 4.8-7 6.8l-368 319c-41.2 34.2-105 5.6-105-49.2v-248l-343 297.2c-41.2 34.2-105 5.6-105-49.2v-640c0-54.8 63.8-83.6 105-49.2l343 299.2v-250c0-54.8 63.8-83.6 105-49.2l368 321c2.6 2.2 4.8 4.4 7 6.8v-318.6c0-13.2 10.8-24 24-24h48c13.2 0 24 10.8 24 24v720c0 13.2-10.8 24-24 24zM96 198.4v499.4l287.2-248.8-287.2-250.6zM544 198.4v499.4l287.2-248.8-287.2-250.6z" />
<glyph unicode="&#xe755;" glyph-name="at-dropdown-caret" d="M500.225 231.879l-381.055 410.368c-6.039 6.505-5.665 16.673 0.839 22.716 2.972 2.761 6.88 4.296 10.935 4.296h762.11c8.876 0 16.073-7.195 16.073-16.073 0-4.056-1.533-7.963-4.296-10.935l-381.055-410.368c-5.035-5.422-12.934-6.587-19.194-3.328l-4.363 3.328z" />
<glyph unicode="&#xe760;" glyph-name="at-pelmanism-cardFront" d="M584.759 208c0 30.257 1.413 52.484 4.238 66.682s10.361 31.537 22.605 52.019c6.593 10.241 14.363 20.132 23.311 29.675s21.192 21.296 36.733 35.261c18.366 16.758 34.849 32.817 49.448 48.178 34.849 36.308 62.046 74.246 81.589 113.812s29.316 81.926 29.316 127.079c0 32.584-5.651 64.354-16.954 95.309s-27.314 58.303-48.035 82.043c-29.198 34.912-66.402 60.63-111.611 77.155s-95.129 24.787-149.757 24.787c-34.378 0-68.286-5.004-101.722-15.012s-63.576-24.555-90.419-43.64c-33.907-23.275-61.457-54.812-82.649-94.611s-34.143-83.206-38.852-130.221v0h179.426c-0.942 19.551 2.001 37.472 8.83 53.764s17.307 30.024 31.435 41.196c11.773 10.241 26.372 17.805 43.797 22.693s36.262 7.331 56.512 7.331c24.96 0 47.682-3.84 68.168-11.521s36.851-19.667 49.095-35.959c15.070-18.154 22.605-44.222 22.605-78.202 0-25.602-3.414-48.527-10.243-68.776s-19.191-40.381-37.086-60.397c-17.425-17.689-41.913-39.799-73.466-66.332-21.663-17.689-38.734-32.933-51.214-45.734s-23.9-29.442-34.26-49.924c-27.314-47.48-40.971-106.365-40.971-176.654v0h180.132zM592-64v192h-176v-192h176z" />
<glyph unicode="&#xe765;" glyph-name="a5-hasRecording" d="M261.902 473.103c0-138.541 114.497-250.98 255.498-250.98s255.448 112.439 255.448 250.98v0h102.199c0-177.142-133.371-322.761-306.547-347.357v0-154.604h-102.199v154.604c-173.227 24.596-306.547 170.215-306.547 347.357v0zM517.36 924.858c84.831 0 153.299-67.263 153.299-150.588v0-125.49l-16.013-16.213-86.136 87.592v54.111c0 27.658-22.99 50.196-51.15 50.196-28.060 0-51.049-22.538-51.049-50.196v0-301.176c0-27.608 22.99-50.196 51.049-50.196 19.627 0 36.191 11.344 44.775 27.357v0l72.383-73.336c-28.11-32.979-69.773-54.413-117.158-54.413-84.781 0-153.249 67.313-153.249 150.588v0 301.176c0 83.325 68.467 150.588 153.249 150.588zM868.462 771.143l59.784-60.185-273.669-276.38-149.333 151.241 59.834 59.784 89.5-91.005 213.885 216.546z" />
<glyph unicode="&#xe770;" glyph-name="at-textCorrection-select-right" d="M730.667 874.666c42.832 0 76.642-34.398 79.764-76.688l0.236-6.399v-125.568h-85.333v123.323h-512v-682.667h512v93.522h85.333v-95.767c0-43.013-31.77-79.46-73.646-82.833l-6.354-0.255h-522.667c-42.832 0-76.642 34.398-79.764 76.688l-0.236 6.399v687.158c0 43.013 31.77 79.46 73.646 82.833l6.354 0.255h522.667zM830.812 575.787l65.188-67.652-265.587-273.682-144.013 148.402 65.246 67.235 78.731-80.799 200.435 206.496zM512 575.999v-64h-213.333v64h213.333zM640 703.999v-64h-341.333v64h341.333z" />
<glyph unicode="&#xe775;" glyph-name="at-textCorrection-select-wrong" d="M730.667 874.666c42.832 0 76.642-34.398 79.764-76.688l0.236-6.399v-125.568h-85.333v123.323h-512v-682.667h512v93.522h85.333v-95.767c0-43.013-31.77-79.46-73.646-82.833l-6.354-0.255h-522.667c-42.832 0-76.642 34.398-79.764 76.688l-0.236 6.399v687.158c0 43.013 31.77 79.46 73.646 82.833l6.354 0.255h522.667zM618.355 575.999l106.75-107.411 108.016 107.324 62.879-62.687-108.41-107.564 107.421-108.109-62.68-62.886-107.698 108.539-108.437-107.675-61.492 63.695 107.516 106.871-107.554 108.404 63.688 61.499zM512 575.999v-64h-213.333v64h213.333zM640 703.999v-64h-341.333v64h341.333z" />
<glyph unicode="&#xe780;" glyph-name="at-voiceSpeak" d="M512 320.28c84.807 0 153.265 68.458 153.265 153.265v306.525c0 84.807-68.458 153.265-153.265 153.265s-153.265-68.458-153.265-153.265v-306.525c0-84.807 68.458-153.265 153.265-153.265zM460.913 780.066c0 28.097 22.99 51.087 51.087 51.087s51.087-22.99 51.087-51.087v-306.525c0-28.097-22.99-51.087-51.087-51.087s-51.087 22.99-51.087 51.087v306.525zM767.438 473.541c0-141-114.438-255.438-255.438-255.438s-255.438 114.438-255.438 255.438h-102.173c0-180.338 133.34-328.492 306.525-353.528v-157.348h102.173v157.348c173.185 25.032 306.525 173.185 306.525 353.528h-102.173z" />
<glyph unicode="&#xe785;" glyph-name="at-voice-fluency" d="M141.651 751.336c54.692 48.993 126.705 72.122 197.737 72.122 71.165 0 141.248-23.407 193.984-70.325 51.575-45.882 84.676-112.641 86.763-196.471 1.335-2.080 3.063-4.672 5.175-7.75 6.302-9.176 14.878-21.011 23.667-32.906 8.742-11.836 17.506-23.471 24.098-32.166 3.294-4.343 6.037-7.945 7.953-10.453l2.978-3.891 21.022-27.371-80.717-60.646v-28.582c0-59.093-48.154-106.628-107.093-106.628h-17.489v-131.076h-356.511v212.233c-49.32 45.619-92.010 106.761-92.010 204.608 0 95.903 35.123 169.748 90.442 219.304zM609.024 455.381c-4.698 6.255-9.822 13.111-14.95 20.058-8.922 12.075-18.057 24.661-25.037 34.829-3.452 5.022-6.669 9.882-9.135 13.978-1.199 1.993-2.569 4.378-3.746 6.818-0.58 1.207-1.387 2.979-2.112 5.080-0.495 1.438-2.074 6.069-2.074 12.069 0 69.166-25.869 120.015-63.974 153.917-38.66 34.396-91.936 53.062-148.608 53.062-56.805 0-111.815-18.539-152.187-54.704-39.744-35.603-67.725-90.405-67.725-168.456 0-78.882 34.96-124.45 80.183-163.494l11.827-10.21v-174.869h219.977v131.076h85.756c21.649 0 38.827 17.378 38.827 38.362v62.682l52.979 39.804zM904.542 419.319c0.085 48.277-19.972 98.125-63.211 141.090l48.119 48.425c54.878-54.531 83.477-121.398 83.358-189.63-0.119-68.211-28.928-134.822-83.358-188.907l-48.119 48.422c42.876 42.603 63.125 92.301 63.211 140.599zM740.365 357.205c33.766 33.549 35.051 88.277 0 123.102l48.119 48.427c62.66-62.268 59.874-160.461 0-219.955l-48.119 48.427z" />
<glyph unicode="&#xe786;" glyph-name="at-voice-grammar" d="M191.991 341.338h74.069l29.355 93.184h169.412l29.713-93.184h74.069l-135.595 430.078h-105.429l-135.595-430.078zM379.604 701.771l63.793-200.049h-126.812l63.019 200.049zM759.701 332.378c-31.458 0-57.843 7.467-79.147 22.4-4.518 3.166-8.798 6.575-12.843 10.223v-23.663h-63.616v430.078h72.576v-123.149c0.986 0.743 1.98 1.472 2.987 2.189 20.907 14.933 46.69 22.4 77.355 22.4 30.464 0 56.845-7.467 79.147-22.4 22.498-14.734 39.923-34.944 52.267-60.629 12.343-25.486 18.517-54.557 18.517-87.209 0-32.256-6.071-61.227-18.219-86.912s-29.269-45.995-51.371-60.928c-22.101-14.933-47.987-22.4-77.653-22.4zM675.776 557.869c-5.376-15.73-8.064-34.149-8.064-55.252 0-20.907 2.688-39.326 8.064-55.253 5.577-15.932 14.238-28.373 25.984-37.333 11.947-8.764 27.575-13.141 46.891-13.141 18.718 0 34.146 4.676 46.293 14.037 12.147 9.357 21.107 21.999 26.88 37.931 5.973 16.128 8.96 34.048 8.96 53.76 0 19.511-2.987 37.232-8.96 53.161-5.973 16.128-15.232 28.871-27.776 38.229-12.544 9.557-28.471 14.336-47.787 14.336-18.317 0-33.25-4.48-44.8-13.44-11.55-8.761-20.109-21.106-25.685-37.035zM234.444 234.453c-11.664 11.665-30.574 11.665-42.238 0l-64-64c-11.664-11.661-11.664-30.571 0-42.236s30.574-11.665 42.238 0l42.881 42.88 42.881-42.88c11.664-11.665 30.574-11.665 42.238 0l42.881 42.88 42.881-42.88c11.664-11.665 30.574-11.665 42.238 0l42.881 42.88 42.88-42.88c11.665-11.665 30.575-11.665 42.24 0l42.88 42.88 42.88-42.88c11.665-11.665 30.575-11.665 42.24 0l42.88 42.88 42.88-42.88c11.665-11.665 30.575-11.665 42.24 0l42.88 42.88 42.88-42.88c11.665-11.665 30.575-11.665 42.24 0 11.661 11.665 11.661 30.575 0 42.236l-64 64c-11.665 11.665-30.575 11.665-42.24 0l-42.88-42.88-42.88 42.88c-11.665 11.665-30.575 11.665-42.24 0l-42.88-42.88-42.88 42.88c-11.665 11.665-30.575 11.665-42.24 0l-42.88-42.88-42.88 42.88c-11.665 11.665-30.575 11.665-42.24 0l-42.88-42.88-42.881 42.88c-11.664 11.665-30.574 11.665-42.238 0l-42.881-42.88-42.881 42.88z" />
<glyph unicode="&#xe787;" glyph-name="at-voice-vocabulary" d="M328.533 469.333h110.933l17.067-64h55.467l-89.6 298.667h-81.067l-89.6-298.667h55.467l21.333 64zM379.733 652.8l38.4-132.267h-76.8l38.4 132.267zM759.467 456.533h-132.267l136.533 238.933v8.533h-221.867v-51.2h123.733l-136.533-238.933v-8.533h230.4zM337.067 341.333h341.333v-64h-341.333v64zM861.867 55.467c0 0-4.267 0 0 0-21.333 0-34.133 12.8-34.133 29.867v4.267c0 12.8 8.533 21.333 21.333 25.6v0c21.333 4.267 34.133 21.333 34.133 42.667v695.467c0 29.867-25.6 55.467-55.467 55.467h-597.333c-55.467 0-98.133-42.667-98.133-98.133v-725.333c0-55.467 42.667-98.133 98.133-98.133h627.2c0 0 4.267 0 4.267 0 17.067 4.267 29.867 17.067 29.867 34.133s-12.8 34.133-29.867 34.133zM230.4 55.467c-17.067 0-29.867 12.8-29.867 29.867s12.8 29.867 29.867 29.867h533.333c0-8.533-4.267-17.067-4.267-25.6v-4.267c0-8.533 0-21.333 4.267-29.867h-533.333zM814.933 183.467h-584.533c-8.533 0-21.333 0-29.867-4.267v631.467c0 17.067 12.8 29.867 29.867 29.867h584.533v-657.067z" />
<glyph unicode="&#xe788;" glyph-name="at-voice-pronunciation" d="M192 704h85.333l-85.333-512h-85.333l85.333 512zM874.667 704h85.333l-85.333-512h-85.333l85.333 512zM528.725 538.141c-20.399 17.448-47.962 26.172-82.684 26.172-22.917 0-43.576-3.95-61.979-11.849s-32.639-18.793-42.708-32.681c-8.631-11.904-13.563-24.704-14.796-38.396l-0.308-6.916h75.261c0 10.59 3.602 18.923 10.807 24.998s17.143 9.114 29.815 9.114c14.413 0 24.96-3.904 31.642-11.716 5.572-6.511 8.819-14.831 9.749-24.96l0.277-6.293v-16.145h-34.637c-41.839-0.171-73.826-8.247-95.962-24.218-22.135-15.974-33.203-38.891-33.203-68.749 0-24.307 9.071-44.446 27.214-60.416 18.142-15.974 41.015-23.962 68.62-23.962 29.167 0 52.864 10.159 71.096 30.468 1.169-7.552 2.88-14.174 5.124-19.87l2.428-5.389h76.041v4.429c-6.383 11.998-10.035 28.983-10.965 50.953l-0.235 9.724v122.133c0 31.599-10.197 56.119-30.596 73.569zM455.676 405.457h28.126v-48.435c-4.514-8.333-11.456-14.976-20.834-19.921-9.374-4.949-19.618-7.424-30.729-7.424-11.458 0-20.486 3.038-27.083 9.114-5.278 4.864-8.445 10.778-9.5 17.749l-0.396 5.427 0.26 4.429c2.269 24.307 19.887 37.269 52.855 38.891l7.3 0.171zM719.855 551.513l-53.333-106.666-53.333 106.666h106.667zM666.522 391.514l-53.333-106.667h106.667l-53.333 106.667z" />
<glyph unicode="&#xe800;" glyph-name="wysiwyg-bold" d="M738.128 460.641c58.382 40.32 99.307 106.542 99.307 167.929 0 136.035-105.333 240.764-240.764 240.764h-376.195v-842.667h423.734c125.796 0 223.307 102.329 223.307 228.124 0 91.485-51.769 169.742-129.405 205.849zM401.061 718.846h180.569c49.956 0 90.293-40.32 90.293-90.293s-40.32-90.293-90.293-90.293h-180.569v180.569zM611.728 177.139h-210.667v180.569h210.667c49.956 0 90.293-40.32 90.293-90.293s-40.32-90.293-90.293-90.293z" />
<glyph unicode="&#xe802;" glyph-name="wysiwyg-bold-on" d="M558.223 651.377h-138.666v-147.911h138.666c38.365 0 69.334 35.591 69.334 73.955s-30.969 73.955-69.334 73.955zM419.555 240h161.777c38.365 0 69.334 30.969 69.334 69.334s-30.969 69.334-69.334 69.334h-161.777v-138.666zM188.445 864c-51.056 0-92.445-41.389-92.445-92.445v-647.111c0-51.058 41.389-92.445 92.445-92.445h647.111c51.058 0 92.445 41.388 92.445 92.445v647.111c0 51.056-41.388 92.445-92.445 92.445h-647.111zM754.666 586.666c0-47.146-31.431-97.991-76.266-128.96 59.626-27.734 99.377-87.823 99.377-158.080 0-96.605-74.88-156.694-171.485-156.694h-306.915v610.134h270.4c104 0 184.889-61.937 184.889-166.4z" />
<glyph unicode="&#xe805;" glyph-name="wysiwyg-italic" d="M391.622 869.333v-180.569h133.014l-205.849-481.529h-167.929v-180.569h481.529v180.569h-133.014l205.849 481.529h167.929v180.569z" />
<glyph unicode="&#xe808;" glyph-name="wysiwyg-italic-on" d="M188.445 864c-51.056 0-92.445-41.389-92.445-92.445v-647.111c0-51.058 41.389-92.445 92.445-92.445h647.111c51.058 0 92.445 41.388 92.445 92.445v647.111c0 51.056-41.388 92.445-92.445 92.445h-647.111zM419.555 632.889v115.555h346.666v-115.555h-105.849l-158.080-369.777h102.151v-115.555h-346.666v115.555h105.849l158.080 369.777h-102.151z" />
<glyph unicode="&#xe810;" glyph-name="wysiwyg-underline" d="M512 207.236c166.029 0 300.96 127.217 300.96 283.746v378.334h-125.398v-378.334c0-91.272-78.741-165.529-175.561-165.529s-175.561 74.256-175.561 165.529v378.334h-125.398v-378.334c0-156.53 134.93-283.746 300.96-283.746zM150.862 147.040v-120.374h722.293v120.374h-722.293z" />
<glyph unicode="&#xe811;" glyph-name="wysiwyg-underline-on" d="M188.445 864c-51.056 0-92.445-41.389-92.445-92.445v-647.111c0-51.058 41.389-92.445 92.445-92.445h647.111c51.058 0 92.445 41.388 92.445 92.445v647.111c0 51.056-41.388 92.445-92.445 92.445h-647.111zM743.111 504.128c0-120.209-103.616-217.905-231.111-217.905-127.497 0-231.111 97.696-231.111 217.905v267.429h96.297v-267.429c0-70.092 60.476-127.111 134.815-127.111s134.816 57.020 134.816 127.111v267.429h96.295v-267.429zM234.666 124.445v92.445h554.666v-92.445h-554.666z" />
<glyph unicode="&#xe815;" glyph-name="wysiwyg-ul" d="M161.612 503.627c-30.779 0-55.623-24.844-55.623-55.623s24.844-55.623 55.623-55.623c30.779 0 55.623 24.844 55.623 55.623s-24.844 55.623-55.623 55.623zM161.612 837.337c-30.779 0-55.623-24.844-55.623-55.623s24.844-55.623 55.623-55.623c30.779 0 55.623 24.844 55.623 55.623s-24.844 55.623-55.623 55.623zM161.612 169.908c-30.779 0-55.623-25.211-55.623-55.623s25.211-55.623 55.623-55.623c30.412 0 55.623 25.211 55.623 55.623s-24.844 55.623-55.623 55.623zM272.843 58.671h723.043v111.232h-723.043v-111.232zM272.843 392.381h723.043v111.232h-723.043v-111.232zM272.843 837.337v-111.232h723.043v111.232h-723.043z" />
<glyph unicode="&#xe817;" glyph-name="wysiwyg-ul-primary-on" d="M825.044 848h-626.086c-59.13 0-104.348-45.218-104.348-104.348v-591.304c0-59.13 45.218-104.348 104.348-104.348h626.086c59.13 0 104.348 45.218 104.348 104.348v591.304c0 59.13-45.218 104.348-104.348 104.348zM414.608 694.956c10.434 6.956 20.87 13.914 34.782 13.914h326.956c13.914 0 24.348-3.478 34.782-13.914s13.914-20.87 13.914-34.782c0-10.434-3.478-20.87-13.914-31.304s-20.87-13.914-34.782-13.914h-326.956c-13.914 0-24.348 3.478-34.782 13.914s-13.914 20.87-13.914 31.304c0 17.392 6.956 27.826 13.914 34.782zM414.608 482.782c10.434 6.956 20.87 13.914 34.782 13.914h326.956c13.914 0 24.348-3.478 34.782-13.914s13.914-20.87 13.914-34.782c0-10.434-3.478-20.87-13.914-31.304s-20.87-13.914-34.782-13.914h-326.956c-13.914 0-24.348 3.478-34.782 13.914s-13.914 20.87-13.914 31.304c0 13.914 6.956 24.348 13.914 34.782zM310.26 201.044c-10.434-10.434-20.87-13.914-34.782-13.914h-27.826c-13.914 0-24.348 3.478-34.782 13.914s-13.914 20.87-13.914 31.304c0 13.914 3.478 24.348 13.914 34.782 10.434 6.956 20.87 13.914 34.782 13.914h31.304c13.914 0 24.348-3.478 34.782-13.914s13.914-20.87 13.914-34.782c-3.478-10.434-6.956-20.87-17.392-31.304zM310.26 416.696c-10.434-10.434-20.87-13.914-34.782-13.914h-27.826c-13.914 0-24.348 3.478-34.782 13.914-10.434 6.956-13.914 20.87-13.914 31.304 0 13.914 3.478 24.348 13.914 34.782 10.434 6.956 20.87 13.914 34.782 13.914h31.304c13.914 0 24.348-3.478 34.782-13.914s13.914-20.87 13.914-34.782c-3.478-13.914-6.956-24.348-17.392-31.304zM310.26 632.348c-10.434-10.434-20.87-13.914-34.782-13.914h-27.826c-13.914 0-24.348 3.478-34.782 13.914-10.434 6.956-13.914 17.392-13.914 31.304s3.478 24.348 13.914 34.782c10.434 6.956 20.87 13.914 34.782 13.914h31.304c13.914 0 24.348-3.478 34.782-13.914s13.914-20.87 13.914-34.782c-3.478-13.914-6.956-24.348-17.392-31.304zM811.13 201.044c-10.434-10.434-20.87-13.914-34.782-13.914h-326.956c-13.914 0-24.348 3.478-34.782 13.914s-13.914 20.87-13.914 31.304c0 13.914 3.478 24.348 13.914 34.782 10.434 6.956 20.87 13.914 34.782 13.914h326.956c13.914 0 24.348-3.478 34.782-13.914s13.914-20.87 13.914-34.782c0-10.434-3.478-20.87-13.914-31.304z" />
<glyph unicode="&#xe820;" glyph-name="wysiwyg-ol" d="M-2.6 171.333h110.667v-27.667h-55.333v-55.333h55.333v-27.667h-110.667v-55.333h166v221.333h-166v-55.333zM52.733 669.333h55.333v221.333h-110.667v-55.333h55.333v-166zM-2.6 503.333h99.6l-99.6-116.2v-49.8h166v55.333h-99.6l99.6 116.2v49.8h-166v-55.333zM274.067 835.333v-110.667h719.333v110.667h-719.333zM274.067 60.667h719.333v110.667h-719.333v-110.667zM274.067 392.667h719.333v110.667h-719.333v-110.667z" />
<glyph unicode="&#xe822;" glyph-name="wysiwyg-ol-on" d="M142.223 864c-51.056 0-92.445-41.389-92.445-92.445v-647.111c0-51.058 41.389-92.445 92.445-92.445h739.555c51.058 0 92.445 41.388 92.445 92.445v647.111c0 51.056-41.388 92.445-92.445 92.445h-739.555zM280.889 240v23.111h-92.445v46.223h138.666v-184.889h-138.666v46.223h92.445v23.111h-46.223v46.223h46.223zM280.889 586.666h-46.223v138.666h-46.223v46.223h92.445v-184.889zM271.645 494.223h-83.2v46.223h138.666v-41.6l-83.2-97.066h83.2v-46.223h-138.666v41.6l83.2 97.066zM419.555 632.889v92.445h416v-92.445h-416zM835.555 170.666h-416v92.445h416v-92.445zM835.555 401.777h-416v92.445h416v-92.445z" />
<glyph unicode="&#xe825;" glyph-name="wysiwyg-special-character" d="M832 874.667h-640v-106.667l346.667-320-346.667-320v-106.667h640v160h-373.333l266.667 266.667-266.667 266.667h373.333z" />
<glyph unicode="&#xe830;" glyph-name="wysiwyg-subscript" d="M197.626 772.048c23.156 17.813 56.369 13.48 74.18-9.676l134.398-174.718 134.399 174.718c17.813 23.156 51.022 27.489 74.18 9.676 23.155-17.813 27.485-51.024 9.674-74.18l-151.515-196.973 151.515-196.971c17.813-23.155 13.482-56.369-9.674-74.18-23.158-17.813-56.369-13.482-74.18 9.677l-134.399 174.716-134.398-174.716c-17.813-23.158-51.024-27.49-74.18-9.677s-27.489 51.025-9.676 74.18l151.519 196.971-151.519 196.973c-17.813 23.156-13.48 56.369 9.676 74.18zM684.8 377.467c0 21.424 17.368 38.792 38.792 38.792h82.574c16.374 0 39.744-4.19 59.82-20.426 21.642-17.502 34.020-44.597 34.020-79.185 0-34.99-15.555-61.577-37.977-78.285-20.888-15.567-45.834-21.324-66.186-21.324-8.777 0-16.577-4.053-23.258-12.178-7.346-8.934-10.202-19.199-10.202-24.164v-11.271l102.27-0.024c21.424 0 38.792-17.368 38.792-38.792s-17.368-38.792-38.792-38.792h-141.062c-21.424 0-38.792 17.368-38.792 38.792v50.088c0 24.999 10.477 52.298 27.86 73.44 18.050 21.949 46.374 40.484 83.184 40.484 7.173 0 14.91 2.289 19.826 5.948 2.176 1.622 3.644 3.371 4.644 5.336 0.976 1.91 2.11 5.19 2.11 10.741 0 7.973-1.358 12.544-2.383 14.888-0.97 2.216-2.004 3.293-2.843 3.974-2.18 1.764-6.333 3.162-11.032 3.162h-82.574c-21.424 0-38.792 17.368-38.792 38.792z" />
<glyph unicode="&#xe835;" glyph-name="wysiwyg-subscript-on" d="M835.555 864h-647.111c-50.845 0-92.445-41.6-92.445-92.445v-647.111c0-50.845 41.6-92.445 92.445-92.445h647.111c50.845 0 92.445 41.6 92.445 92.445v647.111c0 50.845-41.6 92.445-92.445 92.445zM493.511 309.334l-73.955 115.555-73.955-115.555h-110.934l129.423 184.889-124.8 184.889h110.934l69.334-110.934 73.955 110.934h110.934l-129.423-184.889 134.045-184.889h-115.555zM835.555 263.111h-138.666v-46.223h138.666v-46.223h-184.889v138.666h138.666v46.223h-138.666v46.223h184.889v-138.666z" />
<glyph unicode="&#xe840;" glyph-name="wysiwyg-superscript" d="M197.626 736.789c23.156 17.813 56.369 13.481 74.18-9.676l134.398-174.718 134.399 174.718c17.813 23.156 51.022 27.489 74.18 9.676 23.155-17.813 27.485-51.024 9.674-74.18l-151.518-196.972 151.518-196.971c17.813-23.158 13.482-56.369-9.674-74.18-23.158-17.813-56.369-13.482-74.18 9.674l-134.399 174.719-134.398-174.719c-17.813-23.155-51.024-27.485-74.18-9.674s-27.489 51.022-9.676 74.18l151.519 196.971-151.519 196.972c-17.813 23.156-13.48 56.369 9.676 74.18zM684.8 835.921c0 21.424 17.368 38.792 38.792 38.792h82.574c16.374 0 39.744-4.189 59.82-20.426 21.642-17.504 34.017-44.597 34.017-79.186 0-34.989-15.552-61.577-37.974-78.284-20.888-15.567-45.834-21.326-66.186-21.326-8.777 0-16.577-4.052-23.258-12.175-7.346-8.936-10.202-19.198-10.202-24.164v-11.274l102.27-0.021c21.424 0 38.792-17.368 38.792-38.792s-17.368-38.792-38.792-38.792h-141.062c-21.424 0-38.792 17.368-38.792 38.792v50.088c0 24.997 10.477 52.298 27.86 73.438 18.050 21.95 46.374 40.483 83.184 40.483 7.173 0 14.91 2.289 19.826 5.953 2.176 1.621 3.644 3.371 4.644 5.334 0.976 1.913 2.104 5.191 2.104 10.741 0 7.975-1.355 12.544-2.38 14.889-0.97 2.213-2.004 3.293-2.843 3.974-2.18 1.765-6.333 3.166-11.032 3.166h-82.574c-21.424 0-38.792 17.367-38.792 38.792z" />
<glyph unicode="&#xe845;" glyph-name="wysiwyg-superscript-on" d="M835.555 864h-647.111c-50.845 0-92.445-41.6-92.445-92.445v-647.111c0-50.845 41.6-92.445 92.445-92.445h647.111c50.845 0 92.445 41.6 92.445 92.445v647.111c0 50.845-41.6 92.445-92.445 92.445zM493.511 216.889l-73.955 115.555-73.955-115.555h-110.934l129.423 184.889-124.8 184.889h110.934l73.955-110.934 69.334 110.934h110.934l-129.423-184.889 134.045-184.889h-115.555zM835.555 586.666h-138.666v-46.223h138.666v-46.223h-184.889v138.666h138.666v46.223h-138.666v46.223h184.889v-138.666z" />
<glyph unicode="&#xe900;" glyph-name="at-proofing-eraser" d="M717.608 847.151l205.202-205.202c37.777-37.777 37.777-99.025 0-136.802l-444.273-444.273-206.148 0.285-170.385 170.385c-37.777 37.777-37.777 99.025 0 136.802l478.805 478.805c37.777 37.777 99.025 37.777 136.802 0zM947.3 157.8v-96.733h-372.030l95.701 96.733h276.329zM415.267 544.733l-244.865-244.788 142.102-142.102 126.029-0.172 181.937 181.86-205.202 205.202z" />
<glyph unicode="&#xe905;" glyph-name="at-proofing-eraser-on" d="M717.608 847.151l205.202-205.202c37.777-37.777 37.777-99.025 0-136.802l-444.273-444.273-206.148 0.285-170.385 170.385c-37.777 37.777-37.777 99.025 0 136.802l478.805 478.805c37.777 37.777 99.025 37.777 136.802 0zM947.3 157.8v-96.733h-372.030l95.701 96.733h276.329zM651.551 783.914l-113.496-113.496 205.162-205.162 113.536 113.459-205.202 205.202z" />
<glyph unicode="&#xe910;" glyph-name="at-proofing-capitalize" d="M804 156v-97.333h-584v97.333h584zM564.090 837.333l209.494-553.583h-100.375l-45.244 128.891h-214.439l-44.865-128.891h-99.994l209.115 553.583h86.308zM520.744 719.849l-80.224-229.644h160.449l-80.224 229.644z" />
<glyph unicode="&#xe915;" glyph-name="at-proofing-capitalize-on" d="M796.8 922.667c52.429 0 94.933-42.504 94.933-94.933v-759.467c0-52.429-42.504-94.933-94.933-94.933h-569.6c-52.429 0-94.933 42.504-94.933 94.933v759.467c0 52.429 42.504 94.933 94.933 94.933h569.6zM796.8 163.2h-569.6v-94.933h569.6v94.933zM562.806 827.733h-84.181l-203.958-539.933h97.531l43.758 125.714h209.15l44.131-125.714h97.9l-204.331 539.933zM520.531 713.144l78.244-223.983h-156.492l78.244 223.983z" />
<glyph unicode="&#xe920;" glyph-name="at-proofing-lowercase" d="M749.949 162.462v-95.179h-475.897v95.179h475.897zM496.013 685.949c47.094 0 84.645-11.835 112.654-35.507s42.384-56.948 43.129-99.826v0-181.437l0.238-13.227c1.113-30.065 6.113-54.533 15.005-73.401v0-6.321h-92.205l-1.941 4.246c-3.168 7.746-5.99 18.848-8.469 33.307-28.752-29.991-63.949-44.987-105.591-44.987-40.402 0-73.368 11.525-98.897 34.576s-38.295 51.556-38.295 85.513c0 42.88 15.926 75.784 47.775 98.712s77.395 34.391 136.634 34.391v0h55.397v26.397l-0.356 8.668c-1.427 16.828-7.133 30.608-17.117 41.337-11.65 12.516-29.371 18.775-53.167 18.775-20.572 0-37.428-5.143-50.563-15.429s-19.705-23.36-19.705-39.225v0h-90.346l0.343 8.205c1.6 18.99 8.797 36.89 21.593 53.697 14.623 19.21 34.514 34.266 59.674 45.174s53.228 16.359 84.212 16.359zM561.449 465.103h-48.705l-10.846-0.215c-28.104-1.152-49.646-6.903-64.628-17.259-16.855-11.65-25.283-28.132-25.283-49.449 0-17.35 5.763-31.168 17.288-41.455s26.955-15.429 46.288-15.429c17.846 0 34.64 4.337 50.379 13.013s27.574 20.324 35.507 34.949v0 75.846z" />
<glyph unicode="&#xe925;" glyph-name="at-proofing-lowercase-on" d="M749.333 922.667c52.429 0 94.933-42.504 94.933-94.933v-759.467c0-52.429-42.504-94.933-94.933-94.933h-474.667c-52.429 0-94.933 42.504-94.933 94.933v759.467c0 52.429 42.504 94.933 94.933 94.933h474.667zM749.333 163.2h-474.667v-94.933h474.667v94.933zM496.056 685.333c-30.904 0-58.899-5.438-83.993-16.317s-44.934-25.897-59.518-45.057c-12.762-16.764-19.941-34.618-21.537-53.558v0l-0.343-8.185h90.114l0.403 6.611c1.604 12.88 8.021 23.72 19.253 32.512 13.104 10.26 29.913 15.39 50.433 15.39 23.733 0 41.41-6.241 53.031-18.726 9.96-10.702 15.652-24.445 17.075-41.231v0l0.356-8.645v-26.331h-55.256l-13.391-0.203c-52.601-1.625-93.565-12.991-122.888-34.098-31.769-22.869-47.651-55.687-47.651-98.457 0-33.87 12.731-62.3 38.194-85.292s58.345-34.489 98.642-34.489c41.533 0 76.638 14.956 105.317 44.869 2.471-14.421 5.287-25.494 8.448-33.221v0l1.936-4.235h91.967v6.306l-3.563 8.406c-6.651 17.499-10.452 39.1-11.402 64.802v0l-0.238 13.194v180.967l-0.469 10.494c-2.757 37.741-16.94 67.434-42.547 89.077-27.937 23.61-65.39 35.415-112.364 35.415zM561.319 465.058v-75.65l-4.279-7.044c-7.675-11.331-18.054-20.601-31.133-27.814-15.698-8.654-32.449-12.981-50.249-12.981-19.283 0-34.674 5.13-46.168 15.39s-17.243 24.041-17.243 41.349c0 21.262 8.405 37.702 25.217 49.319 14.944 10.328 36.43 16.068 64.461 17.213v0l10.819 0.214h48.581z" />
<glyph unicode="&#xe930;" glyph-name="at-proofing-fullstop" d="M368.001 159.999v-96.001h-336.002v96.001h336.002zM992.001 159.999v-96.001h-336.002v96.001h336.002zM560.001 159.999v-96.001h-96.001v96.001h96.001zM560.001 927.987v-480.465h143.999l-192-191.519-192 191.519h143.999v480.465h96.001z" />
<glyph unicode="&#xe935;" glyph-name="at-proofing-fullstop-on" d="M464.533 447.525h-142.4l189.867-189.392 189.867 189.392h-142.4v475.128l189.867 0.013c52.429 0 94.933-42.504 94.933-94.933v-759.467c0-52.429-42.504-94.933-94.933-94.933h-474.667c-52.429 0-94.933 42.504-94.933 94.933v759.467c0 52.429 42.504 94.933 94.933 94.933l189.867-0.013v-475.128zM559.467 163.2h-94.933v-94.933h94.933v94.933z" />
<glyph unicode="&#xe940;" glyph-name="at-proofing-insert" d="M272 159.999v-96.001h-240v96.001h240zM992.001 159.999v-96.001h-240v96.001h240zM495.876 496.001c47.499 0 85.375-11.937 113.624-35.811s42.749-57.437 43.5-100.687v0-183.001l0.241-13.341c1.123-30.324 6.165-55.002 15.136-74.033v0-6.375h-92.999l-1.96 4.283c-3.194 7.811-6.042 19.010-8.541 33.593-29-30.249-64.5-45.376-106.499-45.376-40.749 0-74.001 11.626-99.749 34.876s-38.626 52-38.626 86.249c0 43.25 16.063 76.437 48.188 99.561s78.062 34.688 137.812 34.688v0h55.874v26.625l-0.359 8.744c-1.438 16.975-7.193 30.871-17.264 41.693-11.749 12.626-29.624 18.936-53.625 18.936-20.748 0-37.75-5.187-51-15.561s-19.875-23.563-19.875-39.562v0h-91.125l0.346 8.278c1.614 19.153 8.874 37.208 21.78 54.161 14.749 19.376 34.811 34.562 60.187 45.561s53.686 16.5 84.938 16.5zM561.874 273.251h-49.124l-10.939-0.217c-28.346-1.161-50.075-6.963-65.184-17.408-17.001-11.749-25.499-28.375-25.499-49.874 0-17.5 5.812-31.436 17.438-41.814s27.188-15.561 46.687-15.561c18.001 0 34.938 4.375 50.813 13.125s27.812 20.499 35.811 35.251v0 76.499zM560.001 928.001v-192.48h143.999l-192-191.519-192 191.519h143.999v192.48h96.001z" />
<glyph unicode="&#xe945;" glyph-name="at-proofing-insert-on" d="M464.533 732.325h-142.4l189.867-189.392 189.867 189.392h-142.4v190.341h189.867c52.429 0 94.933-42.504 94.933-94.933v-759.467c0-52.429-42.504-94.933-94.933-94.933h-474.667c-52.429 0-94.933 42.504-94.933 94.933v759.467c0 52.429 42.504 94.933 94.933 94.933h189.867v-190.341zM496.056 495.467c-30.904 0-58.899-5.438-83.993-16.317s-44.934-25.897-59.518-45.057c-12.762-16.764-19.941-34.618-21.537-53.558v0l-0.343-8.185h90.114l0.403 6.611c1.604 12.88 8.021 23.72 19.253 32.512 13.104 10.26 29.913 15.39 50.433 15.39 23.733 0 41.41-6.241 53.031-18.726 9.96-10.702 15.652-24.445 17.075-41.231v0l0.356-8.645v-26.331h-55.256l-13.391-0.203c-52.601-1.625-93.565-12.991-122.888-34.098-31.769-22.869-47.651-55.687-47.651-98.457 0-33.87 12.731-62.3 38.194-85.292s58.345-34.489 98.642-34.489c41.533 0 76.638 14.956 105.317 44.869 2.471-14.421 5.287-25.494 8.448-33.221v0l1.936-4.235h91.967v6.306l-3.563 8.406c-6.651 17.499-10.452 39.1-11.402 64.802v0l-0.238 13.194v180.967l-0.469 10.494c-2.757 37.741-16.94 67.434-42.547 89.077-27.937 23.61-65.39 35.415-112.364 35.415zM561.319 275.192v-75.65l-4.279-7.044c-7.675-11.331-18.054-20.601-31.133-27.814-15.698-8.654-32.449-12.981-50.249-12.981-19.283 0-34.674 5.13-46.168 15.39s-17.243 24.041-17.243 41.349c0 21.262 8.405 37.702 25.217 49.319 14.944 10.328 36.43 16.068 64.461 17.213v0l10.819 0.214h48.581z" />
<glyph unicode="&#xe950;" glyph-name="at-proofing-remove" d="M895.999 880h-528.001c-33.121 0-59.041-16.799-76.321-42.239l-259.681-389.761 259.681-389.281c17.28-25.439 43.2-42.719 76.321-42.719h528.001c52.801 0 96.001 43.2 96.001 96.001v672c0 52.801-43.2 96.001-96.001 96.001zM895.999 112.001h-524.64l-224.159 335.999 223.679 335.999h525.12v-672zM469.62 241.941l138.378 138.378 138.378-138.378 67.681 67.681-138.378 138.378 138.378 138.378-67.681 67.681-138.378-138.378-138.378 138.378-67.681-67.681 138.378-138.378-138.378-138.378 67.681-67.681z" />
<glyph unicode="&#xe955;" glyph-name="at-proofing-remove-on" d="M895.999 880c52.801 0 96.001-43.2 96.001-96.001v-672c0-52.801-43.2-96.001-96.001-96.001h-528.001c-33.121 0-59.041 17.28-76.321 42.719l-259.681 389.281 259.681 389.761c17.28 25.439 43.2 42.239 76.321 42.239h528.001zM469.62 241.941l138.378 138.378 138.378-138.378 67.681 67.681-138.378 138.378 138.378 138.378-67.681 67.681-138.378-138.378-138.378 138.378-67.681-67.681 138.378-138.378-138.378-138.378 67.681-67.681z" />
<glyph unicode="&#xe960;" glyph-name="at-proofing-newParagraph" d="M833.899 794.666v-99.046h-49.525v-594.287h-99.046v594.287h-99.046v-594.287h-99.046v148.571c-163.013 0-297.142 120.719-297.142 272.38 0 148.136 127.964 266.751 285.819 272.185l11.326 0.195h346.667zM487.232 695.619c-110.5 0-198.096-78.837-198.096-173.333 0-91.45 82.034-168.229 187.476-173.090l10.619-0.243v346.667z" />
<glyph unicode="&#xe965;" glyph-name="at-proofing-newParagraph-on" d="M833.899 794.666v-99.046h-49.525v-594.287h-99.046v594.287h-99.046v-594.287h-99.046v148.571c-163.013 0-297.142 120.719-297.142 272.38 0 148.136 127.964 266.751 285.819 272.185l11.326 0.195h346.667z" />
<glyph unicode="&#xe970;" glyph-name="at-proofing-spelling" d="M515.061 889.897l12.361-0.262c64.478-2.252 125.372-18.528 180.14-45.644v0l-69.929-65.211c-35.356 13.173-73.547 21.14-113.295 22.528-194.761 6.802-358.845-146.21-365.646-340.971s146.21-358.845 340.971-365.646c194.761-6.802 358.845 146.21 365.646 340.971 1.388 39.748-3.894 78.4-14.569 114.589v0l70.387 65.637c22.789-56.51 34.777-118.39 32.51-183.311-8.514-243.783-213.275-434.726-457.058-426.213s-434.726 213.275-426.213 457.058c8.514 243.783 213.275 434.726 457.058 426.213zM530.298 624.762c43.73 0 78.599-10.99 104.607-32.97s39.357-52.879 40.048-92.696v0-168.477l0.222-12.283c1.033-27.918 5.677-50.637 13.933-68.157v0-5.869h-85.619l-1.803 3.942c-2.941 7.192-5.562 17.501-7.864 30.927-26.699-27.849-59.381-41.773-98.048-41.773-37.516 0-68.127 10.702-91.834 32.107s-35.559 47.873-35.559 79.405c0 39.817 14.788 70.371 44.363 91.661s71.867 31.934 126.875 31.934v0h51.441v24.512l-0.331 8.050c-1.325 15.627-6.623 28.422-15.895 38.385-10.817 11.623-27.273 17.434-49.369 17.434-19.103 0-34.754-4.776-46.952-14.327s-18.298-21.692-18.298-36.423v0h-83.893l0.318 7.62c1.485 17.634 8.169 34.255 20.050 49.862 13.579 17.837 32.049 31.819 55.411 41.946s49.426 15.191 78.196 15.191zM591.059 419.691h-45.227l-10.071-0.2c-26.096-1.069-46.1-6.41-60.011-16.026-15.651-10.817-23.477-26.123-23.477-45.916 0-16.112 5.352-28.942 16.054-38.494s25.030-14.327 42.982-14.327c16.571 0 32.165 4.028 46.78 12.084s25.605 18.873 32.97 32.452v0 70.429zM857.26 851.15l78.217-78.217-168.498-168.5h-78.217v78.217l168.498 168.5zM974.894 925.035l34.471-34.471c12.081-12.081 12.081-31.666 0-43.746l-42.644-42.642-78.217 78.217 42.644 42.642c12.081 12.081 31.666 12.081 43.746 0z" />
<glyph unicode="&#xe975;" glyph-name="at-proofing-spelling-on" d="M512 890.667c244.478 0 442.667-198.188 442.667-442.667s-198.188-442.667-442.667-442.667c-244.478 0-442.667 198.188-442.667 442.667s198.188 442.667 442.667 442.667zM353.263 625.067c-28.82 0-54.929-5.072-78.331-15.217s-41.904-24.151-55.506-42.019c-11.902-15.634-18.597-32.284-20.085-49.948v0l-0.319-7.633h84.037l0.375 6.165c1.496 12.012 7.481 22.119 17.955 30.32 12.22 9.568 27.897 14.352 47.033 14.352 22.133 0 38.618-5.821 49.455-17.464 9.288-9.98 14.596-22.797 15.923-38.451v0l0.332-8.063v-24.555h-51.53l-12.489-0.189c-49.055-1.515-87.257-12.115-114.604-31.8-29.627-21.327-44.439-51.933-44.439-91.819 0-31.586 11.873-58.1 35.62-79.542s54.411-32.162 91.992-32.162c38.733 0 71.472 13.948 98.217 41.845 2.305-13.449 4.931-23.776 7.878-30.981v0l1.806-3.949h85.767v5.88l-3.323 7.84c-6.203 16.319-9.748 36.464-10.634 60.434v0l-0.222 12.304v168.767l-0.437 9.786c-2.571 35.197-15.798 62.888-39.679 83.071-26.053 22.018-60.982 33.027-104.787 33.027zM725.056 497.712l-168.789-168.791v-78.352h78.352l168.789 168.791-78.352 78.352zM414.13 419.642v-70.55l-3.991-6.57c-7.157-10.567-16.836-19.213-29.035-25.937-14.64-8.070-30.261-12.105-46.861-12.105-17.983 0-32.336 4.784-43.056 14.352s-16.081 22.421-16.081 38.561c0 19.828 7.839 35.16 23.517 45.995 13.936 9.632 33.974 14.984 60.115 16.053v0l10.089 0.2h45.305zM842.892 571.724c-12.101 12.101-31.721 12.101-43.822 0v0l-42.718-42.716 78.352-78.352 42.718 42.716c12.101 12.101 12.101 31.721 0 43.822v0z" />
<glyph unicode="&#xe980;" glyph-name="at-proofing-grammar" d="M515.061 889.897l12.361-0.262c64.478-2.252 125.372-18.528 180.14-45.644v0l-69.929-65.211c-35.356 13.173-73.547 21.14-113.295 22.528-194.761 6.802-358.845-146.21-365.646-340.971s146.21-358.845 340.971-365.646c194.761-6.802 358.845 146.21 365.646 340.971 1.388 39.748-3.894 78.4-14.569 114.589v0l70.387 65.637c22.789-56.51 34.777-118.39 32.51-183.311-8.514-243.783-213.275-434.726-457.058-426.213s-434.726 213.275-426.213 457.058c8.514 243.783 213.275 434.726 457.058 426.213zM480.436 580.571v-185.6l-63.129-123.734h-94.694l63.129 123.734h-63.129v185.6h157.823zM701.388 580.571v-185.6l-63.129-123.734h-94.694l63.129 123.734h-63.129v185.6h157.823zM857.26 851.15l78.217-78.217-168.498-168.5h-78.217v78.217l168.498 168.5zM974.894 925.035l34.471-34.471c12.081-12.081 12.081-31.666 0-43.746l-42.644-42.642-78.217 78.217 42.644 42.642c12.081 12.081 31.666 12.081 43.746 0z" />
<glyph unicode="&#xe985;" glyph-name="at-proofing-grammar-on" d="M512 890.667c244.478 0 442.667-198.188 442.667-442.667s-198.188-442.667-442.667-442.667c-244.478 0-442.667 198.188-442.667 442.667s198.188 442.667 442.667 442.667zM725.236 497.535l-147.806-148.419v-78.352h78.352l147.806 148.419-78.352 78.352zM536.245 580.955h-132.8v-159.36h63.498l-54.75-106.24h69.302l54.75 106.24v159.36zM359.179 580.955h-132.8v-159.36h63.498l-54.75-106.24h69.302l54.75 106.24v159.36zM842.892 571.724c-12.125 12.078-31.744 12.038-43.822-0.087v0l-42.626-42.717 78.352-78.352 42.713 42.804c12.060 12.108 12.040 31.695-0.044 43.778v0l-34.53 34.53c-0.015 0.015-0.029 0.029-0.044 0.044z" />
<glyph unicode="&#xe990;" glyph-name="at-proofing-indent" d="M853.333 277.333v-85.333h-554.667v85.333h554.667zM170.667 618.667l170.667-170.667-170.667-170.667v341.333zM853.333 490.667v-85.333h-384v85.333h384zM853.333 704v-85.333h-554.667v85.333h554.667z" />
<glyph unicode="&#xe995;" glyph-name="at-proofing-indent-on" d="M891.733 922.667c52.429 0 94.933-42.504 94.933-94.933v-759.467c0-52.429-42.504-94.933-94.933-94.933h-759.467c-52.429 0-94.933 42.504-94.933 94.933v759.467c0 52.429 42.504 94.933 94.933 94.933h759.467zM844.267 258.133h-569.6v-94.933h569.6v94.933zM179.733 637.867v-379.733l189.867 189.867-189.867 189.867zM844.267 495.467h-379.733v-94.933h379.733v94.933zM844.267 732.8h-569.6v-94.933h569.6v94.933z" />
<glyph unicode="&#xe1000;" glyph-name="annotationsToolbar-toggle" d="M793.463 447.999l-452.548-452.548-110.378 110.378 342.138 342.204-342.138 342.138 110.378 110.378z" />
<glyph unicode="&#xe1005;" glyph-name="annotationsToolbar-toggle-on" d="M230.537 447.999l452.548-452.548 110.378 110.378-342.138 342.204 342.138 342.138-110.378 110.378z" />
<glyph unicode="&#xe1010;" glyph-name="annotationsToolbar-pointer" d="M1024 618.667l-1024 341.333 341.333-1024 243.771 438.896 438.896 243.771zM171.3 788.7l584.757-194.97-250.589-139.198-139.236-250.627-194.932 584.795z" />
<glyph unicode="&#xe1015;" glyph-name="annotationsToolbar-pointer-on" d="M1024 618.667l-1024 341.333 341.333-1024 243.771 438.896z" />
<glyph unicode="&#xe1020;" glyph-name="annotationsToolbar-pen" d="M629.191 617.529l52.338-52.338-515.413-515.413h-52.338v52.338l515.413 515.413zM833.991 960c-14.222 0-29.013-5.689-39.822-16.498l-104.107-104.107 213.333-213.333 104.107 104.107c22.187 22.187 22.187 58.027 0 80.213l-133.12 133.12c-11.378 11.378-25.6 16.498-40.391 16.498zM629.191 778.524l-629.191-629.191v-213.333h213.333l629.191 629.191-213.333 213.333z" />
<glyph unicode="&#xe1021;" glyph-name="Thickness-thin" d="M303.953 512c89.060 0 176.922-19.814 257.246-57.916l17.097-8.444 19.985-10.27c65.707-33.758 138.513-51.371 212.386-51.371 11.78 0 21.333-9.553 21.333-21.333s-9.553-21.333-21.333-21.333c-74.893 0-148.783 16.58-216.397 48.461l-15.488 7.629-19.985 10.27c-73.587 37.807-154.595 58.735-237.136 61.359l-17.708 0.282h-90.619c-11.782 0-21.333 9.553-21.333 21.333 0 10.475 7.547 19.183 17.498 20.988l3.835 0.346h90.619z" />
<glyph unicode="&#xe1022;" glyph-name="annotation-pen-med" d="M303.957 554.667c95.829 0 190.336-21.419 276.693-62.592l17.152-8.491 19.968-10.24c56.051-29.411 122.457-46.671 192.894-46.677h0.002c35.346 0 64-28.654 64-64s-28.654-64-64-64v0c-81.621 0-162.133 18.176-235.733 53.077l-15.659 7.723-19.968 10.24c-63.276 33.216-137.83 53.845-216.924 56.636l-0.89 0.025-17.536 0.299h-90.624c-35.333 0.018-63.968 28.665-63.968 64 0 33.172 25.236 60.449 57.557 63.68l0.267 0.022 6.144 0.299h90.624z" />
<glyph unicode="&#xe1023;" glyph-name="annotation-pen-gross" d="M329.216 597.334c94.848 0 188.032-24.235 270.72-70.272l15.36-8.917 20.352-12.16c34.231-20.861 75.196-34.082 119.059-36.327l0.621-0.025 12.672-0.299c58.91 0 106.667-47.756 106.667-106.667s-47.756-106.667-106.667-106.667v0c-83.396 0.011-161.725 21.693-229.666 59.72l2.381-1.224-14.763 8.533-20.309 12.16c-46.362 28.235-101.931 45.937-161.426 48.488l-0.707 0.024-14.251 0.299h-73.259c-0.077 0-0.168 0-0.26 0-58.91 0-106.667 47.756-106.667 106.667 0 56.54 43.99 102.805 99.612 106.437l0.317 0.017 6.997 0.213h73.216z" />
<glyph unicode="&#xe1025;" glyph-name="annotationsToolbar-pen-on" d="M833.991 960c-14.222 0-29.013-5.689-39.822-16.498l-104.107-104.107 213.333-213.333 104.107 104.107c22.187 22.187 22.187 58.027 0 80.213l-133.12 133.12c-11.378 11.378-25.6 16.498-40.391 16.498zM629.191 778.524l-629.191-629.191v-213.333h213.333l629.191 629.191-213.333 213.333z" />
<glyph unicode="&#xe1030;" glyph-name="annotationsToolbar-brush" d="M306.902 2.78l-56.034-66.78-234.115 82.647 112.070 133.56 178.079-149.426zM986.485 722.262c24.587-20.632 27.795-57.289 7.163-81.876l-448.279-534.239c-20.632-24.587-57.289-27.795-81.876-7.163l-74.713-89.040-267.119 224.14 74.713 89.040c-24.587 20.632-27.795 57.289-7.163 81.876l448.279 534.239c20.632 24.587 57.289 27.795 81.876 7.163l267.119-224.14zM867.251 670.579l-178.079 149.426-373.566-445.199 178.079-149.426 373.566 445.199z" />
<glyph unicode="&#xe1031;" glyph-name="annotation-highlighter-small" d="M784.519 591.768l16.408-108.87-49.036-12.974 10.512-69.575-522.923-138.782-16.408 108.87 48.993 13.017-10.471 69.534 522.923 138.782z" />
<glyph unicode="&#xe1032;" glyph-name="annotation-highlighter-large" d="M672.018 631.041l24.085-127.003 64.078 13.498 38.422-202.369-489.793-103.189-24.14 127.042-64.023-13.535-38.422 202.369 489.793 103.189z" />
<glyph unicode="&#xe1035;" glyph-name="annotationsToolbar-brush-on" d="M306.903 2.78l-56.035-66.78-234.115 82.647 112.069 133.559 178.080-149.427zM986.486 722.262c24.587-20.632 27.795-57.289 7.163-81.877l-448.28-534.239c-20.632-24.587-57.289-27.795-81.877-7.163l-74.713-89.040-267.12 224.14 74.713 89.040c-24.587 20.632-27.795 57.289-7.163 81.877l448.28 534.239c20.632 24.587 57.289 27.795 81.877 7.163l267.12-224.14z" />
<glyph unicode="&#xe1040;" glyph-name="annotationsToolbar-eraser" d="M729.652 844.933l217.223-217.223c39.99-39.99 39.99-104.826 0-144.815l-470.301-470.301-218.225 0.302-180.367 180.367c-39.99 39.99-39.99 104.826 0 144.815l506.854 506.854c39.99 39.99 104.826 39.99 144.815 0zM972.8 115.2v-102.4h-393.825l101.308 102.4h292.517zM409.6 524.8l-259.21-259.129 150.427-150.427 133.411-0.181 192.595 192.513-217.223 217.223z" />
<glyph unicode="&#xe1045;" glyph-name="annotationsToolbar-eraser-on" d="M729.652 844.933l217.223-217.223c39.99-39.99 39.99-104.826 0-144.815l-470.301-470.301-218.225 0.302-180.367 180.367c-39.99 39.99-39.99 104.826 0 144.815l506.854 506.854c39.99 39.99 104.826 39.99 144.815 0zM972.8 115.2v-102.4h-393.825l101.308 102.4h292.517zM659.726 777.991l-120.146-120.146 217.183-217.183 120.187 120.106-217.223 217.223z" />
<glyph unicode="&#xe1050;" glyph-name="annotationsToolbar-stickyNotes" d="M910.222 846.222v-512h-284.444v-284.444h-512v796.444h796.444zM910.222 960h-796.444c-62.578 0-113.778-51.2-113.778-113.778v-796.444c0-62.578 51.2-113.778 113.778-113.778h568.889l341.333 341.333v568.889c0 62.578-51.2 113.778-113.778 113.778zM512 334.222h-284.444v113.778h284.444v-113.778zM796.444 561.778h-568.889v113.778h568.889v-113.778z" />
<glyph unicode="&#xe1055;" glyph-name="annotationsToolbar-stickyNotes-on" d="M113.778 960v0c-62.578 0-113.778-51.2-113.778-113.778v-796.444c0-62.578 51.2-113.778 113.778-113.778h568.889l341.333 341.333v568.889c0 62.578-51.2 113.778-113.778 113.778zM910.222 334.222l-284.444-284.444v284.444h284.444zM512 334.222h-284.444v113.778h284.444v-113.778zM796.444 561.778h-568.889v113.778h568.889v-113.778z" />
<glyph unicode="&#xe1060;" glyph-name="annotationsToolbar-undo" d="M524.922 618.666c-129.219 0-246.248-48.274-336.457-126.781l-175.543 175.543v-438.857h438.857l-176.518 176.518c67.779 56.564 154.088 91.672 249.661 91.672 172.617 0 319.39-112.64 370.59-268.19l115.566 38.034c-67.779 204.312-259.413 352.061-486.156 352.061z" />
</font>
</defs>
</svg>
