<svg viewBox="0 0 26 17" xmlns="http://www.w3.org/2000/svg">
  <g fill="none" fill-rule="evenodd">
    <path d="M14.037 1.7h10.234M14.37 6.233h9.9m-9.922 4.534h9.922" stroke="#CE8000" stroke-width="2" stroke-linecap="round"/>
    <path d="M9.393 10.196 8.83 8.78H4.034l-.564 1.446c-.22.565-.407.946-.563 1.143-.155.198-.41.296-.764.296-.3 0-.566-.105-.797-.315-.23-.21-.346-.45-.346-.716 0-.154.027-.313.08-.477.054-.164.143-.392.266-.685l3.018-7.325.31-.758c.12-.295.249-.54.386-.735.136-.195.316-.353.539-.473C5.82.06 6.096 0 6.424 0c.332 0 .61.06.832.18.223.121.403.277.54.466.136.19.252.394.346.612.093.218.213.51.358.873l3.082 7.28c.241.554.362.957.362 1.208 0 .261-.114.501-.342.72a1.15 1.15 0 0 1-.825.326 1.11 1.11 0 0 1-.483-.096.982.982 0 0 1-.338-.261 2.38 2.38 0 0 1-.294-.508c-.104-.229-.194-.43-.27-.604ZM4.66 7.064h3.525L6.408 2.408 4.66 7.064Z" fill="#CE8000"/>
    <path d="M1.593 15.3H24.11" stroke="#CE8000" stroke-width="2" stroke-linecap="round"/>
  </g>
</svg>
