<svg viewBox="0 0 29 19" xmlns="http://www.w3.org/2000/svg">
  <g fill="none" fill-rule="evenodd">
    <path d="M15.667 2H27.18M16.042 7.333h11.137m-11.163 5.334H27.18" stroke="#000" stroke-width="2" stroke-linecap="round"/>
    <path d="m10.442 11.995-.634-1.666H4.413l-.634 1.702c-.247.664-.458 1.112-.633 1.344-.176.233-.462.349-.86.349a1.26 1.26 0 0 1-.897-.371C1.13 13.105 1 12.825 1 12.51c0-.181.03-.368.09-.561.06-.194.16-.462.3-.806l3.394-8.618.349-.892c.135-.347.28-.635.434-.865.154-.229.356-.414.607-.556.25-.142.56-.213.928-.213.374 0 .686.07.937.213.25.142.452.324.606.547.154.224.284.464.39.72.105.257.24.6.402 1.028l3.467 8.564c.272.651.408 1.125.408 1.42 0 .309-.129.59-.385.847a1.265 1.265 0 0 1-.928.385 1.21 1.21 0 0 1-.543-.113 1.112 1.112 0 0 1-.38-.308 2.832 2.832 0 0 1-.33-.597 35.01 35.01 0 0 1-.304-.711ZM5.119 8.31h3.965l-2-5.476L5.118 8.31Z" fill="#000"/>
    <path d="M1.667 18H27" stroke="#000" stroke-width="2" stroke-linecap="round"/>
  </g>
</svg>
