<svg width="28" height="25" viewBox="0 0 28 25" xmlns="http://www.w3.org/2000/svg">
  <g fill="none" fill-rule="evenodd">
    <path fill="#FFF" d="m18.095.28 9.726 10.071-10.79 10.42-9.726-10.07z"/>
    <path d="M27.188 8.362 19.769.995A2.555 2.555 0 0 0 17.925.24c-.682 0-1.324.239-1.845.756l-9.303 9.278-5.895 5.854a2.585 2.585 0 0 0-.762 1.831c0 .677.24 1.315.762 1.832l3.409 3.385c.842.796 1.925 1.274 3.087 1.274h5.534A4.322 4.322 0 0 0 16 23.175l1.885-1.872 9.343-9.278a2.585 2.585 0 0 0 .762-1.831c-.04-.677-.28-1.314-.802-1.832Zm-1.203 2.429-8.742 8.68-8.621-8.56 8.741-8.681a.888.888 0 0 1 .602-.239c.24 0 .441.08.601.239l7.419 7.366c.16.16.24.399.24.598 0 .239-.08.438-.24.597Z" fill="#000" fill-rule="nonzero"/>
  </g>
</svg>
