<svg viewBox="0 0 24 24" xmlns="http://www.w3.org/2000/svg">
  <g transform="translate(1 1)" fill="none" fill-rule="evenodd">
    <circle stroke="#CE8000" stroke-width="2" cx="11" cy="11" r="11"/>
    <path d="M10.71 12.74v1.676c0 .223-.021.401-.065.535a.846.846 0 0 1-.242.36 2.217 2.217 0 0 1-.45.31 7.086 7.086 0 0 1-1.528.628 6.159 6.159 0 0 1-1.6.196 5.21 5.21 0 0 1-1.838-.31 3.866 3.866 0 0 1-1.414-.901 3.978 3.978 0 0 1-.898-1.432c-.21-.561-.314-1.188-.314-1.88 0-.68.102-1.303.305-1.868a3.834 3.834 0 0 1 .895-1.438 3.929 3.929 0 0 1 1.438-.905c.565-.208 1.206-.313 1.922-.313.589 0 1.11.079 1.564.236.453.157.821.355 1.104.594.282.238.495.491.638.758.143.266.215.503.215.71a.758.758 0 0 1-.248.57.83.83 0 0 1-.593.235.833.833 0 0 1-.662-.34 7.057 7.057 0 0 0-.556-.776 1.79 1.79 0 0 0-.612-.441c-.256-.12-.583-.18-.981-.18-.41 0-.776.071-1.098.213a2.269 2.269 0 0 0-.827.614 2.772 2.772 0 0 0-.525.988c-.122.39-.182.822-.182 1.295 0 1.027.236 1.816.707 2.37.471.552 1.129.829 1.972.829.41 0 .795-.054 1.155-.161a5.82 5.82 0 0 0 1.095-.46v-1.42H7.715c-.33 0-.58-.05-.75-.15-.168-.099-.253-.268-.253-.507 0-.195.07-.356.212-.483.141-.127.333-.191.576-.191h2.01c.247 0 .456.022.627.066a.7.7 0 0 1 .414.292c.106.151.159.378.159.68Zm4.07-.186h-.62v2.811c0 .37-.082.643-.245.818a.832.832 0 0 1-.638.262c-.283 0-.502-.091-.657-.274-.155-.183-.232-.452-.232-.806V8.634c0-.382.085-.659.256-.83.171-.171.448-.257.83-.257h2.882c.398 0 .738.017 1.02.051.283.034.538.103.765.206a2.212 2.212 0 0 1 1.208 1.244c.11.285.164.586.164.904 0 .653-.184 1.174-.552 1.564-.368.39-.926.666-1.674.83.314.167.615.413.901.74.287.326.542.673.767 1.041.225.368.4.7.525.997.126.296.188.5.188.611 0 .116-.036.23-.11.343a.774.774 0 0 1-.301.269.95.95 0 0 1-.442.098.86.86 0 0 1-.501-.14 1.348 1.348 0 0 1-.35-.355 14.07 14.07 0 0 1-.396-.632l-.71-1.182c-.255-.434-.483-.764-.684-.99-.2-.228-.405-.383-.612-.466-.206-.084-.467-.126-.781-.126Zm1.015-3.676H14.16v2.405h1.587c.426 0 .784-.037 1.075-.11.29-.074.512-.2.665-.376.153-.177.23-.42.23-.731a1.13 1.13 0 0 0-.185-.642 1.118 1.118 0 0 0-.513-.414c-.207-.088-.615-.132-1.224-.132Z" fill="#CE8000"/>
  </g>
</svg>
