<svg viewBox="0 0 23 18" xmlns="http://www.w3.org/2000/svg">
  <g fill="none" fill-rule="evenodd">
    <path d="M15.372 6.114v3.575c.44-.457.89-.807 1.346-1.05.458-.243 1.024-.365 1.698-.365.778 0 1.46.185 2.045.554.586.368 1.04.903 1.364 1.603.323.7.484 1.53.484 2.49 0 .71-.09 1.36-.27 1.952a4.631 4.631 0 0 1-.785 1.539c-.343.434-.758.77-1.247 1.007a3.652 3.652 0 0 1-1.617.356 3.88 3.88 0 0 1-1.016-.129 2.98 2.98 0 0 1-.81-.338 3.668 3.668 0 0 1-.57-.433 9.752 9.752 0 0 1-.622-.67v.232c0 .44-.106.774-.317 1a1.06 1.06 0 0 1-.806.338c-.332 0-.596-.113-.793-.339-.197-.225-.296-.558-.296-.999V6.217c0-.475.096-.834.287-1.077.192-.242.459-.364.802-.364.36 0 .637.116.832.347.194.232.291.562.291.99Zm.112 6.954c0 .931.213 1.647.639 2.148.425.5.984.75 1.676.75.589 0 1.096-.256 1.522-.768.426-.511.639-1.244.639-2.199 0-.617-.089-1.149-.266-1.595-.177-.446-.429-.79-.755-1.033a1.856 1.856 0 0 0-1.14-.364c-.446 0-.843.121-1.192.364s-.623.594-.823 1.055c-.2.46-.3 1.007-.3 1.642Z" fill="#CE8000"/>
    <path d="M6.112 17.56H2.27c-.554 0-.95-.124-1.187-.372C.846 16.939.727 16.543.727 16V6.551c0-.555.121-.953.364-1.196s.636-.365 1.18-.365h4.072c.6 0 1.12.038 1.56.112a3.31 3.31 0 0 1 1.184.429A3.104 3.104 0 0 1 10.4 7.104c.12.329.18.676.18 1.042 0 1.257-.629 2.178-1.886 2.76 1.652.527 2.478 1.55 2.478 3.07a3.45 3.45 0 0 1-.54 1.9 3.24 3.24 0 0 1-1.458 1.247c-.383.16-.823.273-1.32.34-.498.065-1.078.098-1.741.098Zm-.189-5.581h-2.65v3.67H6.01c1.72 0 2.58-.62 2.58-1.861 0-.635-.222-1.095-.668-1.38-.446-.286-1.112-.43-1.998-.43Zm-2.65-5.076v3.25h2.333c.634 0 1.125-.06 1.47-.18.346-.12.61-.35.794-.687.142-.24.214-.508.214-.806 0-.634-.226-1.056-.678-1.265-.451-.208-1.14-.312-2.066-.312H3.274Z" fill="#FBD9A3"/>
    <circle fill="#CE8000" cx="18.96" cy="1.996" r="1.996"/>
  </g>
</svg>
