<svg viewBox="0 0 23 25" xmlns="http://www.w3.org/2000/svg">
  <path d="M8.373.001a.855.855 0 0 0-.757.704l-.339 1.861H.901a.855.855 0 1 0 0 1.71h1.46L3.368 23.7c.023.454.4.81.855.81h14.445a.855.855 0 0 0 .855-.81l1.006-19.424h1.46a.855.855 0 1 0 0-1.71h-6.376L15.275.705A.855.855 0 0 0 14.429 0H8.462a.855.855 0 0 0-.09 0Zm.801 1.71h4.542l.152.855H9.023l.151-.855ZM4.071 4.276H18.82L17.857 22.8H5.033L4.071 4.276Zm3.946 2.547a.855.855 0 0 0-.846.873v12.54a.855.855 0 1 0 1.71 0V7.695a.855.855 0 0 0-.864-.873Zm3.42 0a.855.855 0 0 0-.847.873v12.54a.855.855 0 1 0 1.71 0V7.695a.855.855 0 0 0-.864-.873Zm3.42 0a.855.855 0 0 0-.847.873v12.54a.855.855 0 1 0 1.71 0V7.695a.855.855 0 0 0-.864-.873Z"/>
</svg>
