<svg viewBox="0 0 24 24" xmlns="http://www.w3.org/2000/svg">
  <g transform="translate(1 1)" fill="none" fill-rule="evenodd">
    <circle stroke="#CE8000" stroke-width="2" fill="#FFF" cx="11" cy="11" r="11"/>
    <path d="M10.266 13.67a2.57 2.57 0 0 1-.409 1.427c-.273.421-.671.752-1.197.99-.525.24-1.147.358-1.868.358-.863 0-1.575-.163-2.136-.489a2.846 2.846 0 0 1-.97-.94c-.248-.392-.373-.773-.373-1.143 0-.215.075-.399.224-.552.15-.153.34-.23.57-.23a.67.67 0 0 1 .474.18c.13.119.24.296.332.53.111.28.231.512.36.699.13.187.312.341.547.462.234.122.543.182.925.182.525 0 .952-.122 1.28-.367.328-.244.492-.55.492-.916 0-.29-.088-.526-.265-.707a1.713 1.713 0 0 0-.687-.415c-.28-.095-.655-.197-1.125-.304a8.32 8.32 0 0 1-1.578-.516 2.551 2.551 0 0 1-1.009-.806c-.248-.34-.373-.763-.373-1.268 0-.481.132-.91.394-1.283.263-.374.643-.662 1.14-.862.497-.201 1.082-.302 1.755-.302.537 0 1.001.067 1.393.2.392.133.717.31.976.531.258.221.447.453.567.696.12.242.179.479.179.71 0 .21-.075.4-.224.57a.714.714 0 0 1-.558.253c-.203 0-.357-.05-.462-.152-.106-.101-.22-.267-.344-.498-.159-.33-.35-.588-.573-.773-.222-.185-.58-.278-1.074-.278-.457 0-.826.1-1.107.302-.28.2-.42.442-.42.725 0 .175.047.326.143.453.095.128.226.237.394.329.167.091.336.163.507.215.17.051.453.127.847.226.494.116.94.243 1.34.382.4.14.74.309 1.02.508.281.198.5.45.657.754.157.305.236.678.236 1.12Zm4.9-.781h-1.624v2.476c0 .354-.083.623-.25.806a.82.82 0 0 1-.633.274.826.826 0 0 1-.645-.271c-.163-.181-.244-.447-.244-.797V8.634c0-.39.09-.669.268-.836.18-.167.464-.25.854-.25h2.273c.673 0 1.19.051 1.552.155a2.233 2.233 0 0 1 1.522 1.343c.135.334.203.71.203 1.127 0 .891-.275 1.567-.824 2.026-.549.46-1.366.69-2.453.69Zm-.43-4.01h-1.194v2.673h1.194c.417 0 .767-.044 1.047-.131a1.23 1.23 0 0 0 .642-.43c.147-.2.22-.46.22-.782 0-.386-.113-.7-.34-.943-.254-.258-.778-.388-1.57-.388Z" fill="#CE8000"/>
  </g>
</svg>
