<svg xmlns="http://www.w3.org/2000/svg" viewBox="0 0 14 20">
    <g stroke="none" stroke-width="1" fill="none" fill-rule="evenodd">
        <g transform="translate(-1419.000000, -672.000000)" fill="#000000" fill-rule="nonzero">
            <g transform="translate(1403.000000, 659.000000)">
                <g transform="translate(11.000000, 11.000000)">
                    <path d="M19,10.4615386 L19,11.9999987 C19,13.7708426 18.402494,15.3112923 17.2074656,16.6213935 C16.0124373,17.9314975 14.5358875,18.6826917 12.7777784,18.8750006 L12.7777784,20.4615383 L15.8888892,20.4615383 C16.0995375,20.4615383 16.2818284,20.5376595 16.4357646,20.6899039 C16.5897008,20.8421482 16.6666662,21.0224349 16.6666662,21.2307691 C16.6666662,21.4391037 16.5897008,21.6193903 16.4357646,21.7716346 C16.2818284,21.923879 16.0995375,22 15.8888892,22 L8.11111081,22 C7.90046253,22 7.71817218,21.923879 7.56423622,21.7716346 C7.41030027,21.6193903 7.33333351,21.4391037 7.33333351,21.2307691 C7.33333351,21.0224349 7.41030027,20.8421482 7.56423622,20.6899039 C7.71817218,20.5376595 7.90046253,20.4615383 8.11111081,20.4615383 L11.2222216,20.4615383 L11.2222216,18.8750006 C9.46411246,18.6826917 7.98756275,17.9314975 6.79253466,16.6213935 C5.59750574,15.3112923 5,13.7708426 5,11.9999987 L5,10.4615386 C5,10.2532024 5.07696683,10.0729174 5.23090279,9.92067276 C5.38483866,9.76842814 5.56712847,9.69230583 5.77777784,9.69230583 C5.98842694,9.69230583 6.17071674,9.76842814 6.3246527,9.92067276 C6.47858865,10.0729174 6.55555568,10.2532024 6.55555568,10.4615386 L6.55555568,11.9999987 C6.55555568,13.482378 7.08824694,14.7503957 8.15364553,15.804087 C9.21904439,16.8577782 10.5011512,17.3846143 12,17.3846143 C13.4988515,17.3846143 14.7809556,16.8577782 15.8463545,15.804087 C16.9117533,14.7503957 17.444446,13.482378 17.444446,11.9999987 L17.444446,10.4615386 C17.444446,10.2532024 17.5214113,10.0729174 17.6753476,9.92067276 C17.8292838,9.76842814 18.0115747,9.69230583 18.222223,9.69230583 C18.4328713,9.69230583 18.6151622,9.76842814 18.7690984,9.92067276 C18.9230346,10.0729174 19,10.2532024 19,10.4615386 Z M15.8888892,5.84615291 L15.8888892,12 C15.8888892,13.057696 15.5081047,13.963138 14.7465277,14.7163461 C13.9849506,15.4695542 13.0694509,15.8461543 12.0000014,15.8461543 C10.9305491,15.8461543 10.0150494,15.4695542 9.25347234,14.7163461 C8.49189526,13.963138 8.11111081,13.057696 8.11111081,12 L8.11111081,5.84615291 C8.11111081,4.78845555 8.49189526,3.88301626 9.25347234,3.12980545 C10.0150494,2.37659733 10.9305491,2 12.0000014,2 C13.0694509,2 13.9849506,2.37659733 14.7465277,3.12980545 C15.5081047,3.88301626 15.8888892,4.78845555 15.8888892,5.84615291 Z"></path>
                </g>
            </g>
        </g>
    </g>
</svg>