<svg version="1.1" xmlns="http://www.w3.org/2000/svg" viewBox="0 0 300 300">
<g id="clock">
	<circle id="outter_rim" fill="#231F20" cx="150" cy="150" r="150"/>
	<circle id="inner_rim" fill="#208AB7" cx="150" cy="150" r="135.25"/>
	<circle id="clock_face" fill="#FFFFFF" cx="150" cy="150" r="131.5"/>
	<g id="hour_ticks" fill="#231F20">
		<polygon points="90.327,42.879 87.077,44.754 83.157,37.995 86.417,36.112"/>
		<polygon points="216.844,262.012 213.596,263.887 209.673,257.125 212.936,255.245"/>
		<polygon points="44.762,87.067 42.884,90.317 36.109,86.422 37.992,83.162"/>
		<polygon points="263.896,213.584 262.021,216.831 255.244,212.938 257.127,209.678"/>
		<polygon points="42.882,209.675 44.756,212.925 37.997,216.845 36.115,213.584"/>
		<polygon points="262.016,83.157 263.891,86.405 257.127,90.328 255.247,87.066"/>
		<polygon points="151.882,27.393 148.13,27.392 148.115,19.579 151.88,19.579"/>
		<polygon points="151.882,280.426 148.133,280.426 148.116,272.607 151.882,272.611"/>
		<polygon points="27.396,148.12 27.395,151.871 19.58,151.886 19.581,148.122"/>
		<polygon points="280.43,148.119 280.43,151.87 272.61,151.884 272.613,148.12"/>
		<polygon points="87.07,255.241 90.319,257.118 86.425,263.893 83.165,262.009"/>
		<polygon points="213.588,36.105 216.834,37.981 212.941,44.758 209.679,42.874"/>
	</g>
	<g id="minute_ticks" fill="#231F20">
		<rect x="136.193" y="20.644" transform="matrix(0.9947 -0.1031 0.1031 0.9947 -1.7634 14.2245)" width="1.17" height="7.068"/>
		<rect x="162.644" y="272.29" transform="matrix(0.9946 -0.1035 0.1035 0.9946 -27.663 18.3695)" width="1.17" height="7.068"/>
		<rect x="123.113" y="22.716" transform="matrix(0.9785 -0.2061 0.2061 0.9785 -2.7544 26.0517)" width="1.171" height="7.067"/>
		<rect x="175.725" y="270.217" transform="matrix(0.9785 -0.2062 0.2062 0.9785 -52.6636 42.2429)" width="1.17" height="7.069"/>
		<rect x="110.322" y="26.144" transform="matrix(0.9515 -0.3077 0.3077 0.9515 -3.7508 35.5673)" width="1.171" height="7.067"/>
		<rect x="188.517" y="266.79" transform="matrix(0.9516 -0.3074 0.3074 0.9516 -73.9501 71.2303)" width="1.169" height="7.068"/>
		<rect x="97.96" y="30.889" transform="matrix(0.9143 -0.4051 0.4051 0.9143 -5.4971 42.8667)" width="1.172" height="7.067"/>
		<rect x="200.88" y="262.044" transform="matrix(0.9143 -0.405 0.405 0.9143 -90.2927 104.3412)" width="1.17" height="7.068"/>
		<rect x="75.055" y="44.114" transform="matrix(0.8094 -0.5873 0.5873 0.8094 -13.5647 53.5066)" width="1.17" height="7.068"/>
		<rect x="223.785" y="248.82" transform="matrix(0.81 -0.5864 0.5864 0.81 -105.3583 179.5265)" width="1.171" height="7.068"/>
		<rect x="64.763" y="52.449" transform="matrix(0.7442 -0.6679 0.6679 0.7442 -20.6779 57.9641)" width="1.17" height="7.068"/>
		<rect x="234.076" y="240.485" transform="matrix(0.7436 -0.6686 0.6686 0.7436 -102.9892 219.4545)" width="1.171" height="7.07"/>
		<rect x="55.399" y="61.812" transform="matrix(0.6701 -0.7423 0.7423 0.6701 -30.0349 63.1117)" width="1.171" height="7.068"/>
		<rect x="243.441" y="231.121" transform="matrix(0.6703 -0.7421 0.7421 0.6703 -93.6788 258.4745)" width="1.169" height="7.068"/>
		<rect x="47.065" y="72.104" transform="matrix(0.5895 -0.8078 0.8078 0.5895 -41.5366 69.5421)" width="1.172" height="7.067"/>				
		<rect x="251.775" y="220.831" transform="matrix(0.5897 -0.8077 0.8077 0.5897 -77.6551 295.8839)" width="1.169" height="7.067"/>
		<rect x="33.841" y="95.01" transform="matrix(0.4074 -0.9132 0.9132 0.4074 -69.5936 89.8355)" width="1.171" height="7.068"/>
		<rect x="264.999" y="197.926" transform="matrix(0.4088 -0.9126 0.9126 0.4088 -26.8377 361.4917)" width="1.171" height="7.067"/>
		<rect x="29.096" y="107.373" transform="matrix(0.3112 -0.9503 0.9503 0.3112 -84.9548 104.5983)" width="1.17" height="7.067"/>				
		<rect x="269.744" y="185.561" transform="matrix(0.311 -0.9504 0.9504 0.311 6.5453 387.2187)" width="1.171" height="7.069"/>
		<rect x="25.669" y="120.164" transform="matrix(0.2086 -0.978 0.978 0.2086 -100.1996 123.5685)" width="1.17" height="7.069"/>
		<rect x="273.173" y="172.77" transform="matrix(0.2093 -0.9779 0.9779 0.2093 44.0597 407.0967)" width="1.166" height="7.069"/>
		<rect x="23.597" y="133.244" transform="matrix(0.1067 -0.9943 0.9943 0.1067 -114.394 146.2305)" width="1.172" height="7.067"/>
		<rect x="275.244" y="159.691" transform="matrix(0.1069 -0.9943 0.9943 0.1069 84.0652 420.0322)" width="1.17" height="7.066"/>
		<rect x="23.597" y="159.693" transform="matrix(-0.1042 -0.9946 0.9946 -0.1042 -135.6358 204.2875)" width="1.171" height="7.067"/>
		<rect x="275.245" y="133.243" transform="matrix(-0.1018 -0.9948 0.9948 -0.1018 167.837 425.0941)" width="1.171" height="7.066"/>
		<rect x="25.67" y="172.772" transform="matrix(-0.207 -0.9783 0.9783 -0.207 -140.7969 238.4909)" width="1.17" height="7.068"/>
		<rect x="273.171" y="120.161" transform="matrix(-0.2067 -0.9784 0.9784 -0.2067 209.3137 417.1073)" width="1.172" height="7.07"/>
		<rect x="29.096" y="185.564" transform="matrix(-0.3087 -0.9512 0.9512 -0.3087 -141.0169 275.7057)" width="1.17" height="7.068"/>
		<rect x="269.745" y="107.371" transform="matrix(-0.3081 -0.9514 0.9514 -0.3081 248.0928 402.2509)" width="1.167" height="7.067"/>
		<rect x="33.842" y="197.927" transform="matrix(-0.4047 -0.9144 0.9144 -0.4047 -135.8627 314.475)" width="1.172" height="7.066"/>
		<rect x="264.998" y="95.008" transform="matrix(-0.4057 -0.914 0.914 -0.4057 283.2548 381.2641)" width="1.17" height="7.067"/>
		<rect x="47.067" y="220.833" transform="matrix(-0.5873 -0.8094 0.8094 -0.5873 -105.9661 394.6962)" width="1.172" height="7.067"/>
		<rect x="251.775" y="72.102" transform="matrix(-0.5859 -0.8104 0.8104 -0.5859 338.9196 324.46)" width="1.17" height="7.066"/>
		<rect x="55.401" y="231.123" transform="matrix(-0.6683 -0.7439 0.7439 -0.6683 -81.1526 433.1299)" width="1.17" height="7.068"/>
		<rect x="243.438" y="61.809" transform="matrix(-0.6691 -0.7432 0.7432 -0.6691 358.7256 290.4238)" width="1.172" height="7.07"/>
		<rect x="64.764" y="240.487" transform="matrix(-0.7429 -0.6694 0.6694 -0.7429 -49.4582 469.0464)" width="1.17" height="7.069"/>
		<rect x="234.076" y="52.447" transform="matrix(-0.7418 -0.6706 0.6706 -0.7418 371.1863 254.8767)" width="1.166" height="7.068"/>
		<rect x="75.056" y="248.822" transform="matrix(-0.8069 -0.5907 0.5907 -0.8069 -12.387 500.6585)" width="1.172" height="7.065"/>
		<rect x="223.783" y="44.113" transform="matrix(-0.8079 -0.5893 0.5893 -0.8079 377.5684 218.353)" width="1.17" height="7.066"/>
		<rect x="97.963" y="262.046" transform="matrix(-0.9138 -0.4062 0.4062 -0.9138 80.7164 548.292)" width="1.171" height="7.067"/>
		<rect x="200.878" y="30.888" transform="matrix(-0.9128 -0.4085 0.4085 -0.9128 371.2958 148.1299)" width="1.172" height="7.067"/>
		<rect x="110.326" y="266.791" transform="matrix(-0.9506 -0.3105 0.3105 -0.9506 132.4154 561.7242)" width="1.17" height="7.067"/>
		<rect x="188.514" y="26.141" transform="matrix(-0.9509 -0.3095 0.3095 -0.9509 359.7319 116.415)" width="1.171" height="7.07"/>
		<rect x="123.116" y="270.218" transform="matrix(-0.978 -0.2084 0.2084 -0.978 187.6227 567.2767)" width="1.171" height="7.069"/>
		<polygon points="176.472,22.671 177.611,22.916 176.145,29.829 174.999,29.584"/>
		<rect x="136.195" y="272.291" transform="matrix(-0.9942 -0.1075 0.1075 -0.9942 243.1177 564.7526)" width="1.172" height="7.065"/>
		<rect x="162.644" y="20.644" transform="matrix(-0.9944 -0.1061 0.1061 -0.9944 322.9696 65.5403)" width="1.169" height="7.066"/>
	</g>
	<g id="major_numbers" fill="#231F20">
		<path d="M136.288,37.644c1.038-0.108,1.936-0.364,2.695-0.767c0.759-0.402,1.394-1.015,1.905-1.835
				s0.875-1.975,1.092-3.462h2.37V64.11h-2.928V39.944h-8.598v-2.091C134.095,37.822,135.249,37.752,136.288,37.644z"/>
		<path d="M147.464,64.11c0.031-1.61,0.31-3.036,0.836-4.275c0.527-1.239,1.224-2.354,2.091-3.346
				c0.867-0.991,1.843-1.897,2.928-2.719c1.084-0.82,2.199-1.61,3.347-2.37c1.146-0.759,2.284-1.533,3.415-2.323
				s2.146-1.634,3.044-2.533c0.898-0.898,1.572-1.82,2.021-2.765c0.449-0.945,0.674-2.068,0.674-3.37c0-1.053-0.193-1.99-0.58-2.812
				c-0.389-0.82-0.915-1.518-1.58-2.091c-0.667-0.573-1.441-1.006-2.324-1.301c-0.883-0.294-1.82-0.441-2.812-0.441
				c-1.332,0-2.471,0.249-3.416,0.744c-0.945,0.496-1.712,1.162-2.3,1.999c-0.589,0.836-1.016,1.797-1.278,2.881
				c-0.264,1.085-0.38,2.231-0.349,3.439h-2.928c-0.031-1.673,0.163-3.214,0.581-4.624c0.418-1.41,1.061-2.626,1.929-3.648
				c0.867-1.022,1.959-1.82,3.276-2.393c1.316-0.573,2.857-0.86,4.624-0.86c1.425,0,2.749,0.194,3.974,0.581
				c1.223,0.388,2.292,0.96,3.206,1.719c0.914,0.76,1.627,1.712,2.138,2.858c0.512,1.147,0.767,2.479,0.767,3.997
				c0,1.363-0.225,2.602-0.674,3.718c-0.449,1.115-1.054,2.138-1.812,3.067c-0.759,0.93-1.626,1.789-2.602,2.579
				c-0.977,0.79-2.007,1.526-3.091,2.208c-0.774,0.527-1.689,1.108-2.742,1.743c-1.054,0.636-2.067,1.341-3.044,2.115
				c-0.976,0.775-1.835,1.619-2.579,2.533c-0.743,0.914-1.208,1.914-1.394,2.998h18.078v2.695H147.464z"/>
		<path d="M37.392,162.627c1.192,1.116,2.734,1.674,4.624,1.674c1.92,0,3.462-0.48,4.624-1.441
				c1.162-0.96,2.068-2.168,2.718-3.624c0.651-1.456,1.084-3.028,1.301-4.718c0.216-1.688,0.326-3.276,0.326-4.763h-0.093
				c-0.775,1.612-1.944,2.913-3.509,3.904c-1.564,0.992-3.276,1.487-5.135,1.487c-1.611,0-3.083-0.271-4.415-0.813
				c-1.333-0.542-2.463-1.293-3.393-2.254c-0.929-0.96-1.65-2.106-2.161-3.439c-0.511-1.332-0.767-2.788-0.767-4.368
				s0.271-3.044,0.813-4.392c0.542-1.348,1.301-2.509,2.277-3.485c0.976-0.976,2.138-1.743,3.485-2.3s2.827-0.836,4.438-0.836
				c1.982,0,3.687,0.302,5.112,0.906c1.425,0.604,2.603,1.596,3.532,2.974c0.93,1.379,1.619,3.168,2.068,5.368
				c0.449,2.2,0.674,4.879,0.674,8.04c0,0.651-0.04,1.503-0.116,2.556c-0.078,1.054-0.256,2.177-0.535,3.369
				c-0.279,1.193-0.674,2.401-1.185,3.625c-0.511,1.225-1.193,2.323-2.045,3.3c-0.852,0.976-1.913,1.773-3.183,2.393
				c-1.271,0.62-2.789,0.93-4.554,0.93c-2.913,0-5.221-0.688-6.924-2.067c-1.705-1.379-2.727-3.509-3.067-6.391h2.928
				C35.479,160.057,36.199,161.512,37.392,162.627z M45.71,152.009c1.006-0.449,1.859-1.061,2.556-1.836
				c0.697-0.774,1.224-1.68,1.58-2.719c0.355-1.038,0.534-2.161,0.534-3.369c0-1.177-0.155-2.269-0.464-3.276
				c-0.31-1.006-0.798-1.89-1.464-2.649c-0.667-0.759-1.51-1.355-2.533-1.789c-1.022-0.434-2.247-0.651-3.671-0.651
				c-1.147,0-2.2,0.225-3.16,0.674c-0.961,0.45-1.79,1.054-2.486,1.812c-0.697,0.76-1.231,1.65-1.604,2.672
				c-0.372,1.022-0.558,2.091-0.558,3.207c0,1.178,0.178,2.293,0.535,3.346c0.355,1.053,0.867,1.968,1.533,2.742
				c0.666,0.775,1.487,1.387,2.463,1.836c0.976,0.449,2.083,0.674,3.323,0.674C43.565,152.683,44.703,152.458,45.71,152.009z"/>
		<path d="M155.434,240.161c-1.193-1.115-2.734-1.673-4.624-1.673c-1.89,0-3.424,0.48-4.601,1.44
				c-1.178,0.961-2.091,2.169-2.742,3.625c-0.65,1.457-1.085,3.029-1.301,4.717c-0.217,1.689-0.325,3.276-0.325,4.764h0.093
				c0.774-1.61,1.944-2.912,3.509-3.903c1.564-0.991,3.276-1.487,5.135-1.487c1.641,0,3.122,0.271,4.438,0.813
				s2.439,1.294,3.369,2.254s1.65,2.107,2.162,3.438c0.51,1.333,0.766,2.789,0.766,4.368c0,1.58-0.271,3.044-0.812,4.393
				c-0.543,1.348-1.301,2.509-2.277,3.485c-0.977,0.976-2.139,1.735-3.486,2.276c-1.348,0.542-2.826,0.813-4.438,0.813
				c-1.983,0-3.688-0.302-5.112-0.906c-1.425-0.604-2.603-1.587-3.532-2.951c-0.929-1.362-1.619-3.137-2.068-5.32
				c-0.449-2.185-0.674-4.872-0.674-8.063c0-0.65,0.039-1.502,0.116-2.556c0.077-1.053,0.255-2.177,0.534-3.369
				c0.279-1.192,0.674-2.401,1.185-3.625c0.511-1.224,1.192-2.331,2.045-3.323c0.852-0.991,1.913-1.796,3.184-2.416
				c1.27-0.62,2.788-0.93,4.554-0.93c2.912,0,5.221,0.697,6.924,2.091c1.703,1.395,2.727,3.532,3.068,6.414h-2.928
				C157.348,242.733,156.627,241.276,155.434,240.161z M147.116,250.78c-1.007,0.449-1.859,1.062-2.556,1.836
				c-0.697,0.774-1.224,1.681-1.58,2.719c-0.356,1.038-0.535,2.161-0.535,3.369c0,1.146,0.155,2.23,0.465,3.253
				c0.31,1.022,0.797,1.913,1.464,2.672c0.666,0.76,1.51,1.356,2.533,1.789c1.022,0.435,2.246,0.651,3.671,0.651
				c1.176,0,2.239-0.225,3.184-0.674c0.943-0.449,1.766-1.054,2.463-1.812s1.23-1.65,1.604-2.673
				c0.371-1.022,0.557-2.091,0.557-3.206c0-1.177-0.178-2.293-0.533-3.346c-0.357-1.054-0.869-1.968-1.535-2.742
				s-1.486-1.387-2.463-1.836c-0.975-0.448-2.084-0.674-3.322-0.674C149.26,250.106,148.122,250.332,147.116,250.78z"/>
		<path d="M249.65,159.235c0.355,1.053,0.883,1.951,1.58,2.695c0.696,0.743,1.563,1.324,2.602,1.742
				c1.038,0.419,2.208,0.628,3.509,0.628c1.084,0,2.122-0.155,3.114-0.465c0.991-0.31,1.874-0.774,2.648-1.395
				c0.774-0.619,1.395-1.378,1.859-2.277c0.465-0.897,0.697-1.92,0.697-3.066c0-1.178-0.202-2.192-0.604-3.044
				c-0.403-0.853-0.961-1.564-1.673-2.139c-0.713-0.572-1.542-0.999-2.486-1.277c-0.945-0.279-1.96-0.418-3.044-0.418h-2.463v-2.463
				h2.463c0.743,0,1.51-0.116,2.3-0.349s1.503-0.588,2.138-1.069c0.635-0.48,1.154-1.092,1.558-1.836
				c0.402-0.743,0.604-1.626,0.604-2.649c0-1.084-0.186-2.005-0.558-2.765c-0.372-0.759-0.883-1.394-1.533-1.905
				s-1.402-0.883-2.254-1.115c-0.853-0.232-1.774-0.349-2.766-0.349c-1.208,0-2.277,0.202-3.206,0.604
				c-0.93,0.403-1.713,0.968-2.347,1.696c-0.636,0.729-1.108,1.596-1.418,2.603c-0.31,1.007-0.449,2.115-0.418,3.323h-2.928
				c0-1.549,0.239-2.974,0.72-4.275s1.162-2.424,2.045-3.369c0.883-0.945,1.959-1.688,3.23-2.231
				c1.27-0.542,2.695-0.813,4.275-0.813c1.27,0,2.509,0.163,3.718,0.488c1.208,0.325,2.284,0.821,3.229,1.487
				c0.944,0.667,1.703,1.518,2.277,2.556c0.573,1.038,0.859,2.285,0.859,3.741c0,1.766-0.473,3.3-1.417,4.601
				c-0.945,1.301-2.301,2.169-4.066,2.602v0.093c2.138,0.341,3.787,1.231,4.949,2.672s1.743,3.23,1.743,5.368
				c0,1.611-0.303,3.028-0.906,4.252c-0.604,1.225-1.418,2.254-2.44,3.09c-1.022,0.837-2.215,1.465-3.578,1.883
				s-2.788,0.627-4.275,0.627c-1.673,0-3.215-0.248-4.624-0.743c-1.41-0.495-2.618-1.208-3.625-2.138s-1.766-2.075-2.277-3.439
				c-0.511-1.362-0.705-2.928-0.581-4.693h2.928C249.146,157.004,249.293,158.182,249.65,159.235z"/>
	</g>
	<g id="minor_numbers" fill="#231F20">
		<path d="M88.819,50.557c1.038-0.108,1.936-0.364,2.695-0.767c0.759-0.402,1.394-1.015,1.905-1.835
				s0.875-1.975,1.092-3.462h2.37v32.531h-2.928V52.857h-8.598v-2.091C86.627,50.735,87.781,50.666,88.819,50.557z"/>
		<path d="M103.504,50.557c1.038-0.108,1.936-0.364,2.695-0.767c0.759-0.402,1.394-1.015,1.905-1.835
				s0.875-1.975,1.092-3.462h2.37v32.531h-2.928V52.857h-8.598v-2.091C101.312,50.735,102.466,50.666,103.504,50.557z"/>
		<path d="M49.301,90.857c1.038-0.108,1.936-0.364,2.695-0.767c0.759-0.402,1.394-1.015,1.905-1.835
				s0.875-1.975,1.092-3.462h2.37v32.531h-2.928V93.158h-8.598v-2.091C47.108,91.036,48.262,90.966,49.301,90.857z"/>
		<path d="M77.509,86.071c1.471,1.039,2.618,2.363,3.439,3.974c0.821,1.611,1.378,3.408,1.673,5.391
				c0.294,1.983,0.441,3.92,0.441,5.809c0,1.921-0.147,3.873-0.441,5.855c-0.295,1.983-0.853,3.78-1.673,5.391
				c-0.821,1.611-1.968,2.928-3.439,3.95c-1.472,1.022-3.4,1.533-5.786,1.533c-2.355,0-4.275-0.511-5.763-1.533
				s-2.642-2.339-3.462-3.95c-0.821-1.611-1.379-3.408-1.673-5.391c-0.295-1.982-0.441-3.919-0.441-5.809
				c0-1.92,0.146-3.872,0.441-5.855c0.294-1.982,0.852-3.779,1.673-5.391c0.821-1.611,1.975-2.935,3.462-3.974
				c1.487-1.038,3.408-1.557,5.763-1.557C74.109,84.514,76.038,85.033,77.509,86.071z M67.262,88.418
				c-1.115,0.96-1.96,2.153-2.533,3.578c-0.574,1.425-0.953,2.974-1.139,4.647c-0.186,1.673-0.279,3.207-0.279,4.601
				c0,1.425,0.093,2.967,0.279,4.624c0.186,1.658,0.565,3.207,1.139,4.647c0.573,1.44,1.417,2.642,2.533,3.602
				c1.115,0.96,2.603,1.44,4.461,1.44s3.346-0.48,4.461-1.44c1.115-0.96,1.959-2.161,2.533-3.602
				c0.573-1.441,0.953-2.99,1.139-4.647c0.186-1.657,0.279-3.199,0.279-4.624c0-1.394-0.093-2.928-0.279-4.601
				c-0.186-1.673-0.566-3.222-1.139-4.647c-0.574-1.425-1.417-2.618-2.533-3.578c-1.116-0.96-2.603-1.441-4.461-1.441
				S68.377,87.458,67.262,88.418z"/>
		<path d="M66.392,194.646c-0.93,1.255-2.231,2.13-3.904,2.625v0.094c2.138,0.434,3.779,1.37,4.926,2.812
				c1.146,1.44,1.719,3.276,1.719,5.507c0,1.643-0.295,3.075-0.883,4.299c-0.589,1.224-1.394,2.238-2.417,3.044
				s-2.208,1.41-3.555,1.812s-2.796,0.604-4.345,0.604c-1.519,0-2.959-0.201-4.322-0.604s-2.556-1.007-3.578-1.812
				s-1.829-1.82-2.417-3.044c-0.589-1.224-0.883-2.656-0.883-4.299c0.062-2.138,0.666-3.966,1.812-5.484
				c1.146-1.518,2.742-2.463,4.787-2.834v-0.094c-1.704-0.526-3.013-1.401-3.927-2.625c-0.914-1.224-1.371-2.734-1.371-4.531
				c0-1.395,0.286-2.603,0.86-3.625c0.573-1.022,1.325-1.866,2.254-2.533c0.93-0.665,1.982-1.161,3.16-1.486
				c1.177-0.325,2.37-0.488,3.579-0.488c1.208,0,2.4,0.163,3.578,0.488c1.177,0.325,2.238,0.821,3.184,1.486
				c0.944,0.667,1.703,1.511,2.277,2.533c0.573,1.022,0.86,2.23,0.86,3.625C67.786,191.88,67.321,193.391,66.392,194.646z
				 M61.164,212.584c1.006-0.295,1.882-0.744,2.625-1.348c0.744-0.604,1.332-1.371,1.766-2.301c0.433-0.93,0.65-2.014,0.65-3.253
				c0-1.178-0.225-2.208-0.674-3.091c-0.449-0.883-1.054-1.626-1.812-2.23c-0.759-0.604-1.643-1.053-2.649-1.348
				c-1.007-0.294-2.053-0.426-3.137-0.396c-1.115-0.03-2.177,0.094-3.184,0.372c-1.007,0.279-1.882,0.721-2.625,1.324
				c-0.744,0.604-1.34,1.356-1.789,2.254c-0.45,0.899-0.674,1.937-0.674,3.114c0,1.208,0.216,2.277,0.65,3.206
				c0.434,0.93,1.022,1.696,1.766,2.301s1.618,1.062,2.625,1.371c1.006,0.31,2.083,0.465,3.23,0.465
				C59.08,213.025,60.157,212.878,61.164,212.584z M60.537,195.854c0.836-0.232,1.572-0.597,2.208-1.092
				c0.634-0.495,1.146-1.131,1.533-1.905c0.387-0.774,0.581-1.688,0.581-2.742c0-0.93-0.179-1.75-0.535-2.463
				c-0.356-0.713-0.844-1.302-1.464-1.767c-0.62-0.465-1.348-0.82-2.184-1.068s-1.75-0.372-2.742-0.372
				c-0.899,0-1.766,0.124-2.603,0.372s-1.58,0.604-2.23,1.068c-0.651,0.465-1.17,1.054-1.557,1.767
				c-0.388,0.713-0.581,1.533-0.581,2.463c0,1.085,0.201,2.014,0.604,2.788c0.402,0.774,0.929,1.41,1.58,1.905
				c0.65,0.496,1.394,0.853,2.23,1.069s1.688,0.31,2.556,0.278C58.832,196.187,59.7,196.086,60.537,195.854z"/>
		<path d="M106.072,220.36v2.695c-1.022,1.054-2.247,2.471-3.671,4.252c-1.425,1.782-2.812,3.904-4.159,6.367
				s-2.525,5.267-3.532,8.411c-1.007,3.145-1.604,6.607-1.79,10.387h-3.16c0.186-2.757,0.565-5.359,1.139-7.808
				c0.573-2.447,1.394-4.84,2.463-7.18c1.069-2.339,2.401-4.686,3.997-7.041c1.595-2.354,3.524-4.816,5.786-7.389H85.159v-2.695
				H106.072z"/>
		<path d="M196.593,247.278c0.419,0.93,0.983,1.728,1.696,2.394c0.713,0.667,1.549,1.178,2.51,1.533
				c0.96,0.356,1.998,0.535,3.113,0.535c1.271,0,2.401-0.24,3.393-0.721c0.991-0.479,1.843-1.131,2.557-1.952
				c0.712-0.82,1.254-1.766,1.626-2.835c0.372-1.068,0.558-2.191,0.558-3.369c0-1.208-0.209-2.323-0.627-3.346
				c-0.419-1.022-0.992-1.912-1.72-2.672c-0.729-0.759-1.604-1.355-2.626-1.789s-2.138-0.651-3.346-0.651
				c-1.487,0-2.866,0.334-4.136,1c-1.271,0.666-2.309,1.619-3.114,2.857h-2.509l3.159-16.869h16.266v2.695h-14.221l-2.091,10.781
				l0.093,0.093c0.806-0.96,1.828-1.703,3.067-2.23c1.238-0.526,2.51-0.79,3.811-0.79c1.673,0,3.184,0.279,4.531,0.837
				s2.493,1.332,3.438,2.323c0.945,0.992,1.674,2.177,2.185,3.556s0.767,2.889,0.767,4.53c0,1.58-0.295,3.044-0.883,4.393
				c-0.589,1.348-1.395,2.509-2.417,3.485c-1.021,0.976-2.223,1.735-3.602,2.276c-1.379,0.542-2.843,0.813-4.392,0.813
				c-1.518,0-2.92-0.225-4.205-0.674c-1.286-0.448-2.401-1.1-3.347-1.951c-0.945-0.853-1.696-1.897-2.254-3.138
				c-0.558-1.238-0.853-2.633-0.883-4.183h2.928C195.949,245.327,196.175,246.349,196.593,247.278z"/>
		<path d="M245.196,183.293h2.649v21.982h4.879v2.463h-4.879v8.086h-2.696v-8.086h-15.01v-2.835L245.196,183.293z
				 M245.149,187.569h-0.093l-12.269,17.706h12.361V187.569z"/>
		<path d="M230.194,114.226c0.03-1.61,0.31-3.036,0.837-4.275c0.526-1.239,1.224-2.354,2.091-3.346
				c0.867-0.991,1.843-1.897,2.928-2.719c1.084-0.82,2.199-1.61,3.347-2.37c1.146-0.759,2.284-1.533,3.415-2.323
				s2.146-1.634,3.044-2.533c0.898-0.898,1.572-1.82,2.021-2.765c0.449-0.945,0.674-2.068,0.674-3.37c0-1.053-0.193-1.99-0.58-2.812
				c-0.389-0.82-0.915-1.518-1.58-2.091c-0.667-0.573-1.441-1.006-2.324-1.301c-0.883-0.294-1.82-0.441-2.812-0.441
				c-1.332,0-2.471,0.249-3.416,0.744c-0.945,0.496-1.712,1.162-2.3,1.999c-0.589,0.836-1.016,1.797-1.278,2.881
				c-0.264,1.085-0.38,2.231-0.349,3.439h-2.928c-0.031-1.673,0.163-3.214,0.581-4.624c0.418-1.41,1.061-2.626,1.929-3.648
				c0.867-1.022,1.959-1.82,3.276-2.393c1.316-0.573,2.857-0.86,4.624-0.86c1.425,0,2.749,0.194,3.974,0.581
				c1.223,0.388,2.292,0.96,3.206,1.719c0.914,0.76,1.627,1.712,2.138,2.858c0.512,1.147,0.767,2.479,0.767,3.997
				c0,1.363-0.225,2.602-0.674,3.718c-0.449,1.115-1.054,2.138-1.812,3.067c-0.759,0.93-1.626,1.789-2.602,2.579
				c-0.977,0.79-2.007,1.526-3.091,2.208c-0.774,0.527-1.689,1.108-2.742,1.743c-1.054,0.636-2.067,1.341-3.044,2.115
				c-0.976,0.775-1.835,1.619-2.579,2.533c-0.743,0.914-1.208,1.914-1.395,2.998h18.078v2.695H230.194z"/>
		<path d="M196.412,50.557c1.038-0.108,1.937-0.364,2.695-0.767c0.759-0.402,1.395-1.015,1.906-1.835
				c0.511-0.821,0.874-1.975,1.092-3.462h2.37v32.531h-2.928V52.857h-8.598v-2.091C194.221,50.735,195.374,50.666,196.412,50.557z"
				/>
	</g>
</g>
</svg>
