<svg version="1.1" xmlns="http://www.w3.org/2000/svg" xmlns:xlink="http://www.w3.org/1999/xlink" x="0px" y="0px"
	 width="24.943" height="24.938" viewBox="0 0 24.943 24.938" enable-background="new 0 0 24.943 24.938" xml:space="preserve">
	<g>
		<path fill="#FFFFFF" d="M7.941,7.918l6.526-6.526c0.575-0.575,1.343-0.892,2.16-0.892s1.585,0.316,2.16,0.892l4.763,4.762
			c1.189,1.19,1.189,3.128,0,4.32L17.023,17L7.941,7.918z"/>
		<path fill="#020304" d="M16.628,1c0.655,0,1.311,0.248,1.808,0.744l4.762,4.762c0.993,0.994,0.993,2.619,0,3.613l-6.174,6.174
			L8.648,7.918l6.173-6.174C15.318,1.248,15.974,1,16.628,1 M16.628,0c-0.95,0-1.844,0.367-2.514,1.037L7.941,7.211L7.234,7.918
			l0.707,0.707L16.316,17l0.707,0.707L17.73,17l6.174-6.174c1.386-1.387,1.385-3.642,0-5.026l-4.762-4.763
			C18.473,0.369,17.579,0,16.628,0L16.628,0z"/>
	</g>
	<g>
		<path fill="#FFFFFF" d="M8.315,24.438c-0.818,0-1.585-0.315-2.16-0.892l-4.763-4.762c-1.19-1.189-1.19-3.127,0-4.32l6.526-6.525
			l9.082,9.081l-6.525,6.526C9.9,24.123,9.134,24.438,8.315,24.438z"/>
		<path fill="#020304" d="M7.92,8.646l8.375,8.374l-6.173,6.173c-0.498,0.497-1.151,0.745-1.807,0.745s-1.311-0.249-1.807-0.745
			l-4.763-4.761c-0.993-0.993-0.993-2.619,0-3.613L7.92,8.646 M7.92,7.232L7.213,7.939l-6.174,6.173
			c-1.386,1.388-1.385,3.642,0,5.027L5.803,23.9c0.669,0.669,1.562,1.038,2.514,1.038c0.951,0,1.844-0.369,2.513-1.038l6.173-6.173
			l0.707-0.707l-0.707-0.707L8.627,7.939L7.92,7.232L7.92,7.232z"/>
	</g>
	<g>
		<path fill="#808182" d="M7.92,8.646l-6.174,6.173c-0.993,0.994-0.993,2.62,0,3.613l4.764,4.761c0.992,0.993,2.617,0.994,3.612,0
			l6.173-6.173L7.92,8.646z"/>
	</g>
</svg>
