<svg viewBox="9 9 22 22" fill-rule="evenodd" clip-rule="evenodd" stroke-linejoin="round" stroke-miterlimit="2" x="80" y="120" xmlns="http://www.w3.org/2000/svg">
  <path d="M20 29.041a9.042 9.042 0 1 1 .002-18.084A9.042 9.042 0 0 1 20 29.041" fill="transparent"/>
  <path d="M20 29.041a9.042 9.042 0 1 1 .002-18.084A9.042 9.042 0 0 1 20 29.041m0-19.135C14.425 9.906 9.906 14.424 9.906 20c0 5.574 4.519 10.094 10.094 10.094 5.575 0 10.094-4.52 10.094-10.094 0-5.576-4.519-10.094-10.094-10.094" fill="#0d0d0d"/>
  <path d="M20 13.137a6.864 6.864 0 0 1 0 13.727 6.864 6.864 0 0 1 0-13.727" fill="#0d0d0d"/>
</svg>
