<svg viewBox="10 10 20 20" fill-rule="evenodd" clip-rule="evenodd" stroke-linejoin="round" stroke-miterlimit="2" y="240" xmlns="http://www.w3.org/2000/svg">
  <path d="M25.497 10.474a.858.858 0 1 0-1.213 1.215 11.697 11.697 0 0 1 3.44 8.305 11.739 11.739 0 0 1-3.448 8.316.86.86 0 1 0 1.22 1.215 13.46 13.46 0 0 0 3.944-9.53 13.411 13.411 0 0 0-3.943-9.52" fill="#000" fill-rule="nonzero"/>
  <path d="M22.265 12.709a.858.858 0 0 0-1.215 0 .852.852 0 0 0 0 1.213 8.573 8.573 0 0 1 2.52 6.08 8.566 8.566 0 0 1-2.52 6.082.855.855 0 0 0 0 1.215.855.855 0 0 0 1.215 0 10.292 10.292 0 0 0 3.02-7.297 10.287 10.287 0 0 0-3.02-7.293m-8.588 3.652h-2.314a.8.8 0 0 0-.803.801v5.678c0 .443.359.802.803.802h2.314c1.68 3.024 5.098 3.99 5.098 3.99V12.367s-3.418.97-5.098 3.994" fill="#000" fill-rule="nonzero"/>
</svg>
