<?xml version="1.0" encoding="UTF-8"?>
<svg width="24px" height="24px" viewBox="0 0 24 24" version="1.1" xmlns="http://www.w3.org/2000/svg" xmlns:xlink="http://www.w3.org/1999/xlink">
    <title>icon/24x24/hightlighted text  active 2</title>
    <g id="DES-820-Notes-attached-to-text" stroke="none" stroke-width="1" fill="none" fill-rule="evenodd">
        <g id="00-Digibook-:-notes-in-highlighted-text" transform="translate(-787.000000, -616.000000)" fill="#DC2873">
            <g id="Combined-Shape" transform="translate(787.000000, 616.000000)">
                <path d="M20,5 C21.1045695,5 22,5.8954305 22,7 L22,18 C22,19.1045695 21.1045695,20 20,20 L4,20 C2.8954305,20 2,19.1045695 2,18 L2,7 C2,5.8954305 2.8954305,5 4,5 L20,5 Z M16.2758037,10.1585366 C15.7822899,10.1585366 15.3351664,10.2479675 14.9344332,10.4268293 C14.5336999,10.6056911 14.2168641,10.8526423 13.9839255,11.1676829 C13.750987,11.4827236 13.6345178,11.8211382 13.6345178,12.1829268 L13.6345178,12.1829268 L15.0736041,12.1829268 C15.0736041,11.9227642 15.178229,11.7083333 15.3874788,11.5396341 C15.5967287,11.370935 15.8652002,11.2865854 16.1928934,11.2865854 C16.571912,11.2865854 16.8542019,11.3892276 17.0397631,11.5945122 C17.2253243,11.7997967 17.3181049,12.0731707 17.3181049,12.4146341 L17.3181049,12.4146341 L17.3181049,12.847561 L16.4357022,12.847561 C15.4921038,12.847561 14.7666385,13.0355691 14.2593063,13.4115854 C13.7519741,13.7876016 13.498308,14.3272358 13.498308,15.0304878 C13.498308,15.5873984 13.7016356,16.054878 14.108291,16.4329268 C14.5149464,16.8109756 15.0400451,17 15.6835871,17 C16.3468697,17 16.9075014,16.754065 17.3654822,16.2621951 C17.4128596,16.546748 17.4681331,16.7520325 17.5313029,16.8780488 L17.5313029,16.8780488 L19,16.8780488 L19,16.7743902 C18.8381275,16.4207317 18.7571912,15.9471545 18.7571912,15.3536585 L18.7571912,15.3536585 L18.7571912,12.3780488 C18.7453469,11.6747967 18.5163565,11.129065 18.07022,10.7408537 C17.6240835,10.3526423 17.0259447,10.1585366 16.2758037,10.1585366 Z M9.60152284,8 L8.2571912,8 L5,16.8780488 L6.55752961,16.8780488 L7.25634518,14.8109756 L10.5964467,14.8109756 L11.3011844,16.8780488 L12.8646362,16.8780488 L9.60152284,8 Z M17.3181049,13.7804878 L17.3181049,15.0243902 C17.1917654,15.2642276 17.0032431,15.4552846 16.7525381,15.597561 C16.5018331,15.7398374 16.2343486,15.8109756 15.9500846,15.8109756 C15.642132,15.8109756 15.3963621,15.726626 15.212775,15.5579268 C15.0291878,15.3892276 14.9373942,15.1626016 14.9373942,14.8780488 C14.9373942,14.5284553 15.07163,14.2581301 15.3401015,14.0670732 C15.608573,13.8760163 16.0093063,13.7804878 16.5423012,13.7804878 L16.5423012,13.7804878 L17.3181049,13.7804878 Z M8.92639594,9.88414634 L10.1759729,13.5670732 L7.67681895,13.5670732 L8.92639594,9.88414634 Z"></path>
            </g>
        </g>
    </g>
</svg>