<svg viewBox="0 0 14 18" version="1.1" xmlns="http://www.w3.org/2000/svg">
  <path fill="currentColor" stroke="none" transform="translate(-5, -3)" d="M18,7 L18,19 C18,20.1 17.1,21 16,21 L16,21 L8,21 C6.9,21 6,20.1 6,19 L6,19 L6,7 L18,7 Z M16,9 L8,9 L8,19 L16,19 L16,9 Z M11.25,10.9968414 L11.25,16.9968414 L9.75,16.9968414 L9.75,10.9968414 L11.25,10.9968414 Z M14.2482147,10.9968414 L14.2482147,16.9968414 L12.7482147,16.9968414 L12.7482147,10.9968414 L14.2482147,10.9968414 Z M14.5,3 L15.5,4 L19,4 L19,6 L5,6 L5,4 L8.5,4 L9.5,3 L14.5,3 Z"></path>
</svg>