<svg viewBox="0 0 24 24" version="1.1" xmlns="http://www.w3.org/2000/svg">
  <path fill="currentColor" stroke="none" d="M12,6 C15.79,6 19.17,8.13 20.82,11.5 C20.23,12.72 19.4,13.77 18.41,14.62 L19.82,16.03 C21.21,14.8 22.31,13.26 23,11.5 C21.27,7.11 17,4 12,4 C10.73,4 9.51,4.2 8.36,4.57 L10.01,6.22 C10.66,6.09 11.32,6 12,6 Z M2.01,3.87 L4.69,6.55 C3.06,7.83 1.77,9.53 1,11.5 C2.73,15.89 7,19 12,19 C13.52,19 14.98,18.71 16.32,18.18 L19.74,21.6 L21.15,20.19 L3.42,2.45 L2.01,3.87 Z M6.11,7.97 L14.75,16.62 C13.87,16.86 12.95,17 12,17 C8.21,17 4.83,14.87 3.18,11.5 C3.88,10.07 4.9,8.89 6.11,7.97 Z"></path>
</svg>