<?xml version="1.0" encoding="UTF-8"?>
<svg width="24px" height="24px" viewBox="0 0 24 24" version="1.1" xmlns="http://www.w3.org/2000/svg" xmlns:xlink="http://www.w3.org/1999/xlink">
    <title>icon/24x24/hightlighted text  active</title>
    <g id="DES-820-Notes-attached-to-text" stroke="none" stroke-width="1" fill="none" fill-rule="evenodd">
        <g id="00-Digibook-:-notes-in-highlighted-text" transform="translate(-248.000000, -616.000000)" fill="#404040">
            <g id="icon/24x24/hightlighted-text" transform="translate(248.000000, 616.000000)">
                <path d="M20,5 C21.1045695,5 22,5.8954305 22,7 L22,18 C22,19.1045695 21.1045695,20 20,20 L4,20 C2.8954305,20 2,19.1045695 2,18 L2,7 C2,5.8954305 2.8954305,5 4,5 L20,5 Z M20,6.5 L4,6.5 C3.75454011,6.5 3.55039163,6.67687516 3.50805567,6.91012437 L3.5,7 L3.5,18 C3.5,18.2454599 3.67687516,18.4496084 3.91012437,18.4919443 L4,18.5 L20,18.5 C20.2454599,18.5 20.4496084,18.3231248 20.4919443,18.0898756 L20.5,18 L20.5,7 C20.5,6.75454011 20.3231248,6.55039163 20.0898756,6.50805567 L20,6.5 Z M16.2758037,10.1585366 C17.0259447,10.1585366 17.6240835,10.3526423 18.07022,10.7408537 C18.5163565,11.129065 18.7453469,11.6747967 18.7571912,12.3780488 L18.7571912,15.3536585 C18.7571912,15.9471545 18.8381275,16.4207317 19,16.7743902 L19,16.8780488 L17.5313029,16.8780488 C17.4681331,16.7520325 17.4128596,16.546748 17.3654822,16.2621951 C16.9075014,16.754065 16.3468697,17 15.6835871,17 C15.0400451,17 14.5149464,16.8109756 14.108291,16.4329268 C13.7016356,16.054878 13.498308,15.5873984 13.498308,15.0304878 C13.498308,14.3272358 13.7519741,13.7876016 14.2593063,13.4115854 C14.7666385,13.0355691 15.4921038,12.847561 16.4357022,12.847561 L17.3181049,12.847561 L17.3181049,12.4146341 C17.3181049,12.0731707 17.2253243,11.7997967 17.0397631,11.5945122 C16.8542019,11.3892276 16.571912,11.2865854 16.1928934,11.2865854 C15.8652002,11.2865854 15.5967287,11.370935 15.3874788,11.5396341 C15.178229,11.7083333 15.0736041,11.9227642 15.0736041,12.1829268 L13.6345178,12.1829268 C13.6345178,11.8211382 13.750987,11.4827236 13.9839255,11.1676829 C14.2168641,10.8526423 14.5336999,10.6056911 14.9344332,10.4268293 C15.3351664,10.2479675 15.7822899,10.1585366 16.2758037,10.1585366 Z M9.60152284,8 L12.8646362,16.8780488 L11.3011844,16.8780488 L10.5964467,14.8109756 L7.25634518,14.8109756 L6.55752961,16.8780488 L5,16.8780488 L8.2571912,8 L9.60152284,8 Z M17.3181049,13.7804878 L16.5423012,13.7804878 C16.0093063,13.7804878 15.608573,13.8760163 15.3401015,14.0670732 C15.07163,14.2581301 14.9373942,14.5284553 14.9373942,14.8780488 C14.9373942,15.1626016 15.0291878,15.3892276 15.212775,15.5579268 C15.3963621,15.726626 15.642132,15.8109756 15.9500846,15.8109756 C16.2343486,15.8109756 16.5018331,15.7398374 16.7525381,15.597561 C17.0032431,15.4552846 17.1917654,15.2642276 17.3181049,15.0243902 L17.3181049,13.7804878 Z M8.92639594,9.88414634 L7.67681895,13.5670732 L10.1759729,13.5670732 L8.92639594,9.88414634 Z" id="Combined-Shape"></path>
            </g>
        </g>
    </g>
</svg>