<svg width="21" height="25" viewBox="0 0 21 25" fill="none" xmlns="http://www.w3.org/2000/svg">
<path id="vector" fill-rule="evenodd" clip-rule="evenodd" d="M8.9411 1.65127C9.78584 0.444861 11.4486 0.151666 12.655 0.996406L19.2083 5.58502C20.4147 6.42976 20.7079 8.09255 19.8631 9.29896L13.745 18.0366C13.6529 18.1681 13.5511 18.2887 13.4413 18.3982C12.6918 19.1452 11.5102 18.793 10.6491 18.178L3.78149 13.2725C2.87662 12.6262 2.37955 11.6069 2.86754 10.6077C3.08733 10.1577 3.33185 9.74002 3.49994 9.49997L8.9411 1.65127ZM2.17381 14.3385L0.937463 19.4128C0.820201 19.9741 1.00745 20.5116 1.42115 20.8012L1.56533 20.9022L0.932233 22.0992C0.576098 22.7725 0.777082 23.6057 1.40104 24.0426C2.02501 24.4795 2.87666 24.3834 3.38758 23.8184L4.29584 22.8141L4.43992 22.915C4.85362 23.2047 5.42275 23.1968 5.91003 22.8947L10.1532 20.038L2.17381 14.3385ZM18.1333 21.8C18.796 21.8 19.3333 22.3372 19.3333 23C19.3333 23.6627 18.796 24.2 18.1333 24.2H9.33326L13.3333 21.8H18.1333Z" fill="#404040"/>
</svg>
