<svg width="21" height="25" viewBox="0 0 21 25" fill="none" xmlns="http://www.w3.org/2000/svg">
<g id="Vector">
<path d="M19.3334 23C19.3334 22.3372 18.7961 21.8 18.1334 21.8H13.3334L9.33339 24.2H18.1334C18.7961 24.2 19.3334 23.6627 19.3334 23Z" fill="#404040"/>
<path fill-rule="evenodd" clip-rule="evenodd" d="M12.6552 0.996406C11.4487 0.151666 9.78596 0.444861 8.94122 1.65127L2.82307 10.3889C2.3748 11.0291 2.24697 11.7978 2.40601 12.5046C2.37084 12.5944 2.34254 12.6885 2.3221 12.7863L0.937585 19.4128C0.820323 19.9741 1.00757 20.5116 1.42127 20.8012L1.56545 20.9022L0.932355 22.0992C0.57622 22.7725 0.777204 23.6057 1.40117 24.0426C2.02513 24.4795 2.87678 24.3834 3.3877 23.8184L4.29596 22.8141L4.44004 22.915C4.85374 23.2047 5.42287 23.1968 5.91015 22.8947L11.6635 19.3272C11.7484 19.2746 11.8271 19.2159 11.8994 19.1521C12.6181 19.0599 13.2968 18.6768 13.7451 18.0366L19.8632 9.29896C20.708 8.09255 20.4148 6.42976 19.2084 5.58502L12.6552 0.996406ZM3.88075 18.7254L5.54948 19.8939L9.33715 17.358L4.96834 14.2989L3.88075 18.7254Z" fill="#404040"/>
</g>
</svg>
