<svg width="25" height="24" viewBox="0 0 25 24" fill="none" xmlns="http://www.w3.org/2000/svg">
<g id="Vector">
<path fill-rule="evenodd" clip-rule="evenodd" d="M14.0132 0.223311C14.0812 0.221487 14.1492 0.221386 14.2171 0.223007C15.2087 0.24659 16.1932 0.636729 16.9499 1.39344L22.6067 7.05029C24.1688 8.61239 24.1688 11.145 22.6067 12.7071L12.707 22.6066C12.4746 22.839 12.2208 23.0368 11.9519 23.2H7.80515C7.53625 23.0368 7.28244 22.839 7.05011 22.6066L1.39325 16.9498C-0.168845 15.3877 -0.168845 12.855 1.39325 11.2929L11.2927 1.39344C12.0463 0.639846 13.0258 0.249804 14.0132 0.223311ZM16.1368 15.6368L8.5 8L13.2064 3.20639C13.8431 2.56964 14.7964 2.79641 15.3431 3.34315L21 9C21.5467 9.54673 21.3431 10.3431 20.8431 10.8431L16.1368 15.6368Z" fill="#404040"/>
<path d="M24.1998 22C24.1998 21.3372 23.6626 20.8 22.9998 20.8H18.1905L15.7905 23.2H22.9998C23.6626 23.2 24.1998 22.6627 24.1998 22Z" fill="#404040"/>
</g>
</svg>
