<svg viewBox="0 0 24 24" version="1.1" xmlns="http://www.w3.org/2000/svg">
  <path stroke="none" fill="currentColor" fill-rule="evenodd" d="M18,13 L17.32,13 L15.32,15 L17.23,15 L19,17 L5,17 L6.78,15 L8.83,15 L6.83,13 L6,13 L3,16 L3,20 C3,21.1 3.89,22 4.99,22 L19,22 C20.1,22 21,21.11 21,20 L21,16 L18,13 Z M19,20 L5,20 L5,19 L19,19 L19,20 Z M11.34,15.02 C11.73,15.41 12.36,15.41 12.75,15.02 L18.11,9.66 C18.5,9.27 18.5,8.64 18.11,8.25 L13.16,3.3 C12.78,2.9 12.15,2.9 11.76,3.29 L6.39,8.66 C6,9.05 6,9.68 6.39,10.07 L11.34,15.02 Z M12.46,5.41 L16,8.95 L12.05,12.9 L8.51,9.36 L12.46,5.41 Z"></path>
</svg>