<svg viewBox="0 0 13 17" xmlns="http://www.w3.org/2000/svg">
  <path fill="currentColor" stroke="none" fill-rule="evenodd" transform="translate(-3.248546, -1.17702)" d="M5.02916667,9.1665 C5.02916667,11.4665 6.93,13.3331667 9.27083333,13.3331667 C11.6116667,13.3331667 13.5116667,11.4665 13.5116667,9.1665 L13.5116667,9.1665 L15.2083333,9.1665 C15.2083333,12.1073333 12.9941667,14.5248333 10.1191667,14.9331667 L10.1191667,14.9331667 L10.1191667,17.4998333 L8.4225,17.4998333 L8.4225,14.9331667 C5.54666667,14.5248333 3.33333333,12.1073333 3.33333333,9.1665 L3.33333333,9.1665 Z M9.27016667,1.66666667 C10.6785,1.66666667 11.8151667,2.78333333 11.8151667,4.16666667 L11.8151667,4.16666667 L11.8151667,6.25 L11.5493333,6.51916667 L10.7101667,5.66583333 L10.1193333,5.065 L10.1193333,4.16666667 C10.1193333,3.7075 9.73766667,3.33333333 9.27016667,3.33333333 C8.80433333,3.33333333 8.42266667,3.7075 8.42266667,4.16666667 L8.42266667,4.16666667 L8.42266667,9.16666667 C8.42266667,9.625 8.80433333,10 9.27016667,10 C9.596,10 9.871,9.81166667 10.0135,9.54583333 L10.0135,9.54583333 L10.9018333,10.445 L11.2151667,10.7633333 C10.7485,11.3108333 10.0568333,11.6666667 9.27016667,11.6666667 C7.86266667,11.6666667 6.726,10.5491667 6.726,9.16666667 L6.726,9.16666667 L6.726,4.16666667 C6.726,2.78333333 7.86266667,1.66666667 9.27016667,1.66666667 Z M15.099,4.21858333 L16.0915,5.21775 L11.5481667,9.80608333 L9.069,7.29525 L10.0623333,6.30275 L11.5481667,7.81358333 L15.099,4.21858333 Z"></path>
</svg>