<svg viewBox="0 0 24 24" version="1.1" xmlns="http://www.w3.org/2000/svg">
  <path fill="currentColor" d="M12,2 C17.5228475,2 22,6.4771525 22,12 C22,17.5228475 17.5228475,22 12,22 C6.4771525,22 2,17.5228475 2,12 C2,6.4771525 6.4771525,2 12,2 Z M16.8170955,10.8809826 L13.4780955,14.2338203 L13.4780955,16.0038203 L15.2480955,16.0038203 L18.5870955,12.6509826 L16.8170955,10.8809826 Z M12.5477152,8.99650124 L9.54771519,8.99650124 L9.54771519,12.5965012 L10.9821503,12.5965012 L9.74531894,14.9965012 L11.3108838,14.9965012 L12.5477152,12.5965012 L12.5477152,8.99650124 Z M8.54771519,8.99650124 L5.54771519,8.99650124 L5.54771519,12.5965012 L6.98215034,12.5965012 L5.74531894,14.9965012 L7.31088379,14.9965012 L8.54771519,12.5965012 L8.54771519,8.99650124 Z M19.4749747,9.2050272 C19.2010662,8.93220286 18.7578515,8.93308181 18.4850272,9.20699039 L18.4850272,9.20699039 L17.5220955,10.1719826 L19.2920955,11.9419826 L20.2569865,10.9750233 C20.5294283,10.7014987 20.5289896,10.2590401 20.2560059,9.98605638 L20.2560059,9.98605638 L19.4759573,9.20600782 C19.4756301,9.20568063 19.4753026,9.20535375 19.4749747,9.2050272 Z"></path>
</svg>