<svg viewBox="0 0 24 24" version="1.1" xmlns="http://www.w3.org/2000/svg">
  <path fill="currentColor" d="M20,3 L9,3 C8.31,3 7.77,3.35 7.41,3.88 L2,12 L7.41,20.11 C7.77,20.64 8.31,21 9,21 L20,21 C21.1,21 22,20.1 22,19 L22,5 C22,3.9 21.1,3 20,3 Z M20,19 L9.07,19 L4.4,12 L9.06,5 L20,5 L20,19 Z M11.1171068,16.2928932 L14,13.41 L16.8828932,16.2928932 L18.2928932,14.8828932 L15.41,12 L18.2928932,9.11710678 L16.8828932,7.70710678 L14,10.59 L11.1171068,7.70710678 L9.70710678,9.11710678 L12.59,12 L9.70710678,14.8828932 L11.1171068,16.2928932 Z"></path>
</svg>