<!-- Generated by IcoMoon.io -->
<svg version="1.1" xmlns="http://www.w3.org/2000/svg" width="1024" height="1024" viewBox="0 0 1024 1024">
<title></title>
<g id="icomoon-ignore">
</g>
<path d="M584.759 752c0-30.257 1.413-52.484 4.238-66.682s10.361-31.537 22.605-52.019c6.593-10.241 14.363-20.132 23.311-29.675s21.192-21.296 36.733-35.261c18.366-16.758 34.849-32.817 49.448-48.178 34.849-36.308 62.046-74.246 81.589-113.812s29.316-81.926 29.316-127.079c0-32.584-5.651-64.354-16.954-95.309s-27.314-58.303-48.035-82.043c-29.198-34.912-66.402-60.63-111.611-77.155s-95.129-24.787-149.757-24.787c-34.378 0-68.286 5.004-101.722 15.012s-63.576 24.555-90.419 43.64c-33.907 23.275-61.457 54.812-82.649 94.611s-34.143 83.206-38.852 130.221v0h179.426c-0.942-19.551 2.001-37.472 8.83-53.764s17.307-30.024 31.435-41.196c11.773-10.241 26.372-17.805 43.797-22.693s36.262-7.331 56.512-7.331c24.96 0 47.682 3.84 68.168 11.521s36.851 19.667 49.095 35.959c15.070 18.154 22.605 44.222 22.605 78.202 0 25.602-3.414 48.527-10.243 68.776s-19.191 40.381-37.086 60.397c-17.425 17.689-41.913 39.799-73.466 66.332-21.663 17.689-38.734 32.933-51.214 45.734s-23.9 29.442-34.26 49.924c-27.314 47.48-40.971 106.365-40.971 176.654v0h180.132zM592 1024v-192h-176v192h176z"></path>
</svg>
