<svg viewBox="0 0 24 24" version="1.1" xmlns="http://www.w3.org/2000/svg">
  <path fill="currentColor" d="M11,6.01 L8,6.01 L12,10 L16,6.01 L13,6.01 L13,2 L17,2 C18.1045695,2 19,2.8954305 19,4 L19,20 C19,21.1045695 18.1045695,22 17,22 L7,22 C5.8954305,22 5,21.1045695 5,20 L5,4 C5,2.8954305 5.8954305,2 7,2 L11,2 L11,6.01 Z M11.6640625,11 C11.0130208,11 10.4231771,11.1145833 9.89453125,11.34375 C9.36588542,11.5729167 8.94791667,11.8893229 8.640625,12.2929688 C8.37174479,12.6461589 8.22049967,13.0222778 8.18688965,13.4213257 L8.18688965,13.4213257 L8.1796875,13.59375 L10.078125,13.59375 L10.0865753,13.4544802 C10.1203763,13.1831154 10.2555804,12.9547991 10.4921875,12.7695312 C10.7682292,12.5533854 11.1223958,12.4453125 11.5546875,12.4453125 C12.0546875,12.4453125 12.4270833,12.5768229 12.671875,12.8398438 C12.8816964,13.0652902 13.0015944,13.354831 13.0315689,13.7084662 L13.0315689,13.7084662 L13.0390625,13.890625 L13.0390625,14.4453125 L11.875,14.4453125 L11.5928486,14.4495886 C10.4846755,14.4837972 9.62169471,14.7232572 9.00390625,15.1679688 C8.33463542,15.6497396 8,16.3411458 8,17.2421875 C8,17.9557292 8.26822917,18.5546875 8.8046875,19.0390625 C9.34114583,19.5234375 10.0338542,19.765625 10.8828125,19.765625 C11.7578125,19.765625 12.4973958,19.4505208 13.1015625,18.8203125 C13.1536458,19.1241319 13.212963,19.3574219 13.2795139,19.5201823 L13.2795139,19.5201823 L13.3203125,19.609375 L15.2578125,19.609375 L15.2578125,19.4765625 L15.1827393,19.2994385 C15.0426025,18.9307861 14.9625244,18.475708 14.9425049,17.9342041 L14.9425049,17.9342041 L14.9375,17.65625 L14.9375,13.84375 L14.9276259,13.6226942 C14.8695385,12.8275734 14.5707465,12.2020399 14.03125,11.7460938 C13.4427083,11.2486979 12.6536458,11 11.6640625,11 Z M13.0390625,15.640625 L13.0390625,17.234375 L12.9488932,17.3828125 C12.7872179,17.6215278 12.5685764,17.8168403 12.2929688,17.96875 C11.9622396,18.1510417 11.609375,18.2421875 11.234375,18.2421875 C10.828125,18.2421875 10.5039062,18.1341146 10.2617188,17.9179688 C10.0195312,17.7018229 9.8984375,17.4114583 9.8984375,17.046875 C9.8984375,16.5989583 10.0755208,16.2526042 10.4296875,16.0078125 C10.7445023,15.7902199 11.1971772,15.6693351 11.7877122,15.6451582 L11.7877122,15.6451582 L12.015625,15.640625 L13.0390625,15.640625 Z"></path>
</svg>