<svg viewBox="0 0 26 24" version="1.1" xmlns="http://www.w3.org/2000/svg">
  <path fill="currentColor" d="M18,2 C19.1045695,2 20,2.8954305 20,4 L20,20 C20,21.1045695 19.1045695,22 18,22 L6,22 C4.8954305,22 4,21.1045695 4,20 L4,4 C4,2.8954305 4.8954305,2 6,2 L18,2 Z M18,18 L6,18 L6,20 L18,20 L18,18 Z M13.0703125,4 L11.296875,4 L7,15.375 L9.0546875,15.375 L9.9765625,12.7265625 L14.3828125,12.7265625 L15.3125,15.375 L17.375,15.375 L13.0703125,4 Z M12.1796875,6.4140625 L13.828125,11.1328125 L10.53125,11.1328125 L12.1796875,6.4140625 Z"></path>
</svg>