<svg viewBox="0 0 24 24" version="1.1" xmlns="http://www.w3.org/2000/svg">
  <path fill="currentColor" d="M12.0692663,2.00016994 L12.348995,2.00609173 C13.8081056,2.05704499 15.186091,2.42536036 16.4254307,3.0389865 L16.4254307,3.0389865 L14.8429665,4.51465823 C14.0428828,4.21655412 13.1786477,4.03628293 12.279196,4.00487338 C7.87188243,3.8509666 4.15878016,7.31349048 4.00487338,11.720804 C3.8509666,16.1281176 7.31349048,19.8412198 11.720804,19.9951266 C16.1281176,20.1490334 19.8412198,16.6865095 19.9951266,12.279196 C20.0265362,11.3797442 19.9069901,10.5050393 19.6654232,9.68610985 L19.6654232,9.68610985 L21.2582303,8.2007932 C21.7739158,9.47956936 22.0452105,10.8798905 21.9939083,12.348995 C21.801263,17.8656323 17.1676424,22.1865535 11.651005,21.9939083 C6.13436767,21.801263 1.81344651,17.1676424 2.00609173,11.651005 C2.19873695,6.13436767 6.8323576,1.81344651 12.348995,2.00609173 Z M12.4140625,8 C13.4036458,8 14.1927083,8.24869792 14.78125,8.74609375 C15.3697917,9.24348958 15.671875,9.94270833 15.6875,10.84375 L15.6875,10.84375 L15.6875,14.65625 L15.6925049,14.9342041 C15.715861,15.5659587 15.8209635,16.0800781 16.0078125,16.4765625 L16.0078125,16.4765625 L16.0078125,16.609375 L14.0703125,16.609375 L14.0295139,16.5201823 C13.962963,16.3574219 13.9036458,16.1241319 13.8515625,15.8203125 C13.2473958,16.4505208 12.5078125,16.765625 11.6328125,16.765625 C10.7838542,16.765625 10.0911458,16.5234375 9.5546875,16.0390625 C9.01822917,15.5546875 8.75,14.9557292 8.75,14.2421875 C8.75,13.3411458 9.08463542,12.6497396 9.75390625,12.1679687 C10.4231771,11.6861979 11.3802083,11.4453125 12.625,11.4453125 L12.625,11.4453125 L13.7890625,11.4453125 L13.7890625,10.890625 L13.7815689,10.7084662 C13.7515944,10.354831 13.6316964,10.0652902 13.421875,9.83984375 C13.1770833,9.57682292 12.8046875,9.4453125 12.3046875,9.4453125 C11.8723958,9.4453125 11.5182292,9.55338542 11.2421875,9.76953125 C10.9661458,9.98567708 10.828125,10.2604167 10.828125,10.59375 L10.828125,10.59375 L8.9296875,10.59375 L8.93688965,10.4213257 C8.97049967,10.0222778 9.12174479,9.64615885 9.390625,9.29296875 C9.69791667,8.88932292 10.1158854,8.57291667 10.6445312,8.34375 C11.1731771,8.11458333 11.7630208,8 12.4140625,8 Z M13.7890625,12.640625 L12.765625,12.640625 L12.5377122,12.6451582 C11.9471772,12.6693351 11.4945023,12.7902199 11.1796875,13.0078125 C10.8255208,13.2526042 10.6484375,13.5989583 10.6484375,14.046875 C10.6484375,14.4114583 10.7695312,14.7018229 11.0117187,14.9179687 C11.2539062,15.1341146 11.578125,15.2421875 11.984375,15.2421875 C12.359375,15.2421875 12.7122396,15.1510417 13.0429687,14.96875 C13.3736979,14.7864583 13.6223958,14.5416667 13.7890625,14.234375 L13.7890625,14.234375 L13.7890625,12.640625 Z M19.813,2.877 L21.583,4.647 L17.77,8.46005051 L16,8.46005051 L16,6.69005051 L19.813,2.877 Z M22.4749747,1.20502525 L23.2550253,1.98507576 C23.5283923,2.25844276 23.5283923,2.70165825 23.2550253,2.97502525 L22.29,3.94 L20.52,2.17 L21.4850253,1.20502525 C21.7583923,0.931658249 22.2016077,0.931658249 22.4749747,1.20502525 Z"></path>
</svg>