<svg viewBox="0 0 24 24" version="1.1" xmlns="http://www.w3.org/2000/svg">
  <path fill="currentColor" d="M12.0692663,2.00016994 L12.348995,2.00609173 C13.8081056,2.05704499 15.186091,2.42536036 16.4254307,3.0389865 L16.4254307,3.0389865 L14.8429665,4.51465823 C14.0428828,4.21655412 13.1786477,4.03628293 12.279196,4.00487338 C7.87188243,3.8509666 4.15878016,7.31349048 4.00487338,11.720804 C3.8509666,16.1281176 7.31349048,19.8412198 11.720804,19.9951266 C16.1281176,20.1490334 19.8412198,16.6865095 19.9951266,12.279196 C20.0265362,11.3797442 19.9069901,10.5050393 19.6654232,9.68610985 L19.6654232,9.68610985 L21.2582303,8.2007932 C21.7739158,9.47956936 22.0452105,10.8798905 21.9939083,12.348995 C21.801263,17.8656323 17.1676424,22.1865535 11.651005,21.9939083 C6.13436767,21.801263 1.81344651,17.1676424 2.00609173,11.651005 C2.19873695,6.13436767 6.8323576,1.81344651 12.348995,2.00609173 Z M11.2857143,9 L11.2857143,13.2 L9.85714286,16 L7.71428571,16 L9.14285714,13.2 L7.71428571,13.2 L7.71428571,9 L11.2857143,9 Z M16.2857143,9 L16.2857143,13.2 L14.8571429,16 L12.7142857,16 L14.1428571,13.2 L12.7142857,13.2 L12.7142857,9 L16.2857143,9 Z M19.813,2.877 L21.583,4.647 L17.77,8.46005051 L16,8.46005051 L16,6.69005051 L19.813,2.877 Z M22.4749747,1.20502525 L23.2550253,1.98507576 C23.5283923,2.25844276 23.5283923,2.70165825 23.2550253,2.97502525 L22.29,3.94 L20.52,2.17 L21.4850253,1.20502525 C21.7583923,0.931658249 22.2016077,0.931658249 22.4749747,1.20502525 Z"></path>
</svg>