<svg viewBox="0 0 24 24" version="1.1" xmlns="http://www.w3.org/2000/svg">
  <path fill="currentColor" d="M17,2 C18.1045695,2 19,2.8954305 19,4 L19,20 C19,21.1045695 18.1045695,22 17,22 L7,22 C5.8954305,22 5,21.1045695 5,20 L5,4 C5,2.8954305 5.8954305,2 7,2 L17,2 Z M17,18 L7,18 L7,20 L17,20 L17,18 Z M11.6640625,7 C11.0130208,7 10.4231771,7.11458333 9.89453125,7.34375 C9.36588542,7.57291667 8.94791667,7.88932292 8.640625,8.29296875 C8.37174479,8.64615885 8.22049967,9.02227783 8.18688965,9.42132568 L8.18688965,9.42132568 L8.1796875,9.59375 L10.078125,9.59375 L10.0865753,9.45448023 C10.1203763,9.18311543 10.2555804,8.95479911 10.4921875,8.76953125 C10.7682292,8.55338542 11.1223958,8.4453125 11.5546875,8.4453125 C12.0546875,8.4453125 12.4270833,8.57682292 12.671875,8.83984375 C12.8816964,9.06529018 13.0015944,9.35483099 13.0315689,9.7084662 L13.0315689,9.7084662 L13.0390625,9.890625 L13.0390625,10.4453125 L11.875,10.4453125 L11.5928486,10.4495886 C10.4846755,10.4837972 9.62169471,10.7232572 9.00390625,11.1679688 C8.33463542,11.6497396 8,12.3411458 8,13.2421875 C8,13.9557292 8.26822917,14.5546875 8.8046875,15.0390625 C9.34114583,15.5234375 10.0338542,15.765625 10.8828125,15.765625 C11.7578125,15.765625 12.4973958,15.4505208 13.1015625,14.8203125 C13.1536458,15.1241319 13.212963,15.3574219 13.2795139,15.5201823 L13.2795139,15.5201823 L13.3203125,15.609375 L15.2578125,15.609375 L15.2578125,15.4765625 L15.1827393,15.2994385 C15.0426025,14.9307861 14.9625244,14.475708 14.9425049,13.9342041 L14.9425049,13.9342041 L14.9375,13.65625 L14.9375,9.84375 L14.9276259,9.62269423 C14.8695385,8.82757342 14.5707465,8.20203993 14.03125,7.74609375 C13.4427083,7.24869792 12.6536458,7 11.6640625,7 Z M13.0390625,11.640625 L13.0390625,13.234375 L12.9488932,13.3828125 C12.7872179,13.6215278 12.5685764,13.8168403 12.2929688,13.96875 C11.9622396,14.1510417 11.609375,14.2421875 11.234375,14.2421875 C10.828125,14.2421875 10.5039062,14.1341146 10.2617188,13.9179688 C10.0195312,13.7018229 9.8984375,13.4114583 9.8984375,13.046875 C9.8984375,12.5989583 10.0755208,12.2526042 10.4296875,12.0078125 C10.7445023,11.7902199 11.1971772,11.6693351 11.7877122,11.6451582 L11.7877122,11.6451582 L12.015625,11.640625 L13.0390625,11.640625 Z"></path>
</svg>