<svg viewBox="0 0 24 24" version="1.1" xmlns="http://www.w3.org/2000/svg">
  <path fill="currentColor" d="M12,2 C17.5228475,2 22,6.4771525 22,12 C22,17.5228475 17.5228475,22 12,22 C6.4771525,22 2,17.5228475 2,12 C2,6.4771525 6.4771525,2 12,2 Z M8.4140625,8 C7.76302083,8 7.17317708,8.11458333 6.64453125,8.34375 C6.11588542,8.57291667 5.69791667,8.88932292 5.390625,9.29296875 C5.12174479,9.64615885 4.97049967,10.0222778 4.93688965,10.4213257 L4.93688965,10.4213257 L4.9296875,10.59375 L6.828125,10.59375 L6.83657526,10.4544802 C6.87037628,10.1831154 7.00558036,9.95479911 7.2421875,9.76953125 C7.51822917,9.55338542 7.87239583,9.4453125 8.3046875,9.4453125 C8.8046875,9.4453125 9.17708333,9.57682292 9.421875,9.83984375 C9.63169643,10.0652902 9.75159439,10.354831 9.78156888,10.7084662 L9.78156888,10.7084662 L9.7890625,10.890625 L9.7890625,11.4453125 L8.625,11.4453125 L8.34284856,11.4495886 C7.23467548,11.4837972 6.37169471,11.7232572 5.75390625,12.1679688 C5.08463542,12.6497396 4.75,13.3411458 4.75,14.2421875 C4.75,14.9557292 5.01822917,15.5546875 5.5546875,16.0390625 C6.09114583,16.5234375 6.78385417,16.765625 7.6328125,16.765625 C8.5078125,16.765625 9.24739583,16.4505208 9.8515625,15.8203125 C9.90364583,16.1241319 9.96296296,16.3574219 10.0295139,16.5201823 L10.0295139,16.5201823 L10.0703125,16.609375 L12.0078125,16.609375 L12.0078125,16.4765625 L11.9327393,16.2994385 C11.7926025,15.9307861 11.7125244,15.475708 11.6925049,14.9342041 L11.6925049,14.9342041 L11.6875,14.65625 L11.6875,10.84375 L11.6776259,10.6226942 C11.6195385,9.82757342 11.3207465,9.20203993 10.78125,8.74609375 C10.1927083,8.24869792 9.40364583,8 8.4140625,8 Z M16.813,10.877 L13,14.6900505 L13,16.4600505 L14.77,16.4600505 L18.583,12.647 L16.813,10.877 Z M9.7890625,12.640625 L9.7890625,14.234375 L9.69889323,14.3828125 C9.53721788,14.6215278 9.31857639,14.8168403 9.04296875,14.96875 C8.71223958,15.1510417 8.359375,15.2421875 7.984375,15.2421875 C7.578125,15.2421875 7.25390625,15.1341146 7.01171875,14.9179688 C6.76953125,14.7018229 6.6484375,14.4114583 6.6484375,14.046875 C6.6484375,13.5989583 6.82552083,13.2526042 7.1796875,13.0078125 C7.49450231,12.7902199 7.94717721,12.6693351 8.53771219,12.6451582 L8.53771219,12.6451582 L8.765625,12.640625 L9.7890625,12.640625 Z M19.4749747,9.20502525 C19.2016077,8.93165825 18.7583923,8.93165825 18.4850253,9.20502525 L18.4850253,9.20502525 L17.52,10.17 L19.29,11.94 L20.2550253,10.9750253 C20.5283923,10.7016582 20.5283923,10.2584428 20.2550253,9.98507576 L20.2550253,9.98507576 Z"></path>
</svg>