<svg viewBox="0 0 24 24" version="1.1" xmlns="http://www.w3.org/2000/svg">
  <path fill="currentColor" d="M7,18 L7,20 L2,20 L2,18 L7,18 Z M22,18 L22,20 L17,20 L17,18 L22,18 Z M11.6640625,11 C12.6536458,11 13.4427083,11.2486979 14.03125,11.7460938 C14.6197917,12.2434896 14.921875,12.9427083 14.9375,13.84375 L14.9375,13.84375 L14.9375,17.65625 L14.9425049,17.9342041 C14.965861,18.5659587 15.0709635,19.0800781 15.2578125,19.4765625 L15.2578125,19.4765625 L15.2578125,19.609375 L13.3203125,19.609375 L13.2795139,19.5201823 C13.212963,19.3574219 13.1536458,19.1241319 13.1015625,18.8203125 C12.4973958,19.4505208 11.7578125,19.765625 10.8828125,19.765625 C10.0338542,19.765625 9.34114583,19.5234375 8.8046875,19.0390625 C8.26822917,18.5546875 8,17.9557292 8,17.2421875 C8,16.3411458 8.33463542,15.6497396 9.00390625,15.1679688 C9.67317708,14.6861979 10.6302083,14.4453125 11.875,14.4453125 L11.875,14.4453125 L13.0390625,14.4453125 L13.0390625,13.890625 L13.0315689,13.7084662 C13.0015944,13.354831 12.8816964,13.0652902 12.671875,12.8398438 C12.4270833,12.5768229 12.0546875,12.4453125 11.5546875,12.4453125 C11.1223958,12.4453125 10.7682292,12.5533854 10.4921875,12.7695312 C10.2161458,12.9856771 10.078125,13.2604167 10.078125,13.59375 L10.078125,13.59375 L8.1796875,13.59375 L8.18688965,13.4213257 C8.22049967,13.0222778 8.37174479,12.6461589 8.640625,12.2929688 C8.94791667,11.8893229 9.36588542,11.5729167 9.89453125,11.34375 C10.4231771,11.1145833 11.0130208,11 11.6640625,11 Z M13.0390625,15.640625 L12.015625,15.640625 L11.7877122,15.6451582 C11.1971772,15.6693351 10.7445023,15.7902199 10.4296875,16.0078125 C10.0755208,16.2526042 9.8984375,16.5989583 9.8984375,17.046875 C9.8984375,17.4114583 10.0195312,17.7018229 10.2617188,17.9179688 C10.5039062,18.1341146 10.828125,18.2421875 11.234375,18.2421875 C11.609375,18.2421875 11.9622396,18.1510417 12.2929688,17.96875 C12.6236979,17.7864583 12.8723958,17.5416667 13.0390625,17.234375 L13.0390625,17.234375 L13.0390625,15.640625 Z M13,2 L13,6.01 L16,6.01 L12,10 L8,6.01 L11,6.01 L11,2 L13,2 Z"></path>
</svg>