<svg viewBox="0 0 24 24" xmlns="http://www.w3.org/2000/svg">
  <path stroke="none" fill-rule="evenodd" fill="currentColor" transform="translate(12.000000, 12.000000) rotate(90.000000) scale(1, -1) translate(-12.000000, -12.000000)" d="M17,4 L19,4 L19,8 L17,8 L17,4 Z M17,10 L19,10 L19,14 L17,14 L17,10 Z M17,16 L19,16 L19,20 L17,20 L17,16 Z M5,11.5 C5,14.977223 7.74617707,17.8317975 11.1847834,17.9928336 C11.1847834,17.9928336 11.1847834,18.7961597 11.1847834,20.402812 L15,17 L11.1847834,13.4017403 C11.1962115,15.1270349 11.1962115,15.9892734 11.1847834,15.9884557 C8.85512748,15.8217781 7,13.8711405 7,11.5 C7,9.02 9.02,7 11.5,7 L15,7 L15,5 L11.5,5 C7.92,5 5,7.92 5,11.5 Z"></path>
</svg>
