<svg width="32" height="32" viewBox="0 0 32 32" fill="none" xmlns="http://www.w3.org/2000/svg">
<g id="Icon/24x24/Send first">
<path id="Vector" fill-rule="evenodd" clip-rule="evenodd" d="M10 24C10.5523 24 11 23.5523 11 23L11 9C11 8.44771 10.5523 8 10 8L8 8C7.44772 8 7 8.44771 7 9L7 23C7 23.5523 7.44772 24 8 24L10 24ZM14.6628 14.6083C13.7791 15.3285 13.7791 16.6715 14.6628 17.3917L22.5189 23.794C23.1104 24.2761 24 23.8581 24 23.0982L24 8.90181C24 8.14187 23.1104 7.72392 22.5189 8.20597L14.6628 14.6083Z" fill="#404040"/>
</g>
</svg>
