<svg viewBox="0 0 24 24" version="1.1" xmlns="http://www.w3.org/2000/svg">
  <path stroke="none" fill="currentColor" d="M17.125,2 C18.1288701,2 18.9212869,2.80619811 18.9944789,3.79738122 L19,3.94736842 L19,6.89037578 L17,6.89037578 L17,4 L5,4 L5,20 L17,20 L17,17.8080834 L19,17.8080834 L19,20.0526316 C19,21.0607602 18.2553865,21.9149644 17.2739311,21.9940312 L17.125,22 L4.875,22 C3.87112992,22 3.07871305,21.1938019 3.00552113,20.2026188 L3,20.0526316 L3,3.94736842 C3,2.93923985 3.74461353,2.08503561 4.72606886,2.00596883 L4.875,2 L17.125,2 Z M19.472146,9.0049597 L21,10.5905453 L14.7753002,17.0049597 L11.4,13.526788 L12.9292064,11.9509748 L14.7744557,13.8447112 L19.472146,9.0049597 Z M12,9 L12,10.5 L7,10.5 L7,9 L12,9 Z M15,6 L15,7.5 L7,7.5 L7,6 L15,6 Z"></path>
</svg>