<svg width="25" height="24" viewBox="0 0 25 24" fill="none" xmlns="http://www.w3.org/2000/svg">
<g id="Pronunciation">
<g id="Vector">
<path d="M4.5 6H6.5L4.5 18H2.5L4.5 6Z" fill="#404040"/>
<path d="M20.5 6H22.5L20.5 18H18.5L20.5 6Z" fill="#404040"/>
<path fill-rule="evenodd" clip-rule="evenodd" d="M12.392 9.88733C11.9139 9.47839 11.2679 9.27393 10.4541 9.27393C9.91699 9.27393 9.43278 9.3665 9.00146 9.55164C8.57015 9.73678 8.23649 9.99211 8.00049 10.3176C7.7982 10.5966 7.68261 10.8966 7.65371 11.2175L7.64648 11.3796H9.4104C9.4104 11.1314 9.49483 10.9361 9.6637 10.7937C9.83256 10.6513 10.0655 10.5801 10.3625 10.5801C10.7003 10.5801 10.9475 10.6716 11.1041 10.8547C11.2347 11.0073 11.3108 11.2023 11.3326 11.4397L11.3391 11.5872V11.9656H10.5273C9.54671 11.9696 8.797 12.1589 8.2782 12.5332C7.7594 12.9076 7.5 13.4447 7.5 14.1445C7.5 14.7142 7.71261 15.1862 8.13782 15.5605C8.56303 15.9349 9.09912 16.1221 9.74609 16.1221C10.4297 16.1221 10.9851 15.884 11.4124 15.408C11.4398 15.585 11.4799 15.7402 11.5325 15.8737L11.5894 16H13.3716V15.8962C13.222 15.615 13.1364 15.2169 13.1146 14.702L13.1091 14.4741V11.6116C13.1091 10.871 12.8701 10.2963 12.392 9.88733ZM10.6799 12.9971H11.3391V14.1323C11.2333 14.3276 11.0706 14.4833 10.8508 14.5992C10.6311 14.7152 10.391 14.7732 10.1306 14.7732C9.86206 14.7732 9.65047 14.702 9.49585 14.5596C9.37215 14.4456 9.29793 14.307 9.27319 14.1436L9.26392 14.0164L9.27002 13.9126C9.32319 13.3429 9.73613 13.0391 10.5088 13.0011L10.6799 12.9971Z" fill="#404040"/>
<path d="M16.8716 9.57391L15.6216 12.0739L14.3716 9.57391H16.8716Z" fill="#404040"/>
<path d="M15.6216 13.3239L14.3716 15.8239H16.8716L15.6216 13.3239Z" fill="#404040"/>
</g>
</g>
</svg>
