<svg viewBox="0 0 24 24" version="1.1" xmlns="http://www.w3.org/2000/svg">
  <path stroke="none" fill="currentColor" d="M12,14 C13.66,14 15,12.66 15,11 L15,5 C15,3.34 13.66,2 12,2 C10.34,2 9,3.34 9,5 L9,11 C9,12.66 10.34,14 12,14 Z M11,5 C11,4.45 11.45,4 12,4 C12.55,4 13,4.45 13,5 L13,11 C13,11.55 12.55,12 12,12 C11.45,12 11,11.55 11,11 L11,5 Z M17,11 C17,13.76 14.76,16 12,16 C9.24,16 7,13.76 7,11 L5,11 C5,14.53 7.61,17.43 11,17.92 L11,21 L13,21 L13,17.92 C16.39,17.43 19,14.53 19,11 L17,11 Z"></path>
</svg>