<svg width="25" height="24" viewBox="0 0 25 24" fill="none" xmlns="http://www.w3.org/2000/svg">
<g id="Grammar">
<path id="Vector" fill-rule="evenodd" clip-rule="evenodd" d="M4.4998 14.4999L7.6778 4.41994H10.1488L13.3268 14.4999H11.5908L10.8944 12.3159H6.9238L6.2358 14.4999H4.4998ZM8.89696 6.05225L10.3921 10.7409H7.41995L8.89696 6.05225ZM17.8055 14.7099C17.0682 14.7099 16.4498 14.5349 15.9505 14.1849C15.8446 14.1107 15.7443 14.0308 15.6495 13.9453V14.4999H14.1585V4.41994H15.8595V7.30625C15.8826 7.28884 15.9059 7.27174 15.9295 7.25494C16.4195 6.90494 17.0238 6.72994 17.7425 6.72994C18.4565 6.72994 19.0748 6.90494 19.5975 7.25494C20.1248 7.60027 20.5332 8.07394 20.8225 8.67594C21.1118 9.27327 21.2565 9.95461 21.2565 10.7199C21.2565 11.4759 21.1142 12.1549 20.8295 12.7569C20.5448 13.3589 20.1435 13.8349 19.6255 14.1849C19.1075 14.5349 18.5008 14.7099 17.8055 14.7099ZM15.8385 9.42494C15.7125 9.79361 15.6495 10.2253 15.6495 10.7199C15.6495 11.2099 15.7125 11.6416 15.8385 12.0149C15.9692 12.3883 16.1722 12.6799 16.4475 12.8899C16.7275 13.0953 17.0938 13.1979 17.5465 13.1979C17.9852 13.1979 18.3468 13.0883 18.6315 12.8689C18.9162 12.6496 19.1262 12.3533 19.2615 11.9799C19.4015 11.6019 19.4715 11.1819 19.4715 10.7199C19.4715 10.2626 19.4015 9.84727 19.2615 9.47394C19.1215 9.09594 18.9045 8.79727 18.6105 8.57794C18.3165 8.35394 17.9432 8.24194 17.4905 8.24194C17.0612 8.24194 16.7112 8.34694 16.4405 8.55694C16.1698 8.76227 15.9692 9.05161 15.8385 9.42494ZM5.49478 17.005C5.22141 16.7316 4.7782 16.7316 4.50483 17.005L3.00483 18.505C2.73146 18.7783 2.73146 19.2215 3.00483 19.4949C3.2782 19.7683 3.72141 19.7683 3.99478 19.4949L4.9998 18.4899L6.00483 19.4949C6.2782 19.7683 6.72141 19.7683 6.99478 19.4949L7.9998 18.4899L9.00483 19.4949C9.2782 19.7683 9.72141 19.7683 9.99478 19.4949L10.9998 18.4899L12.0048 19.4949C12.2782 19.7683 12.7214 19.7683 12.9948 19.4949L13.9998 18.4899L15.0048 19.4949C15.2782 19.7683 15.7214 19.7683 15.9948 19.4949L16.9998 18.4899L18.0048 19.4949C18.2782 19.7683 18.7214 19.7683 18.9948 19.4949L19.9998 18.4899L21.0048 19.4949C21.2782 19.7683 21.7214 19.7683 21.9948 19.4949C22.2681 19.2215 22.2681 18.7783 21.9948 18.505L20.4948 17.005C20.2214 16.7316 19.7782 16.7316 19.5048 17.005L18.4998 18.01L17.4948 17.005C17.2214 16.7316 16.7782 16.7316 16.5048 17.005L15.4998 18.01L14.4948 17.005C14.2214 16.7316 13.7782 16.7316 13.5048 17.005L12.4998 18.01L11.4948 17.005C11.2214 16.7316 10.7782 16.7316 10.5048 17.005L9.4998 18.01L8.49478 17.005C8.22141 16.7316 7.7782 16.7316 7.50483 17.005L6.4998 18.01L5.49478 17.005Z" fill="#404040"/>
</g>
</svg>
