<svg width="24" height="24" viewBox="0 0 24 24" fill="none" xmlns="http://www.w3.org/2000/svg">
<g id="Speaking">
<path id="Vector" fill-rule="evenodd" clip-rule="evenodd" d="M3.31994 4.89057C4.60178 3.7423 6.28958 3.2002 7.95439 3.2002C9.62231 3.2002 11.2649 3.7488 12.5009 4.84845C13.7097 5.92382 14.4855 7.48848 14.5344 9.45323C14.5657 9.50198 14.6062 9.56273 14.6557 9.63486C14.8034 9.84993 15.0044 10.1273 15.2104 10.4061C15.4153 10.6835 15.6207 10.9562 15.7752 11.16C15.8524 11.2618 15.9167 11.3462 15.9616 11.405L16.0136 11.473L16.0314 11.4962L16.5241 12.1377L14.6323 13.5591V14.229C14.6323 15.614 13.5037 16.7281 12.1223 16.7281H11.7124V19.8002H3.35668V14.826C2.20075 13.7568 1.2002 12.3238 1.2002 10.0305C1.2002 7.78277 2.02339 6.05202 3.31994 4.89057ZM14.274 11.827C14.1639 11.6804 14.0438 11.5197 13.9236 11.3569C13.7145 11.0739 13.5004 10.7789 13.3368 10.5406C13.2559 10.4229 13.1805 10.309 13.1227 10.213C13.0946 10.1663 13.0625 10.1104 13.0349 10.0532C13.0213 10.0249 13.0024 9.98339 12.9854 9.93414C12.9738 9.90043 12.9368 9.79189 12.9368 9.65127C12.9368 8.03019 12.3305 6.83841 11.4374 6.04385C10.5313 5.23769 9.28266 4.8002 7.95439 4.8002C6.62302 4.8002 5.33372 5.23471 4.38751 6.08232C3.45601 6.91677 2.8002 8.20119 2.8002 10.0305C2.8002 11.8793 3.61958 12.9473 4.67948 13.8624L4.95668 14.1017V18.2002H10.1124V15.1281H12.1223C12.6297 15.1281 13.0323 14.7208 13.0323 14.229V12.7599L14.274 11.827ZM21.2002 12.6722C21.2022 11.5407 20.7321 10.3724 19.7187 9.3654L20.8465 8.23044C22.1327 9.50852 22.803 11.0757 22.8002 12.6749C22.7974 14.2736 22.1222 15.8348 20.8465 17.1024L19.7187 15.9675C20.7236 14.969 21.1982 13.8042 21.2002 12.6722ZM17.3523 14.128C18.1437 13.3417 18.1738 12.059 17.3523 11.2428L18.4801 10.1078C19.9487 11.5672 19.8834 13.8686 18.4801 15.263L17.3523 14.128Z" fill="#404040"/>
</g>
</svg>
