<?xml version="1.0" encoding="UTF-8"?>
<svg width="281px" height="75px" viewBox="0 0 281 75" version="1.1" xmlns="http://www.w3.org/2000/svg" xmlns:xlink="http://www.w3.org/1999/xlink">
    <title>698AD665-E699-453C-A3DE-DE324458C345@1.00x</title>
    <g id="Logos" stroke="none" stroke-width="1" fill="none" fill-rule="evenodd">
        <g transform="translate(-759.000000, -91.000000)" fill="#182B37" id="Group">
            <g transform="translate(759.000000, 91.000000)" id="Fill-1">
                <path d="M246.496,32.971 C243.909,32.971 241.969,33.779 240.676,35.396 L240.615,35.473 C239.78,36.549 239.223,37.944 238.944,39.659 L253.215,39.659 C252.993,37.73 252.473,36.235 251.652,35.167 C250.529,33.703 248.811,32.971 246.496,32.971 Z M183.342,33.073 C180.891,33.073 179.027,33.95 177.751,35.703 C176.475,37.455 175.837,39.71 175.837,42.467 C175.837,45.225 176.458,47.479 177.7,49.231 C178.942,50.984 180.755,51.861 183.138,51.861 C185.588,51.861 187.4,51.019 188.574,49.334 C189.749,47.649 190.336,45.36 190.336,42.467 C190.336,39.574 189.758,37.285 188.601,35.6 C187.443,33.915 185.69,33.073 183.342,33.073 Z M151.433,33.073 C149.05,33.073 147.203,33.924 145.893,35.626 C144.583,37.328 143.928,39.608 143.928,42.467 C143.928,45.225 144.557,47.479 145.816,49.231 C147.076,50.984 148.914,51.861 151.33,51.861 C153.747,51.861 155.534,51.011 156.691,49.309 C157.849,47.606 158.427,45.326 158.427,42.467 C158.427,39.574 157.849,37.285 156.691,35.6 C155.534,33.915 153.781,33.073 151.433,33.073 Z M44.863,37.35 C44.145,39.617 43.219,41.808 42.101,43.902 L41.72,44.597 L53.271,55.309 C53.953,55.939 54.798,56.25 55.639,56.25 C56.645,56.25 57.65,55.805 58.363,54.933 C59.626,53.394 59.523,51.089 58.16,49.684 L58.009,49.536 L44.863,37.35 Z M41.071,15.75 L29.086,15.75 C27.067,15.75 25.432,17.457 25.432,19.566 C25.432,21.607 26.963,23.274 28.892,23.379 L29.086,23.385 L33.762,23.385 L33.762,26.94 C33.762,31.924 32.252,36.659 29.4,40.635 C26.635,44.482 22.706,47.376 18.333,48.779 C16.402,49.399 15.319,51.535 15.913,53.553 C16.396,55.192 17.843,56.25 19.406,56.25 C19.76,56.25 20.123,56.196 20.48,56.079 C26.319,54.204 31.562,50.348 35.245,45.22 C38.948,40.063 40.954,33.951 41.066,27.509 L41.071,26.94 L41.071,15.75 Z M216.68,27.916 C221.003,27.916 223.896,29.278 225.359,32.001 C226.823,34.724 227.555,37.685 227.555,40.885 L227.555,56.252 L221.734,56.252 L221.734,42.824 L221.729,42.325 C221.677,39.855 221.228,37.767 220.382,36.06 C219.479,34.239 217.701,33.329 215.046,33.329 C213.072,33.329 211.455,34 210.196,35.345 C208.937,36.689 208.308,38.91 208.308,42.008 L208.308,56.252 L202.487,56.252 L202.487,28.683 L207.644,28.683 L207.644,31.859 L207.665,31.832 C208.411,30.937 209.297,30.176 210.324,29.55 C212.11,28.461 214.229,27.916 216.68,27.916 Z M129.577,18.75 C131.309,18.75 132.196,19.74 132.236,21.72 L132.236,56.252 L126.824,56.252 L126.824,31.899 L115.235,56.252 L112.835,56.252 L101.246,31.899 L101.246,56.252 L95.834,56.252 L95.835,21.512 C95.87,19.671 96.782,18.75 98.572,18.75 C100.058,18.75 101.24,19.739 102.12,21.717 L114.061,46.348 L125.946,21.734 C126.757,19.745 127.968,18.75 129.577,18.75 Z M272.529,21.72 L272.585,28.683 L280.753,28.683 L280.753,33.226 L272.585,33.226 L272.585,45.684 C272.585,46.807 272.618,47.675 272.687,48.287 C272.755,48.9 272.908,49.41 273.146,49.819 C273.725,50.806 274.636,51.394 275.878,51.58 C277.12,51.768 278.745,51.708 280.753,51.401 L280.753,56.252 C277.826,56.83 275.197,56.864 272.865,56.354 C270.534,55.844 268.875,54.686 267.888,52.882 C267.411,51.963 267.113,51.027 266.994,50.074 L266.982,49.981 C266.872,49.04 266.834,47.812 266.866,46.296 L266.866,33.226 L261.71,33.226 L261.71,28.683 L266.866,28.683 L266.812,21.72 L272.529,21.72 Z M246.292,27.916 C249.082,27.916 251.482,28.572 253.49,29.882 C255.498,31.192 256.987,33.064 257.957,35.498 C258.928,37.932 259.311,40.782 259.106,44.05 L238.805,44.05 L238.809,44.091 C239.01,46.242 239.633,47.955 240.676,49.231 C241.969,50.814 243.841,51.605 246.292,51.605 C247.857,51.605 249.219,51.249 250.376,50.534 C251.533,49.819 252.436,48.798 253.082,47.471 L258.749,49.206 L258.577,49.589 C257.521,51.857 255.962,53.644 253.898,54.95 C251.721,56.328 249.287,57.018 246.598,57.018 C243.841,57.018 241.407,56.414 239.297,55.205 C237.187,53.997 235.553,52.312 234.396,50.151 C233.238,47.989 232.66,45.514 232.66,42.723 C232.66,39.762 233.23,37.158 234.37,34.911 C235.511,32.665 237.11,30.938 239.169,29.729 C241.229,28.521 243.603,27.916 246.292,27.916 Z M150.667,27.916 C152.811,27.916 154.675,28.385 156.257,29.321 L156.364,29.385 C157.433,30.035 158.339,30.863 159.083,31.869 L159.091,31.88 L159.091,28.683 L164.145,28.683 L164.145,56.252 L159.091,56.252 L159.091,52.994 L159.021,53.086 C158.248,54.098 157.292,54.932 156.155,55.588 C154.504,56.541 152.624,57.018 150.514,57.018 C147.961,57.018 145.731,56.388 143.825,55.129 C141.919,53.869 140.447,52.134 139.409,49.921 C138.371,47.709 137.852,45.225 137.852,42.467 C137.852,39.676 138.379,37.174 139.435,34.962 C140.49,32.75 141.979,31.022 143.901,29.78 C145.825,28.538 148.08,27.916 150.667,27.916 Z M182.474,27.916 C185.026,27.916 187.196,28.546 188.983,29.806 L189.092,29.883 C189.525,30.196 189.933,30.537 190.315,30.905 L190.336,30.925 L190.336,28.683 L195.391,28.683 L195.391,57.273 L195.387,57.735 C195.365,59.102 195.247,60.275 195.033,61.255 C194.454,63.944 193.084,65.952 190.923,67.279 C188.762,68.607 186.048,69.27 182.78,69.27 C180.499,69.27 178.372,68.743 176.398,67.688 C174.424,66.633 172.909,65.152 171.854,63.246 L177.113,60.592 L177.254,60.85 C177.789,61.778 178.525,62.492 179.461,62.991 C180.482,63.536 181.605,63.808 182.831,63.808 C184.227,63.808 185.443,63.561 186.481,63.067 C187.52,62.574 188.311,61.843 188.855,60.872 L188.902,60.786 C189.415,59.83 189.654,58.643 189.621,57.222 L189.621,54.612 L189.568,54.654 C189.362,54.819 189.15,54.977 188.932,55.129 C187.111,56.388 184.907,57.018 182.32,57.018 C179.802,57.018 177.598,56.388 175.709,55.129 C173.819,53.869 172.356,52.134 171.318,49.921 C170.28,47.709 169.761,45.225 169.761,42.467 C169.761,39.676 170.288,37.174 171.344,34.962 C172.398,32.75 173.879,31.022 175.785,29.78 C177.691,28.538 179.921,27.916 182.474,27.916 Z M37.5,0 C58.212,0 75,16.79 75,37.5 C75,58.211 58.212,75 37.5,75 C16.79,75 3.12638804e-13,58.211 3.12638804e-13,37.5 C3.12638804e-13,16.79 16.79,0 37.5,0 L37.5,0 Z"></path>
            </g>
        </g>
    </g>
</svg>