<?xml version="1.0" encoding="UTF-8"?>
<svg width="75px" height="75px" viewBox="0 0 75 75" version="1.1" xmlns="http://www.w3.org/2000/svg" xmlns:xlink="http://www.w3.org/1999/xlink">
    <title>FEA4ABAA-E4FB-4658-8082-D9AA698A147E@1.00x</title>
    <g id="Logos" stroke="none" stroke-width="1" fill="none" fill-rule="evenodd">
        <g transform="translate(-759.000000, -323.000000)" fill="#182B37" id="Group">
            <g transform="translate(759.000000, 323.000000)" id="Fill-1">
                <path d="M44.863,37.35 C44.145,39.617 43.219,41.808 42.101,43.902 L41.72,44.597 L53.271,55.309 C53.953,55.939 54.798,56.25 55.639,56.25 C56.645,56.25 57.65,55.805 58.363,54.933 C59.626,53.394 59.523,51.089 58.16,49.684 L58.009,49.536 L44.863,37.35 Z M41.071,15.75 L29.086,15.75 C27.067,15.75 25.432,17.457 25.432,19.566 C25.432,21.607 26.963,23.274 28.892,23.379 L29.086,23.385 L33.762,23.385 L33.762,26.94 C33.762,31.924 32.252,36.659 29.4,40.635 C26.635,44.482 22.706,47.376 18.333,48.779 C16.402,49.399 15.319,51.535 15.913,53.553 C16.396,55.192 17.843,56.25 19.406,56.25 C19.76,56.25 20.123,56.196 20.48,56.079 C26.319,54.204 31.562,50.348 35.245,45.22 C38.948,40.063 40.954,33.951 41.066,27.509 L41.071,26.94 L41.071,15.75 Z M37.5,0 C58.212,0 75,16.79 75,37.5 C75,58.211 58.212,75 37.5,75 C16.79,75 0,58.211 0,37.5 C0,16.79 16.79,0 37.5,0 L37.5,0 Z"></path>
            </g>
        </g>
    </g>
</svg>