<svg width="32" height="32" viewBox="0 0 32 32" fill="none" xmlns="http://www.w3.org/2000/svg">
<path d="M22.0932 12.371C22.6356 11.8286 22.6356 10.9492 22.0932 10.4068C21.5508 9.8644 20.6714 9.8644 20.129 10.4068L16.25 14.2858L12.371 10.4068C11.8286 9.8644 10.9492 9.8644 10.4068 10.4068C9.8644 10.9492 9.8644 11.8286 10.4068 12.371L14.2858 16.25L10.4068 20.129C9.8644 20.6714 9.8644 21.5508 10.4068 22.0932C10.9492 22.6356 11.8286 22.6356 12.371 22.0932L16.25 18.2142L20.129 22.0932C20.6714 22.6356 21.5508 22.6356 22.0932 22.0932C22.6356 21.5508 22.6356 20.6714 22.0932 20.129L18.2142 16.25L22.0932 12.371Z" fill="#404040"/>
</svg>
