<svg viewBox="0 0 24 24" version="1.1" xmlns="http://www.w3.org/2000/svg">
  <path stroke="none" fill="currentColor" fill-rule="evenodd" d="M11.9934711,4 C15.9765257,4 19.2156933,7.15700285 19.2156933,11.0643893 C19.2156933,13.4648999 17.9809507,15.6445691 16.0140808,16.9341918 L15.91,16.999 L19.9990847,16.9951204 L20.0009158,18.9951195 L13.6713982,19.0009162 L13.6713982,15.9023657 L14.2494516,15.6333363 C16.0499515,14.7953731 17.2156933,13.0299437 17.2156933,11.0643893 C17.2156933,8.2732363 14.8832933,6 11.9934711,6 C9.10364883,6 6.77124886,8.2732363 6.77124886,11.0643893 C6.77124886,12.9594215 7.85487963,14.6681968 9.54547118,15.5392418 L9.75122507,15.6397044 L10.3318861,15.9079197 L10.3318861,19.0009162 L3.99908474,18.9951195 L4.00091526,16.9951204 L8.075,16.999 L7.98794722,16.9440711 C6.08577996,15.7036333 4.86420905,13.6319233 4.7763316,11.330878 L4.77124886,11.0643893 C4.77124886,7.15700285 8.01041645,4 11.9934711,4 Z"></path>
</svg>