<svg width="32" height="32" viewBox="0 0 32 32" fill="none" xmlns="http://www.w3.org/2000/svg">
<path fill-rule="evenodd" clip-rule="evenodd" d="M17.9783 3.14397C18.4511 3.6843 18.3964 4.50559 17.8561 4.97838L16.9831 5.7422C22.7636 6.24038 27.3 11.0904 27.3 17C27.3 23.2408 22.2408 28.3 16 28.3C9.75918 28.3 4.7 23.2408 4.7 17C4.7 15.611 4.95122 14.2777 5.41185 13.045C5.66317 12.3724 6.41211 12.031 7.08465 12.2823C7.7572 12.5336 8.09868 13.2825 7.84736 13.9551C7.49386 14.9011 7.3 15.9264 7.3 17C7.3 21.8049 11.1951 25.7 16 25.7C20.8049 25.7 24.7 21.8049 24.7 17C24.7 12.1952 20.8049 8.30003 16 8.30003C15.9631 8.30003 15.9263 8.30033 15.8895 8.30092L17.8561 10.0217C18.3964 10.4945 18.4511 11.3158 17.9783 11.8561C17.5056 12.3964 16.6843 12.4512 16.1439 11.9784L11.0258 7.50003L16.1439 3.02168C16.6843 2.54889 17.5056 2.60365 17.9783 3.14397Z" fill="#404040"/>
</svg>
