<svg width="32" height="32" viewBox="0 0 32 32" fill="none" xmlns="http://www.w3.org/2000/svg">
<path d="M16.8483 14.1515C16.3797 13.6829 15.6199 13.6829 15.1513 14.1515L12.1513 17.1515C11.6826 17.6201 11.6826 18.3799 12.1513 18.8486C12.6199 19.3172 13.3797 19.3172 13.8483 18.8486L14.7998 17.8971V22C14.7998 22.6628 15.3371 23.2 15.9998 23.2C16.6625 23.2 17.1998 22.6628 17.1998 22V17.8971L18.1513 18.8486C18.6199 19.3172 19.3797 19.3172 19.8483 18.8486C20.317 18.3799 20.317 17.6201 19.8483 17.1515L16.8483 14.1515Z" fill="#404040"/>
<path fill-rule="evenodd" clip-rule="evenodd" d="M6.7998 6.00005C6.7998 4.78502 7.78478 3.80005 8.9998 3.80005H17.5856C18.1691 3.80005 18.7286 4.03183 19.1412 4.44441L24.5554 9.85863C24.968 10.2712 25.1998 10.8308 25.1998 11.4143V25C25.1998 26.2151 24.2148 27.2001 22.9998 27.2001H8.9998C7.78478 27.2001 6.7998 26.2151 6.7998 25V6.00005ZM9.1998 6.20005V24.8H22.7998V12.2001H18.9998C17.7848 12.2001 16.7998 11.2151 16.7998 10.0001V6.20005H9.1998ZM19.1998 7.8971L21.1028 9.80006H19.1998V7.8971Z" fill="#404040"/>
</svg>
