<svg viewBox="0 0 20 20" version="1.1" xmlns="http://www.w3.org/2000/svg">
  <path transform="translate(-2, -2)" stroke="none" fill="currentColor" d="M16.8104786,4.79698606 C20.0535057,7.82115775 20.3903355,12.8405528 17.6956695,16.2670938 L21.5386863,20.0012322 L20.1450672,21.4357446 L16.2823531,17.6835765 C13.0494691,20.2353695 8.31635213,20.1206518 5.21650646,17.229999 C1.79742791,14.0416567 1.60864373,8.63558502 4.79698606,5.21650646 C7.98532839,1.79742791 13.3914,1.60864373 16.8104786,4.79698606 Z M6.25969346,6.58050318 C3.82466572,9.19175075 3.96925562,13.3322638 6.58050318,15.7672916 C9.19175075,18.2023193 13.3322638,18.0577294 15.7672916,15.4464819 C18.2023193,12.8352343 18.0577294,8.69472121 15.4464819,6.25969346 C12.8352343,3.82466572 8.69472121,3.96925562 6.25969346,6.58050318 Z M14.2534925,7.51349252 L15.5134925,8.72336907 L9.48349252,14.5134925 L6.51349252,11.6616407 L7.77349252,10.4517641 L9.48349252,12.0937394 L14.2534925,7.51349252 Z"></path>
</svg>