<svg width="32" height="32" viewBox="0 0 32 32" fill="none" xmlns="http://www.w3.org/2000/svg">
<path d="M14.84 16.096C14.6587 16.2773 14.568 16.5067 14.568 16.784V18C14.568 18.2773 14.6587 18.512 14.84 18.704C15.0213 18.8853 15.2507 18.976 15.528 18.976C15.8053 18.976 16.0347 18.8853 16.216 18.704C16.3973 18.512 16.488 18.2773 16.488 18V17.408C16.488 17.3867 16.4933 17.3707 16.504 17.36L16.568 17.328C17.0267 17.2533 17.448 17.1307 17.832 16.96C18.2267 16.7787 18.568 16.544 18.856 16.256C19.1547 15.9573 19.384 15.6053 19.544 15.2C19.704 14.784 19.784 14.3093 19.784 13.776C19.784 13.0613 19.608 12.4213 19.256 11.856C18.904 11.2907 18.4293 10.8427 17.832 10.512C17.2453 10.1707 16.584 10 15.848 10C15.2613 10 14.7067 10.112 14.184 10.336C13.672 10.5493 13.224 10.8533 12.84 11.248C12.616 11.472 12.5147 11.7173 12.536 11.984C12.5573 12.2507 12.696 12.48 12.952 12.672C13.1973 12.8533 13.4373 12.912 13.672 12.848C13.9173 12.7733 14.1253 12.6613 14.296 12.512C14.5093 12.3307 14.744 12.1867 15 12.08C15.2667 11.9733 15.5493 11.92 15.848 11.92C16.232 11.92 16.5733 12 16.872 12.16C17.1813 12.32 17.4213 12.5387 17.592 12.816C17.7733 13.0933 17.864 13.4133 17.864 13.776C17.864 14.2667 17.7573 14.6613 17.544 14.96C17.3413 15.2587 17.064 15.4773 16.712 15.616C16.36 15.744 15.9653 15.808 15.528 15.808C15.2507 15.808 15.0213 15.904 14.84 16.096Z" fill="#404040"/>
<path d="M14.728 21.6C14.8987 21.76 15.1387 21.84 15.448 21.84H15.656C15.9653 21.84 16.2 21.76 16.36 21.6C16.5307 21.4293 16.616 21.1893 16.616 20.88V20.608C16.616 20.2987 16.5307 20.064 16.36 19.904C16.2 19.7333 15.9653 19.648 15.656 19.648H15.448C15.1387 19.648 14.8987 19.7333 14.728 19.904C14.568 20.064 14.488 20.2987 14.488 20.608V20.88C14.488 21.1893 14.568 21.4293 14.728 21.6Z" fill="#404040"/>
<path fill-rule="evenodd" clip-rule="evenodd" d="M15.9998 4.79999C9.81422 4.79999 4.7998 9.8144 4.7998 16C4.7998 22.1856 9.81422 27.2 15.9998 27.2C22.1854 27.2 27.1998 22.1856 27.1998 16C27.1998 9.8144 22.1854 4.79999 15.9998 4.79999ZM7.1998 16C7.1998 11.1399 11.1397 7.19999 15.9998 7.19999C20.8599 7.19999 24.7998 11.1399 24.7998 16C24.7998 20.8601 20.8599 24.8 15.9998 24.8C11.1397 24.8 7.1998 20.8601 7.1998 16Z" fill="#404040"/>
</svg>
