<svg viewBox="0 0 24 24" version="1.1" xmlns="http://www.w3.org/2000/svg">
<g stroke="none" fill="currentColor" fill-rule="evenodd">
  <path d="M17.5107498,20.7318058 L21.9695147,9.58489371 C22.0569949,9.36619319 21.9506198,9.11798467 21.7319193,9.03050446 C21.6302377,8.98983185 21.516807,8.98983185 21.4151254,9.03050446 L10.2682133,13.4892693 C10.0495128,13.5767495 9.9431377,13.824958 10.0306179,14.0436586 C10.0695603,14.1410146 10.1430022,14.2206132 10.2369154,14.2672503 L14.5773281,16.422691 L16.7327688,20.7631038 C16.8375344,20.9740703 17.0934858,21.0601632 17.3044524,20.9553976 C17.3983656,20.9087605 17.4718074,20.8291619 17.5107498,20.7318058 Z M18.5310275,11.6916335 L15.2147715,15.0078895 L13.1482814,14.058592 L18.5310275,11.6916335 Z M17.0124559,17.9176047 L16.0627045,15.8515685 L19.3768335,12.5374395 L17.0124559,17.9176047 Z"></path>
  <path d="M15.7777776,3 C16.9468597,3 17.9126232,3.82344045 17.9943926,4.85771349 L17.9999998,5 L17.9989998,7 L15.9989998,7 L15.9999998,5 L3.99999978,5 L3.99999978,19 L11.9999998,19 L11.9999998,21 L4.222222,21 C3.05313987,21 2.08737638,20.1765595 2.00560693,19.1422865 L1.99999978,19 L1.99999978,5 C1.99999978,3.94782609 2.91493362,3.07863894 4.06412587,3.00504644 L4.222222,3 L15.7777776,3 Z M8.99999997,11 L8.99999997,13 L5.99999997,13 L5.99999997,11 L8.99999997,11 Z M14,7 L14,9 L5.99999997,9 L5.99999997,7 L14,7 Z"></path>
</g>
</svg>