
<svg width="32px" height="32px" viewBox="0 0 32 32" version="1.1" xmlns="http://www.w3.org/2000/svg" xmlns:xlink="http://www.w3.org/1999/xlink">
    <g id="Page-1" stroke="none" stroke-width="1" fill="none" fill-rule="evenodd">
        <g id="Group" fill="#404040">
            <path d="M16.0204252,7 C24.0384252,7 28.9304252,12.139 30.7244252,15.023 C31.2064252,15.798 31.1194252,16.762 30.5814252,17.444 C28.4194252,20.181 23.1574252,25.4 16.0204252,25.4 C8.88342521,25.4 3.62142521,20.181 1.45942521,17.444 C0.921425214,16.762 0.833425214,15.798 1.31542521,15.023 C3.10942521,12.139 8.00242521,7 16.0204252,7 Z M16.0204252,9.9 C12.5404252,9.9 9.72042521,12.721 9.72042521,16.2 C9.72042521,19.679 12.5404252,22.5 16.0204252,22.5 C19.4994252,22.5 22.3204252,19.679 22.3204252,16.2 C22.3204252,12.721 19.4994252,9.9 16.0204252,9.9 Z M23.1194252,11.169 C24.1274252,12.589 24.7204252,14.326 24.7204252,16.2 C24.7204252,17.84 24.2664252,19.373 23.4774252,20.683 C25.7304252,19.262 27.4834252,17.463 28.5734252,16.112 C27.6284252,14.66 25.8094252,12.619 23.1194252,11.169 Z M8.92142521,11.169 C6.23142521,12.619 4.41142521,14.66 3.46742521,16.112 C4.55742521,17.463 6.31042521,19.262 8.56242521,20.683 C7.77342521,19.373 7.32042521,17.839 7.32042521,16.2 C7.32042521,14.326 7.91342521,12.59 8.92142521,11.169 Z M18.1063252,13.2016 C18.5433252,12.7026 19.3003252,12.6526 19.7993252,13.0886 C20.2973252,13.5256 20.3483252,14.2836 19.9123252,14.7826 L15.5673252,19.7476 L12.1603252,16.3406 C11.6913252,15.8716 11.6913252,15.1126 12.1603252,14.6436 C12.6293252,14.1746 13.3893252,14.1746 13.8573252,14.6436 L15.4503252,16.2366 Z" id="Combined-Shape"></path>
        </g>
    </g>
</svg>