<svg viewBox="0 0 24 24" version="1.1" xmlns="http://www.w3.org/2000/svg">
  <path stroke="none" fill="currentColor" fill-rule="evenodd" d="M13,6 C16.8659932,6 20,9.13400675 20,13 C20,14.5696649 19.4833557,16.018661 18.6108406,17.186215 L21.7334434,20.2288456 L20.3398243,21.6633581 L17.1981868,18.6018741 C16.0285729,19.4798151 14.5750343,20 13,20 C9.13400675,20 6,16.8659932 6,13 C6,11.5126081 6.46390447,10.1335669 7.2549186,8.99967126 L2,9 L2,7 L9.39232152,7.00005536 C10.4458844,6.3652014 11.6802935,6 13,6 Z M13,8 C10.2385763,8 8,10.2385763 8,13 C8,15.7614237 10.2385763,18 13,18 C15.7614237,18 18,15.7614237 18,13 C18,10.2385763 15.7614237,8 13,8 Z M15.4946011,10.5 L16.7546011,11.7098765 L11.97,16.2712246 L9,13.4193728 L10.26,12.2094962 L11.97,13.8514715 L15.4946011,10.5 Z M17,3 L17,5 L5,5 L5,3 L17,3 Z M4,3 L4,5 L2,5 L2,3 L4,3 Z"></path>
</svg>