<svg width="32" height="32" viewBox="0 0 32 32" fill="none" xmlns="http://www.w3.org/2000/svg">
<path fill-rule="evenodd" clip-rule="evenodd" d="M10.809 4.79999C10.91 3.67869 11.8524 2.79999 13 2.79999H19C20.1476 2.79999 21.09 3.67869 21.191 4.79999H27C27.6627 4.79999 28.2 5.33725 28.2 5.99999C28.2 6.66273 27.6627 7.19999 27 7.19999H26.2V26C26.2 27.7673 24.7673 29.2 23 29.2H9C7.23269 29.2 5.8 27.7673 5.8 26V7.19999H5C4.33726 7.19999 3.8 6.66273 3.8 5.99999C3.8 5.33725 4.33726 4.79999 5 4.79999H10.809ZM8.2 7.19999V26C8.2 26.4418 8.55818 26.8 9 26.8H23C23.4418 26.8 23.8 26.4418 23.8 26V7.19999H8.2ZM13 9.79999C13.6627 9.79999 14.2 10.3372 14.2 11V23C14.2 23.6627 13.6627 24.2 13 24.2C12.3373 24.2 11.8 23.6627 11.8 23V11C11.8 10.3372 12.3373 9.79999 13 9.79999ZM19 9.79999C19.6627 9.79999 20.2 10.3372 20.2 11V23C20.2 23.6627 19.6627 24.2 19 24.2C18.3373 24.2 17.8 23.6627 17.8 23V11C17.8 10.3372 18.3373 9.79999 19 9.79999Z" fill="#404040"/>
</svg>
