<svg width="32" height="32" viewBox="0 0 32 32" fill="none" xmlns="http://www.w3.org/2000/svg">
<path fill-rule="evenodd" clip-rule="evenodd" d="M15 8C15 7.44772 15.4477 7 16 7C18.7614 7 21 9.23858 21 12C21 12.5523 20.5523 13 20 13C19.4477 13 19 12.5523 19 12C19 10.3431 17.6569 9 16 9C15.4477 9 15 8.55228 15 8Z" fill="#404040"/>
<path fill-rule="evenodd" clip-rule="evenodd" d="M10 20.1009V25.2C10 27.2987 11.7013 29 13.8 29H18.2C20.2987 29 22 27.2987 22 25.2V20.1009C22 19.7091 22.116 19.326 22.3333 19L23.7021 16.9469C24.5484 15.6774 25 14.1858 25 12.6601V12C25 7.02944 20.9706 3 16 3C11.0294 3 7 7.02944 7 12V12.6601C7 14.1858 7.45162 15.6774 8.29793 16.9469L9.66667 19C9.88402 19.326 10 19.7091 10 20.1009ZM12.4 20.8V20.1009C12.4 19.2353 12.1438 18.389 11.6636 17.6687L10.2949 15.6156C9.71136 14.7404 9.4 13.712 9.4 12.6601V12C9.4 8.35492 12.3549 5.4 16 5.4C19.6451 5.4 22.6 8.35492 22.6 12V12.6601C22.6 13.712 22.2886 14.7404 21.7051 15.6156L20.3364 17.6687C19.8562 18.389 19.6 19.2353 19.6 20.1009V20.8H12.4ZM12.4 23.2V25.2C12.4 25.9732 13.0268 26.6 13.8 26.6H18.2C18.9732 26.6 19.6 25.9732 19.6 25.2V23.2H12.4Z" fill="#404040"/>
</svg>
