<svg viewBox="0 0 24 24" version="1.1" xmlns="http://www.w3.org/2000/svg">
  <path stroke="none" fill="currentColor" fill-rule="evenodd" d="M21,5 C22.1,5 23,5.9 23,7 L23,10 L21,9.999 L21,7 L7,7 L7,21 L10,21 L10,23 L21.0253021,22.9998411 C21.0168801,22.9999469 21.0084459,23 21,23 L7,23 C5.9,23 5,22.1 5,21 L5,7 C5,5.9 5.9,5 7,5 L21,5 Z M14.5,8 C18.0898509,8 21,10.9101491 21,14.5 C21,15.994241 20.495799,17.3707195 19.6482483,18.4685843 L22.1737828,20.9954387 L20.7595692,22.4096523 L18.197094,19.846882 C17.1475152,20.573985 15.8735082,21 14.5,21 C10.9101491,21 8,18.0898509 8,14.5 C8,10.9101491 10.9101491,8 14.5,8 Z M19,1 L19,3 L3,3 L3,19 L1,19 L1,3 C1,1.9 1.9,1 3,1 L19,1 Z M14.5,10 C12.0147186,10 10,12.0147186 10,14.5 C10,16.9852814 12.0147186,19 14.5,19 C16.9852814,19 19,16.9852814 19,14.5 C19,12.0147186 16.9852814,10 14.5,10 Z M16.5620563,12 L17.9720563,13.41 L13.6027844,17.8602093 L11,15.2951709 L12.41,13.8851709 L13.5927844,15.0302093 L16.5620563,12 Z"></path>
</svg>