<svg width="32" height="32" viewBox="0 0 32 32" fill="none" xmlns="http://www.w3.org/2000/svg">
<path fill-rule="evenodd" clip-rule="evenodd" d="M10.809 4.79999C10.9101 3.67869 11.8524 2.79999 13 2.79999H19C20.1477 2.79999 21.09 3.67869 21.1911 4.79999H27C27.6628 4.79999 28.2001 5.33725 28.2001 5.99999C28.2001 6.66273 27.6628 7.19999 27 7.19999H26.2001V26C26.2001 27.7673 24.7674 29.2 23 29.2H9.00005C7.23274 29.2 5.80005 27.7673 5.80005 26V7.19999H5.00005C4.33731 7.19999 3.80005 6.66273 3.80005 5.99999C3.80005 5.33725 4.33731 4.79999 5.00005 4.79999H10.809ZM8.20005 7.19999V26C8.20005 26.4418 8.55822 26.8 9.00005 26.8H23C23.4419 26.8 23.8 26.4418 23.8 26V7.19999H8.20005ZM11.6515 12.1515C12.1201 11.6828 12.8799 11.6828 13.3486 12.1515L16 14.8029L18.6515 12.1515C19.1201 11.6828 19.8799 11.6828 20.3486 12.1515C20.8172 12.6201 20.8172 13.3799 20.3486 13.8485L17.6971 16.5L20.3486 19.1515C20.8172 19.6201 20.8172 20.3799 20.3486 20.8485C19.8799 21.3171 19.1201 21.3171 18.6515 20.8485L16 18.197L13.3486 20.8485C12.8799 21.3171 12.1201 21.3171 11.6515 20.8485C11.1829 20.3799 11.1829 19.6201 11.6515 19.1515L14.303 16.5L11.6515 13.8485C11.1829 13.3799 11.1829 12.6201 11.6515 12.1515Z" fill="#404040"/>
</svg>
