<svg viewBox="0 0 24 24" version="1.1" xmlns="http://www.w3.org/2000/svg">
  <path transform="translate(-4, 11) rotate(-45.000000)" stroke="none" fill="currentColor" fill-rule="evenodd" d="M6.0914926,4.59543738 L21.9920176,11.4099481 C22.2458325,11.5187259 22.3634083,11.8126654 22.2546305,12.0664803 C22.2040558,12.1844877 22.110025,12.2785185 21.9920176,12.3290931 L6.0914926,19.1436038 C5.8376777,19.2523816 5.54373824,19.1348059 5.43496043,18.880991 C5.38653724,18.7680035 5.38143346,18.6411374 5.42062396,18.5246253 L7.6591625,11.8695206 L5.42062396,5.21441588 C5.33258646,4.95268318 5.47339425,4.6691384 5.73512696,4.58110091 C5.85163907,4.54191041 5.97850516,4.54701419 6.0914926,4.59543738 Z M17.2113971,12.5120098 L9.25139712,12.5120098 L7.91035346,16.4982349 L17.2113971,12.5120098 Z M7.90935346,7.23923489 L9.25039712,11.2260098 L17.2113971,11.2260098 L7.90935346,7.23923489 Z"></path>
</svg>
