<svg viewBox="0 0 24 24" version="1.1" xmlns="http://www.w3.org/2000/svg">
  <path stroke="none" fill="currentColor" fill-rule="evenodd" d="M11.88,9.14 C13.16,9.2 13.49,10.29 13.51,10.8 L15.3,10.8 C15.22,8.82 13.81,7.61 11.85,7.61 C9.64,7.61 8,9 8,12.14 C8,14.08 8.93,16.38 11.84,16.38 C14.06,16.38 15.25,14.73 15.28,13.43 L13.49,13.43 C13.46,14.02 13.04,14.81 11.86,14.87 C10.55,14.83 10,13.81 10,12.14 C10,9.25 11.28,9.16 11.88,9.14 Z M12,2 C6.48,2 2,6.48 2,12 C2,17.52 6.48,22 12,22 C17.52,22 22,17.52 22,12 C22,6.48 17.52,2 12,2 Z M12,20 C7.59,20 4,16.41 4,12 C4,7.59 7.59,4 12,4 C16.41,4 20,7.59 20,12 C20,16.41 16.41,20 12,20 Z"></path>
</svg>