<svg width="32" height="32" viewBox="0 0 32 32" fill="none" xmlns="http://www.w3.org/2000/svg">
<path fill-rule="evenodd" clip-rule="evenodd" d="M14.9998 3.79999C9.3665 3.79999 4.7998 8.36668 4.7998 14C4.7998 19.6333 9.3665 24.2 14.9998 24.2C16.7608 24.2 18.4176 23.7537 19.8632 22.9681L24.3905 28.8536C24.8619 29.4664 25.7409 29.5811 26.3538 29.1097C26.9666 28.6382 27.0813 27.7592 26.6098 27.1464L22.1174 21.3062C24.0189 19.4534 25.1998 16.8646 25.1998 14C25.1998 8.36668 20.6331 3.79999 14.9998 3.79999ZM7.1998 14C7.1998 9.69217 10.692 6.19999 14.9998 6.19999C19.3076 6.19999 22.7998 9.69217 22.7998 14C22.7998 18.3078 19.3076 21.8 14.9998 21.8C10.692 21.8 7.1998 18.3078 7.1998 14Z" fill="#404040"/>
<path fill-rule="evenodd" clip-rule="evenodd" d="M15 12C15.5523 12 16.1 12.4477 16.1 13V18C16.1 18.5523 15.5523 19 15 19C14.4477 19 13.9 18.5523 13.9 18V13C13.9 12.4477 14.4477 12 15 12Z" fill="#404040"/>
<path d="M16.1998 10C16.1998 10.6627 15.6625 11.2 14.9998 11.2C14.3371 11.2 13.7998 10.6627 13.7998 10C13.7998 9.33726 14.3371 8.8 14.9998 8.8C15.6625 8.8 16.1998 9.33726 16.1998 10Z" fill="#404040"/>
</svg>
