<svg viewBox="0 0 14 20" version="1.1" xmlns="http://www.w3.org/2000/svg">
  <path fill="currentColor" transform="translate(-4.8, -2)" d="M12,2 C15.7854517,2 18.8690987,5.00478338 18.995941,8.75935025 L19,9 C19,10.3086963 18.6443272,11.592788 17.9710085,12.7149859 L17.0289915,14.2850141 C16.7109227,14.8151289 16.4637372,15.3813705 16.2914436,15.9692668 C16.2093303,16.249452 16.1335026,17.2855532 16.0639605,19.0775705 C16.0222829,20.1511485 15.1398515,21 14.0654648,21 L13.729642,21.0010556 C13.3823764,21.5971399 12.7359504,22 12,22 C11.2640496,22 10.6176236,21.5971399 10.270358,21.0010556 L9.85775825,21 C8.81932092,21.000017 7.95362711,20.2052819 7.86503322,19.1706307 C7.63893101,16.5300768 7.34092277,14.9015379 6.97100849,14.2850141 L6.02899151,12.7149859 C5.41178271,11.6863045 5.06148468,10.5215873 5.00738784,9.32658203 L5,9 C5,5.13400675 8.13400675,2 12,2 Z M12,4 C9.3112453,4 7.11818189,6.12230671 7.0041473,8.74135632 L6.99948845,8.95476815 L7.0053417,9.23613643 C7.04014459,10.0049364 7.24446483,10.7556307 7.60252785,11.434774 L7.74397736,11.6859943 L8.68599434,13.2560226 C9.17731844,14.0748961 9.53619236,14.9612752 9.75355537,15.8824479 L9.779,17 L14.221,17 L14.2551314,15.845961 C14.4461593,15.0508827 14.7426298,14.2825352 15.1383519,13.5618893 L15.3140057,13.2560226 L16.2560226,11.6859943 C16.6941608,10.955764 16.9462719,10.1307217 16.9925201,9.30781804 L17.0002844,9.03372903 L16.9970813,8.82687867 C16.9063088,6.13998707 14.6971842,4 12,4 Z"></path>
</svg>