<svg viewBox="0 0 19 20" version="1.1" xmlns="http://www.w3.org/2000/svg">
  <path fill="currentColor" d="M1.42103813,0.296710931 L19,18.0756371 L17.5789619,19.4822153 L13.8305137,15.6897918 C13.8089324,16.0866793 13.7878971,16.5492578 13.7674077,17.0775273 C13.7257535,18.1511233 12.843314,19 11.7689103,19 L11.4343513,19.0010556 C11.0872738,19.5971399 10.4411978,20 9.70564592,20 C8.97009399,20 8.32401806,19.5971399 7.9769405,19.0010556 L7.56563775,19 C6.52716888,19.0000116 5.66146075,18.2052278 5.57291041,17.1705412 C5.34693155,14.53004 5.04908722,12.901531 4.67937741,12.2850141 L3.7378705,10.7149859 C3.12099589,9.68630451 2.77088753,8.52158733 2.71681999,7.32658203 L2.70943614,7 C2.70943614,6.23150333 2.83320931,5.49193109 3.06189815,4.80015101 L-1.13686838e-13,1.70328907 L1.42103813,0.296710931 Z M4.71249828,6.74135632 L4.70784195,6.95476815 L4.71369202,7.23613643 C4.74847608,8.00493642 4.95268568,8.75563072 5.31055482,9.43477397 L5.45192775,9.68599434 L6.39343466,11.2560226 C6.88449273,12.0748961 7.24317233,12.9612752 7.46041765,13.8824479 L7.4858485,15 L11.9254433,15 L11.9595563,13.845961 L11.969,13.808 L4.73010783,6.48797203 C4.72208524,6.57187315 4.71619735,6.65635311 4.71249828,6.74135632 Z M9.70564592,0 C13.489048,0 16.5710253,3.00478338 16.6977989,6.75935025 L16.7018557,7 C16.7018557,8.30869631 16.3463755,9.59278803 15.6734213,10.7149859 L14.9274361,11.957 L13.4764361,10.489 L13.9593641,9.68599434 C14.397265,8.95576402 14.6492396,8.13072168 14.6954628,7.30781804 L14.7032229,7.03372903 L14.7000215,6.82687867 C14.6092981,4.13998707 12.4013697,2 9.70564592,2 C8.4161523,2 7.24073159,2.4886688 6.35422669,3.28640334 L4.94989744,1.86591949 C6.19806425,0.70793256 7.86922659,0 9.70564592,0 Z"></path>
</svg>