<?xml version="1.0" encoding="UTF-8"?>
<svg width="36px" height="36px" viewBox="0 0 36 36" version="1.1" xmlns="http://www.w3.org/2000/svg" xmlns:xlink="http://www.w3.org/1999/xlink">
    <g stroke="none" stroke-width="1" fill="none" fill-rule="evenodd">
        <g transform="translate(-848.000000, -3404.000000)">
            <g transform="translate(848.000000, 3404.000000)">
                <polygon points="0 0 36 0 36 36 0 36"></polygon>
                <path d="M18,32 C25.7319865,32 32,25.7319865 32,18 C32,10.2680135 25.7319865,4 18,4 C10.2680135,4 4,10.2680135 4,18 C4,25.7319865 10.2680135,32 18,32 Z M18,3 C9.72,3 3,9.72 3,18 C3,26.28 9.72,33 18,33 C26.28,33 33,26.28 33,18 C33,9.72 26.28,3 18,3 Z M27.54,25.245 C25.395,22.635 20.19,21.75 18,21.75 C15.81,21.75 10.605,22.635 8.46,25.245 C6.93,23.235 6,20.73 6,18 C6,11.385 11.385,6 18,6 C24.615,6 30,11.385 30,18 C30,20.73 29.07,23.235 27.54,25.245 L27.54,25.245 Z M18,9 C15.09,9 12.75,11.34 12.75,14.25 C12.75,17.16 15.09,19.5 18,19.5 C20.91,19.5 23.25,17.16 23.25,14.25 C23.25,11.34 20.91,9 18,9 Z" fill="currentColor"></path>
            </g>
        </g>
    </g>
</svg>