<svg viewBox="0 0 19 12" xmlns="http://www.w3.org/2000/svg">
<path transform="translate(-3, -7)" fill="currentColor" d="M8.03862093,12.7759073 C8.51402417,13.2150779 8.57127344,13.9375967 8.19058274,14.4440309 L8.10859954,14.5422886 C7.6694289,15.0176918 6.94691016,15.0749411 6.44047594,14.6942504 L6.34221821,14.6122672 L3.40173748,11.8958937 L3.3875498,11.8830112 C3.36771734,11.8640925 3.34850612,11.8445282 3.32994986,11.8243521 L3.40173748,11.8958937 C3.36406402,11.8610915 3.32903865,11.8245482 3.29666187,11.7865087 C3.27829481,11.7650398 3.26041886,11.7424585 3.24332507,11.7192653 C3.23593975,11.7093044 3.22872038,11.6992213 3.22166914,11.689056 C3.20712606,11.6679254 3.19338142,11.6467157 3.18027472,11.6250764 C3.09606725,11.4864595 3.04131712,11.334542 3.01609518,11.1787279 C3.00568107,11.1135332 3.0002192,11.0466084 3.0002192,10.978408 C3.0002192,10.880248 3.01153369,10.7847306 3.03292963,10.6930889 C3.0777375,10.4986165 3.17011813,10.3126858 3.30967844,10.1538805 L3.35685581,10.1041065 C3.35999866,10.1008956 3.36315868,10.0977015 3.36633573,10.0945245 L3.39806978,10.0629356 L6.32721526,7.33522678 C6.83243329,6.86475249 7.6233882,6.89291786 8.0938625,7.39813589 C8.53493215,7.87177779 8.53774428,8.59655562 8.12008604,9.07296156 L8.03095339,9.16478312 L7.425,9.728 L15.044051,9.72840795 C18.4191244,9.72840795 21.1693629,12.4036448 21.289929,15.7492811 L21.294051,15.978408 L21.294051,17.5382614 C21.294051,18.2286173 20.7344069,18.7882614 20.044051,18.7882614 C19.3968423,18.7882614 18.8645171,18.2963867 18.8005046,17.6660666 L18.794051,17.5382614 L18.794051,15.978408 C18.794051,13.9741488 17.2216899,12.3371342 15.2432095,12.233606 L15.044051,12.228408 L7.446,12.228 L8.03862093,12.7759073 Z"></path>
</svg>