<?xml version="1.0" encoding="UTF-8"?>
<svg width="24px" height="24px" viewBox="0 0 24 24" version="1.1" xmlns="http://www.w3.org/2000/svg" xmlns:xlink="http://www.w3.org/1999/xlink">
    <title>0EC8123B-F84D-40D7-A281-3FF3217DE1D8@1x</title>
    <g id="Symbols" stroke="none" stroke-width="1" fill="none" fill-rule="evenodd">
        <g id="icon/24x224/pdf_file">
            <polygon id="Path" points="0 0 24 0 24 24 0 24"></polygon>
            <path d="M20,2 L8,2 C6.9,2 6,2.9 6,4 L6,16 C6,17.1 6.9,18 8,18 L20,18 C21.1,18 22,17.1 22,16 L22,4 C22,2.9 21.1,2 20,2 Z M20,16 L8,16 L8,4 L20,4 L20,16 Z M4,6 L2,6 L2,20 C2,21.1 2.9,22 4,22 L18,22 L18,20 L4,20 L4,6 Z M16,12 L16,9 C16,8.45 15.55,8 15,8 L13,8 L13,13 L15,13 C15.55,13 16,12.55 16,12 Z M14,9 L15,9 L15,12 L14,12 L14,9 Z M18,11 L19,11 L19,10 L18,10 L18,9 L19,9 L19,8 L17,8 L17,13 L18,13 L18,11 Z M10,11 L11,11 C11.55,11 12,10.55 12,10 L12,9 C12,8.45 11.55,8 11,8 L9,8 L9,13 L10,13 L10,11 Z M10,9 L11,9 L11,10 L10,10 L10,9 Z" id="Shape" fill="#182B37"></path>
        </g>
    </g>
</svg>