<svg viewBox="0 0 18 18" version="1.1" xmlns="http://www.w3.org/2000/svg">
  <path stroke="none" fill="currentColor" transform="translate(-1, -1)" d="M18.0774193,1.92258073 C18.3923904,2.23755189 18.416619,2.73316735 18.1501049,3.07592994 L18.0774193,3.15824315 L11.2346667,9.99966667 L18.0774193,16.8417568 C18.418638,17.1829756 18.418638,17.7362005 18.0774193,18.0774193 C17.7624481,18.3923904 17.2668327,18.416619 16.9240701,18.1501049 L16.8417568,18.0774193 L9.99966667,11.2346667 L3.15824315,18.0774193 C2.8170244,18.418638 2.26379949,18.418638 1.92258073,18.0774193 C1.60760957,17.7624481 1.58338102,17.2668327 1.84989508,16.9240701 L1.92258073,16.8417568 L8.76366667,9.99966667 L1.92258073,3.15824315 C1.58136198,2.8170244 1.58136198,2.26379949 1.92258073,1.92258073 C2.23755189,1.60760957 2.73316735,1.58338102 3.07592994,1.84989508 L3.15824315,1.92258073 L9.99966667,8.76366667 L16.8417568,1.92258073 C17.1829756,1.58136198 17.7362005,1.58136198 18.0774193,1.92258073 Z"></path>
</svg>