<svg viewBox="0 0 24 24" version="1.1" xmlns="http://www.w3.org/2000/svg">
    <path stroke="none" fill="currentColor" fill-rule="evenodd" d="M17,3 C18.1045695,3 19,3.8954305 19,5 L19,12 L17,12 L17,5 L6,5 L6,19 L14,19 L14,21 L6,21 C4.8954305,21 4,20.1045695 4,19 L4,5 C4,3.8954305 4.8954305,3 6,3 L17,3 Z M13.2792547,10 L19.2778914,16.0038965 L19.8577596,16.5842732 L20.5576005,17.2847278 C21.1474665,17.8651044 21.1474665,18.8157214 20.5576005,19.4061045 L20.5576005,19.4061045 L19.4078618,20.5568514 C19.1279916,20.8404074 18.7463371,21 18.3481027,21 C17.9498683,21 17.5682138,20.8404074 17.2883436,20.5568514 L17.2883436,20.5568514 L15.9986367,19.2660136 L10,13.2621171 L10,10 L13.2792547,10 Z M12.6294024,11.5309936 L11.5496478,11.5309936 L11.5496478,12.611695 L17.0983867,18.1652992 L18.1681436,17.0946044 L12.6294024,11.5309936 Z M14.9962966,7.25044575 L14.9962966,8.75044575 L8.00255485,8.75044575 L8.00255485,7.25044575 L14.9962966,7.25044575 Z" transform="translate(12.500000, 12.000000) scale(1, -1) translate(-12.500000, -12.000000) "></path>
</svg>