<svg width="24" height="24" xmlns="http://www.w3.org/2000/svg">
    <path d="M13.27 17.314c0-1.36.327-2.404.981-3.129l1.464-1.45c1.45-1.522 2.175-3.066 2.175-4.632 0-1.585-.472-2.831-1.417-3.74C15.53 3.454 14.211 3 12.52 3c-1.63 0-2.952.445-3.968 1.336C7.535 5.226 7.018 6.397 7 7.847h2.484c0-.814.278-1.463.833-1.947.555-.483 1.289-.725 2.202-.725.94 0 1.656.267 2.148.8.493.532.739 1.268.739 2.208 0 .976-.376 1.889-1.128 2.74l-1.76 1.812c-.688.752-1.145 1.437-1.369 2.055-.224.617-.344 1.459-.362 2.524h2.484Zm.022 4.601V19h-2.5v2.915h2.5Z" fill="#404040" fill-rule="evenodd"/>
</svg>