<svg viewBox="0 0 24 24" version="1.1" xmlns="http://www.w3.org/2000/svg">
  <path fill="currentColor" stroke="none" d="M17.6485303,6.35 C16.1976235,4.9 14.206379,4 11.9949969,4 C7.57223265,4 4,7.58 4,12 C4,16.42 7.57223265,20 11.9949969,20 C15.7273296,20 18.8392745,17.45 19.7298311,14 L17.6485303,14 C16.8280175,16.33 14.6066291,18 11.9949969,18 C8.68292683,18 5.99124453,15.31 5.99124453,12 C5.99124453,8.69 8.68292683,6 11.9949969,6 C13.656035,6 15.1369606,6.69 16.217636,7.78 L12.9956223,11 L20,11 L20,4 L17.6485303,6.35 Z"></path>
</svg>