<svg viewBox="0 0 24 24" version="1.1" xmlns="http://www.w3.org/2000/svg">
  <path fill="currentColor" stroke="none" d="M11.5062387,3 L11.5062387,21 L5.96237313,15.4568141 L2,15.4568141 L2,8.54318593 L5.96150893,8.54318593 L11.5062387,3 Z M20.67,6.66 C21.55,8.44 22,10.23 22,11.97 C22,13.5857143 21.6119898,15.2531633 20.8519825,16.9323141 L20.67,17.32 L19.32,16.66 C20.1,15.06 20.5,13.48 20.5,11.97 C20.5,10.5853846 20.1591716,9.14112426 19.4932453,7.69227583 L19.32,7.33 L20.67,6.66 Z M9.77783166,7.17255915 L6.67898241,10.271593 L3.72840704,10.271593 L3.72840704,13.728407 L6.67898241,13.728407 L9.77783166,16.8265766 L9.77783166,7.17255915 Z M17.53,8.05 C18.17,9.33 18.49,10.7 18.49,12.12 C18.49,13.44 18.2127083,14.6423611 17.6658275,15.7193808 L17.51,16.01 L16.21,15.27 C16.73,14.35 16.99,13.29 16.99,12.12 C16.99,11.049 16.7713,10.0185 16.34119,9.04308 L16.19,8.72 L17.53,8.05 Z M14.46,9.56 C14.81,10.31 14.99,11.12 15,11.96 C15.00875,12.70375 14.8720313,13.4398437 14.5898438,14.1548828 L14.46,14.46 L13.09,13.84 C13.36,13.23 13.5,12.61 13.49,11.98 C13.4814286,11.4314286 13.3846939,10.9122449 13.1934985,10.422449 L13.09,10.18 L14.46,9.56 Z"></path>
</svg>