<svg width="32" height="32" viewBox="0 0 32 32" fill="none" xmlns="http://www.w3.org/2000/svg">
<path fill-rule="evenodd" clip-rule="evenodd" d="M21.0808 12.0808C21.5884 11.5731 22.4116 11.5731 22.9192 12.0808L25 14.1615L27.0808 12.0808C27.5884 11.5731 28.4116 11.5731 28.9192 12.0808C29.4269 12.5884 29.4269 13.4116 28.9192 13.9192L26.8385 16L28.9192 18.0808C29.4269 18.5884 29.4269 19.4116 28.9192 19.9192C28.4116 20.4269 27.5884 20.4269 27.0808 19.9192L25 17.8385L22.9192 19.9192C22.4116 20.4269 21.5884 20.4269 21.0808 19.9192C20.5731 19.4116 20.5731 18.5884 21.0808 18.0808L23.1615 16L21.0808 13.9192C20.5731 13.4116 20.5731 12.5884 21.0808 12.0808Z" fill="#404040"/>
<path fill-rule="evenodd" clip-rule="evenodd" d="M15.4 25.3553V6.64562L11.2012 11.6021H7.995C6.67399 11.6021 5.6 12.6743 5.6 14.0006V17.9994C5.6 19.3257 6.67398 20.3979 7.99499 20.3979L11.1974 20.3979L15.4 25.3553ZM9.993 22.9979L7.99498 22.9979C5.23633 22.9979 3 20.76 3 17.9994V14.0006C3 11.24 5.23634 9.00213 7.995 9.00213H9.99622L14.4427 3.75321C15.6232 2.2788 18 3.11409 18 5.00335V26.9967C18 28.8845 15.6261 29.7206 14.4445 28.249L9.993 22.9979Z" fill="#404040"/>
</svg>
