<svg viewBox="0 0 24 24" version="1.1" xmlns="http://www.w3.org/2000/svg">
  <path fill="currentColor" stroke="none" fill-rule="evenodd" d="M12,4 C17.5228475,4 22,8.25329488 22,13.5 C22,13.592342 21.9985477,13.6831598 21.9956641,13.7724785 C22.0379085,15.5715185 21.5940443,17.3819772 20.66,19 C20.328909,19.5734785 19.7377091,19.9427252 19.0844839,19.9939114 L18.92,20.0000158 L5.07,20.0000158 C4.35977788,19.9957131 3.70510459,19.6150891 3.35,19 C2.50438175,17.5204185 2.07314573,15.8979137 2.03460483,14.2801423 C2.01159227,14.0336429 2,13.7735072 2,13.5 C2,8.25329488 6.4771525,4 12,4 Z M19.08,6.92 L10.59,12.58 L13.42,15.41 L19.08,6.92 Z"></path>
</svg>