<svg viewBox="0 0 18 19" xmlns="http://www.w3.org/2000/svg">
  <path stroke="none" fill-rule="evenodd" transform="translate(-3, -3)" fill="currentColor" d="M13,13 L13,18.01 L16,18.01 L12,22 L8,18.01 L11,18.01 L11,13 L13,13 Z M11.9896523,3 C14.7453611,3 16.9793046,5.23394342 16.9793046,7.98965228 L16.9793046,8.5 L17.25,8.5 C19.3210678,8.5 21,10.1789322 21,12.25 C21,14.3210678 19.3210678,16 17.25,16 L15,16 L15,14 L17.25,14 C18.2164983,14 19,13.2164983 19,12.25 C19,11.3318266 18.2928897,10.5788077 17.3935272,10.5058012 L17.25,10.5 L14.9793046,10.5 L14.9793046,7.98965228 C14.9793046,6.39748218 13.7346924,5.09600682 12.1653171,5.00507513 L11.9896523,5 L11.6934261,5 C9.9675407,5 8.46588258,6.1572286 8.01501361,7.80638928 L7.96770056,7.99882233 L7.63224204,9.53234699 L6.91175278,9.5739293 C5.8952433,9.62389323 5.08092623,10.4284471 5.00567723,11.4331861 L5,11.5853291 L5,11.7857143 C5,12.9554602 5.90703748,13.9133563 7.05615047,13.9944403 L7.21428571,14 L9,14 L9,16 L6.21428571,16 C4.48936094,16 3,14.3172413 3,11.7857143 L3,11.5853291 C3,8.5 5.70540784,7.58165715 5.81356641,7.57634089 L6.01390053,7.57142857 C6.59775114,4.90239719 8.96128219,3 11.6934261,3 L11.9896523,3 Z"></path>
</svg>