<svg width="32" height="32" viewBox="0 0 32 32" fill="none" xmlns="http://www.w3.org/2000/svg">
<path fill-rule="evenodd" clip-rule="evenodd" d="M15.4 25.3514V6.64171L11.2012 11.5982H7.995C6.67399 11.5982 5.6 12.6704 5.6 13.9967V17.9955C5.6 19.3218 6.67398 20.394 7.99499 20.394L11.1974 20.394L15.4 25.3514ZM9.993 22.994L7.99498 22.994C5.23633 22.994 3 20.7561 3 17.9955V13.9967C3 11.2361 5.23634 8.99822 7.995 8.99822H9.99622L14.4427 3.74931C15.6232 2.27489 18 3.11018 18 4.99944V26.9927C18 28.8806 15.6261 29.7167 14.4445 28.245L9.993 22.994Z" fill="#404040"/>
<path fill-rule="evenodd" clip-rule="evenodd" d="M23.4849 7.68796C23.9334 7.12732 24.7515 7.03642 25.3121 7.48493C28.1823 9.78112 29.3 13.1918 29.3 16.0001C29.3 18.8083 28.1823 22.219 25.3121 24.5152C24.7515 24.9637 23.9334 24.8728 23.4849 24.3122C23.0364 23.7515 23.1273 22.9334 23.6879 22.4849C25.8177 20.7811 26.7 18.1918 26.7 16.0001C26.7 13.8083 25.8177 11.219 23.6879 9.51519C23.1273 9.06668 23.0364 8.2486 23.4849 7.68796Z" fill="#404040"/>
<path fill-rule="evenodd" clip-rule="evenodd" d="M20.0017 11.1674C20.4616 10.616 21.2814 10.5419 21.8327 11.0018C23.2839 12.2123 24.3 13.998 24.3 16.0001C24.3 18.0014 23.282 19.7881 21.8333 20.9979C21.2822 21.4581 20.4624 21.3844 20.0022 20.8333C19.542 20.2822 19.6157 19.4624 20.1667 19.0022C21.1351 18.1936 21.7 17.0967 21.7 16.0001C21.7 14.9019 21.1363 13.8066 20.1673 12.9984C19.6159 12.5385 19.5418 11.7187 20.0017 11.1674Z" fill="#404040"/>
</svg>
