<svg width="32" height="32" viewBox="0 0 32 32" fill="none" xmlns="http://www.w3.org/2000/svg">
<path fill-rule="evenodd" clip-rule="evenodd" d="M15.4 25.3514V6.64171L11.2012 11.5982H7.995C6.67399 11.5982 5.6 12.6704 5.6 13.9967V17.9955C5.6 19.3218 6.67398 20.394 7.99499 20.394L11.1974 20.394L15.4 25.3514ZM9.993 22.994L7.99498 22.994C5.23633 22.994 3 20.7561 3 17.9955V13.9967C3 11.2361 5.23634 8.99822 7.995 8.99822H9.99622L14.4427 3.74931C15.6232 2.27489 18 3.11018 18 4.99944V26.9927C18 28.8806 15.6261 29.7167 14.4445 28.245L9.993 22.994Z" fill="#404040"/>
<path fill-rule="evenodd" clip-rule="evenodd" d="M21.0017 11.1674C21.4616 10.616 22.2814 10.5419 22.8327 11.0018C24.2839 12.2123 25.3 13.998 25.3 16.0001C25.3 18.0014 24.282 19.7881 22.8333 20.9979C22.2822 21.4581 21.4624 21.3844 21.0022 20.8333C20.542 20.2822 20.6157 19.4624 21.1667 19.0022C22.1351 18.1936 22.7 17.0967 22.7 16.0001C22.7 14.9019 22.1363 13.8066 21.1673 12.9984C20.6159 12.5385 20.5418 11.7187 21.0017 11.1674Z" fill="#404040"/>
</svg>
