<svg viewBox="0 0 24 24" version="1.1" xmlns="http://www.w3.org/2000/svg">
  <path fill="currentColor" stroke="none" d="M19,4 C20.1,4 21,4.9 21,6 L21,6 L21,18 C21,19.1 20.1,20 19,20 L19,20 L5,20 C3.89,20 3,19.1 3,18 L3,18 L3,6 C3,4.9 3.89,4 5,4 L5,4 Z M10,9 L7,9 C6.45,9 6,9.45 6,10 L6,14 C6,14.55 6.45,15 7,15 L10,15 C10.55,15 11,14.55 11,14 L11,13 L9.5,13 L9.5,13.5 L7.5,13.5 L7.5,10.5 L9.5,10.5 L9.5,11 L11,11 L11,10 C11,9.45 10.55,9 10,9 Z M17,9 L14,9 C13.45,9 13,9.45 13,10 L13,14 C13,14.55 13.45,15 14,15 L17,15 C17.55,15 18,14.55 18,14 L18,13 L16.5,13 L16.5,13.5 L14.5,13.5 L14.5,10.5 L16.5,10.5 L16.5,11 L18,11 L18,10 C18,9.45 17.55,9 17,9 Z"></path>
</svg>