<svg viewBox="0 0 24 24" version="1.1" xmlns="http://www.w3.org/2000/svg">
  <path fill="currentColor" stroke="none" d="M17.7274653,12.784 C17.7594653,12.528 17.7834653,12.272 17.7834653,12 C17.7834653,11.728 17.7594653,11.472 17.7274653,11.216 L19.4154653,9.896 C19.5674653,9.776 19.6074653,9.56 19.5114653,9.384 L17.9114653,6.616 C17.8394653,6.488 17.7034653,6.416 17.5594653,6.416 C17.5114653,6.416 17.4634653,6.424 17.4234653,6.44 L15.4314653,7.24 C15.0154653,6.92 14.5674653,6.656 14.0794653,6.456 L13.7754653,4.336 C13.7514653,4.144 13.5834653,4 13.3834653,4 L10.1834653,4 C9.98346528,4 9.81546528,4.144 9.79146528,4.336 L9.48746528,6.456 C8.99946528,6.656 8.55146528,6.928 8.13546528,7.24 L6.14346528,6.44 C6.09546528,6.424 6.04746528,6.416 5.99946528,6.416 C5.86346528,6.416 5.72746528,6.488 5.65546528,6.616 L4.05546528,9.384 C3.95146528,9.56 3.99946528,9.776 4.15146528,9.896 L5.83946528,11.216 C5.80746528,11.472 5.78346528,11.736 5.78346528,12 C5.78346528,12.264 5.80746528,12.528 5.83946528,12.784 L4.15146528,14.104 C3.99946528,14.224 3.95946528,14.44 4.05546528,14.616 L5.65546528,17.384 C5.72746528,17.512 5.86346528,17.584 6.00746528,17.584 C6.05546528,17.584 6.10346528,17.576 6.14346528,17.56 L8.13546528,16.76 C8.55146528,17.08 8.99946528,17.344 9.48746528,17.544 L9.79146528,19.664 C9.81546528,19.856 9.98346528,20 10.1834653,20 L13.3834653,20 C13.5834653,20 13.7514653,19.856 13.7754653,19.664 L14.0794653,17.544 C14.5674653,17.344 15.0154653,17.072 15.4314653,16.76 L17.4234653,17.56 C17.4714653,17.576 17.5194653,17.584 17.5674653,17.584 C17.7034653,17.584 17.8394653,17.512 17.9114653,17.384 L19.5114653,14.616 C19.6074653,14.44 19.5674653,14.224 19.4154653,14.104 L17.7274653,12.784 Z M16.1434653,11.416 C16.1754653,11.664 16.1834653,11.832 16.1834653,12 C16.1834653,12.168 16.1674653,12.344 16.1434653,12.584 L16.0314653,13.488 L16.7434653,14.048 L17.6074653,14.72 L17.0474653,15.688 L16.0314653,15.28 L15.1994653,14.944 L14.4794653,15.488 C14.1354653,15.744 13.8074653,15.936 13.4794653,16.072 L12.6314653,16.416 L12.5034653,17.32 L12.3434653,18.4 L11.2234653,18.4 L11.0714653,17.32 L10.9434653,16.416 L10.0954653,16.072 C9.75146528,15.928 9.43146528,15.744 9.11146528,15.504 L8.38346528,14.944 L7.53546528,15.288 L6.51946528,15.696 L5.95946528,14.728 L6.82346528,14.056 L7.53546528,13.496 L7.42346528,12.592 C7.39946528,12.344 7.38346528,12.16 7.38346528,12 C7.38346528,11.84 7.39946528,11.656 7.42346528,11.416 L7.53546528,10.512 L6.82346528,9.952 L5.95946528,9.28 L6.51946528,8.312 L7.53546528,8.72 L8.36746528,9.056 L9.08746528,8.512 C9.43146528,8.256 9.75946528,8.064 10.0874653,7.928 L10.9354653,7.584 L11.0634653,6.68 L11.2234653,5.6 L12.3354653,5.6 L12.4874653,6.68 L12.6154653,7.584 L13.4634653,7.928 C13.8074653,8.072 14.1274653,8.256 14.4474653,8.496 L15.1754653,9.056 L16.0234653,8.712 L17.0394653,8.304 L17.5994653,9.272 L16.7434653,9.952 L16.0314653,10.512 L16.1434653,11.416 Z M11.7834653,8.8 C10.0154653,8.8 8.58346528,10.232 8.58346528,12 C8.58346528,13.768 10.0154653,15.2 11.7834653,15.2 C13.5514653,15.2 14.9834653,13.768 14.9834653,12 C14.9834653,10.232 13.5514653,8.8 11.7834653,8.8 Z M11.7834653,13.6 C10.9034653,13.6 10.1834653,12.88 10.1834653,12 C10.1834653,11.12 10.9034653,10.4 11.7834653,10.4 C12.6634653,10.4 13.3834653,11.12 13.3834653,12 C13.3834653,12.88 12.6634653,13.6 11.7834653,13.6 Z"></path>
</svg>