<svg width="32" height="32" viewBox="0 0 32 32" fill="none" xmlns="http://www.w3.org/2000/svg">
<path fill-rule="evenodd" clip-rule="evenodd" d="M15.4 25.3514V6.64171L11.2012 11.5982H7.995C6.67399 11.5982 5.6 12.6704 5.6 13.9967V17.9955C5.6 19.3218 6.67398 20.394 7.99499 20.394L11.1974 20.394L15.4 25.3514ZM9.993 22.994L7.99498 22.994C5.23633 22.994 3 20.7561 3 17.9955V13.9967C3 11.2361 5.23634 8.99822 7.995 8.99822H9.99622L14.4427 3.74931C15.6232 2.27489 18 3.11018 18 4.99944V26.9927C18 28.8806 15.6261 29.7167 14.4445 28.245L9.993 22.994Z" fill="#404040"/>
<path fill-rule="evenodd" clip-rule="evenodd" d="M23.0814 4.08037C23.5893 3.57293 24.4125 3.57332 24.9199 4.08125C27.8099 6.97399 30.3002 11.0436 30.3002 16C30.3002 20.957 27.8059 25.0268 24.9204 27.9183C24.4133 28.4265 23.5901 28.4274 23.0819 27.9202C22.5737 27.4131 22.5729 26.59 23.08 26.0818C25.6654 23.491 27.7002 20.0431 27.7002 16C27.7002 11.9565 25.6685 8.50928 23.0805 5.91884C22.5731 5.41092 22.5735 4.58781 23.0814 4.08037Z" fill="#404040"/>
<path fill-rule="evenodd" clip-rule="evenodd" d="M20.5812 9.08037C21.0891 8.57293 21.9122 8.57332 22.4197 9.08125C24.1605 10.8238 25.3 13.3092 25.3 16C25.3 18.6896 24.1583 21.1767 22.4202 22.9183C21.913 23.4265 21.0899 23.4274 20.5817 22.9202C20.0735 22.4131 20.0727 21.59 20.5798 21.0818C21.8631 19.7958 22.7 17.9574 22.7 16C22.7 14.0405 21.8647 12.2045 20.5803 10.9188C20.0729 10.4109 20.0733 9.5878 20.5812 9.08037Z" fill="#404040"/>
</svg>
