<svg viewBox="0 0 24 24" version="1.1" xmlns="http://www.w3.org/2000/svg">
  <path fill="currentColor" stroke="none" d="M5.14349274,6.78901179 C8.48139483,3.61705653 13.5538078,3.13443683 17.43,5.62 L17.43,5.62 L15.58,6.85 C12.4219047,5.27020578 8.60157287,5.94784125 6.17947843,8.51742765 C3.75738399,11.087014 3.30649669,14.940691 5.07,18 L5.07,18 L18.93,18 C20.2722508,15.6707848 20.3549,12.823143 19.15,10.42 L19.15,10.42 L20.38,8.57 L20.39,8.56 C22.4343473,11.7128733 22.5386438,15.74567 20.66,19 C20.3013181,19.6212684 19.6373695,20.002848 18.92,20.0000158 L18.92,20.0000158 L5.07,20.0000158 C4.35977788,19.9957131 3.70510459,19.6150891 3.35,19 C1.06515762,15.0022024 1.80559064,9.96096705 5.14349274,6.78901179 Z M19.08,6.92 L13.42,15.41 L10.59,12.58 L19.08,6.92 Z"></path>
</svg>