<svg viewBox="0 0 24 24" version="1.1" xmlns="http://www.w3.org/2000/svg">
  <path fill="currentColor" stroke="none"  d="M11.5062387,3 L11.5062387,21 L5.96237313,15.4568141 L2,15.4568141 L2,8.54318593 L5.96150893,8.54318593 L11.5062387,3 Z M9.77783166,7.17255915 L6.67898241,10.271593 L3.72840704,10.271593 L3.72840704,13.728407 L6.67898241,13.728407 L9.77783166,16.8265766 L9.77783166,7.17255915 Z M14.46,9.56 C14.81,10.31 14.99,11.12 15,11.96 C15.01,12.81 14.83,13.65 14.46,14.46 L14.46,14.46 L13.09,13.84 C13.36,13.23 13.5,12.61 13.49,11.98 C13.48,11.34 13.35,10.74 13.09,10.18 L13.09,10.18 Z"></path>
</svg>