<svg width="32" height="32" viewBox="0 0 32 32" fill="none" xmlns="http://www.w3.org/2000/svg">
<path fill-rule="evenodd" clip-rule="evenodd" d="M25 6.69995C25.718 6.69995 26.3 7.28198 26.3 7.99995V24C26.3 24.7179 25.718 25.2999 25 25.2999H9.00001C8.28204 25.2999 7.70001 24.7179 7.70001 24C7.70001 23.282 8.28204 22.7 9.00001 22.7H23.7V7.99995C23.7 7.28198 24.282 6.69995 25 6.69995Z" fill="#404040"/>
<path fill-rule="evenodd" clip-rule="evenodd" d="M19 10.7C19.718 10.7 20.3 11.282 20.3 12V18C20.3 18.7179 19.718 19.3 19 19.3H13C12.282 19.3 11.7 18.7179 11.7 18C11.7 17.282 12.282 16.7 13 16.7H17.7V12C17.7 11.282 18.282 10.7 19 10.7Z" fill="#404040"/>
</svg>
