<svg viewBox="0 0 24 24" version="1.1" xmlns="http://www.w3.org/2000/svg">
  <path stroke="none" fill="currentColor" fill-rule="evenodd" d="M4.22182541,2.80761184 L8.10961184,6.695 L8.10861184,6.684 L9.88661184,8.462 L9.88761184,8.473 L17.8136118,16.4 L17.8246118,16.4 L19.4246118,18 L19.4136118,18 L21.1923882,19.7781746 L19.7781746,21.1923882 L16.5856118,18 L14,18 L14,21 C14,21.5522847 13.5522847,22 13,22 C12.4477153,22 12,21.5522847 12,21 L12,18 L5,18 C5.1129856,14.7946936 6.03161976,12.822647 7.75590249,12.0838603 C7.97186847,11.9907732 8.11031923,11.7951553 8.11010394,11.5802648 L8.10961184,9.523 L2.80761184,4.22182541 L4.22182541,2.80761184 Z M19.1958337,2 C19.5823904,4.12166696 19.2417469,5.49336903 18.1739032,6.1151062 C17.9960488,6.21763698 17.8898961,6.3943676 17.8901114,6.58304728 L17.8901114,11.5804575 C17.8898961,11.7953481 18.0277009,11.9911587 18.2443128,12.0840531 C19.7093022,12.711952 20.5927029,14.2306367 20.8945147,16.6401071 L16.1357625,11.8830808 C16.1276451,11.8313103 16.121598,11.7790723 16.1176822,11.7264521 L16.1123336,11.5804575 L16.1123345,6.58469066 C16.1114965,5.85036785 16.5260792,5.16496351 17.2082597,4.77171442 C17.4067674,4.65613607 17.5539883,4.33544425 17.5776064,3.75750763 L17.5804444,3.6 L8.41866667,3.6 C8.41971567,3.85052566 8.44130308,4.05830034 8.47885896,4.22709729 L6.72754779,2.47826343 C6.74874718,2.3233181 6.77428675,2.16389696 6.8041665,2 L19.1958337,2 Z M9.88761184,11.301 L9.887881,11.5788221 C9.88866645,12.3628353 9.41656546,13.0790647 8.66434435,13.4608967 L8.5200673,13.5285064 C7.81180902,13.831967 7.26791983,14.6596306 6.98410564,16.098055 L6.92977778,16.4 L14.9856118,16.4 L9.88761184,11.301 Z"></path>
</svg>