<svg viewBox="0 0 24 24" version="1.1" xmlns="http://www.w3.org/2000/svg">
  <path stroke="none" fill="currentColor" fill-rule="evenodd" d="M16.6022222,7.48111111 L19.5188889,10.3977778 L10.9166667,19 L8,19 L8,16.0833333 L16.6022222,7.48111111 Z M16.6022222,9.68222222 L9.55555556,16.7288889 L9.55555556,17.4444444 L10.2711111,17.4444444 L17.3177778,10.3977778 L16.6022222,9.68222222 Z M7.098485,14 L5.1134,16 L3,16 L3,14 L7.098485,14 Z M11.108724,10 L9.105054,12 L3,12 L3,10 L11.108724,10 Z M19.4022222,5 C19.6044444,5 19.7988889,5.07 19.9544444,5.22555556 L19.9544444,5.22555556 L21.7744444,7.04555556 C22.0777778,7.34888889 22.0777778,7.83888889 21.7744444,8.14222222 L21.7744444,8.14222222 L20.3511111,9.56555556 L17.4344444,6.64888889 L18.8577778,5.22555556 C19.0055556,5.07777778 19.2077778,5 19.4022222,5 Z M15.111204,6 L13.091103,8 L3,8 L3,6 L15.111204,6 Z"></path>
</svg>