<svg width="32" height="32" viewBox="0 0 32 32" fill="none" xmlns="http://www.w3.org/2000/svg">
<path fill-rule="evenodd" clip-rule="evenodd" d="M7.08545 6.81114C7.74208 6.30604 8.68385 6.42888 9.18895 7.08551L13 12.0399L16.8111 7.08551C17.3162 6.42888 18.2579 6.30604 18.9146 6.81114C19.5712 7.31624 19.694 8.25801 19.1889 8.91464L14.8925 14.5001L19.1889 20.0855C19.694 20.7421 19.5712 21.6839 18.9146 22.189C18.2579 22.6941 17.3162 22.5713 16.8111 21.9146L13 16.9603L9.18895 21.9146C8.68385 22.5713 7.74208 22.6941 7.08545 22.189C6.42882 21.6839 6.30598 20.7421 6.81108 20.0855L11.1076 14.5001L6.81108 8.91464C6.30598 8.25801 6.42882 7.31624 7.08545 6.81114Z" fill="#404040"/>
<path fill-rule="evenodd" clip-rule="evenodd" d="M20.9 18.0001C20.9 17.3926 21.3925 16.9001 22 16.9001H24.3415C24.8058 16.9001 25.4685 17.0189 26.0378 17.4793C26.6515 17.9756 27.0025 18.7439 27.0025 19.7247C27.0025 20.7169 26.5614 21.4708 25.9256 21.9446C25.3333 22.386 24.6259 22.5493 24.0488 22.5493C23.7999 22.5493 23.5787 22.6642 23.3893 22.8946C23.181 23.1479 23.1 23.439 23.1 23.5798V23.8994L26 23.9001C26.6075 23.9001 27.1 24.3926 27.1 25.0001C27.1 25.6076 26.6075 26.1001 26 26.1001H22C21.3925 26.1001 20.9 25.6076 20.9 25.0001V23.5798C20.9 22.8709 21.1971 22.0968 21.69 21.4973C22.2018 20.8749 23.005 20.3493 24.0488 20.3493C24.2522 20.3493 24.4716 20.2844 24.611 20.1806C24.6727 20.1346 24.7143 20.085 24.7427 20.0293C24.7704 19.9751 24.8025 19.8821 24.8025 19.7247C24.8025 19.4986 24.764 19.369 24.7349 19.3025C24.7074 19.2397 24.6781 19.2091 24.6543 19.1898C24.5925 19.1398 24.4747 19.1001 24.3415 19.1001H22C21.3925 19.1001 20.9 18.6076 20.9 18.0001Z" fill="#404040"/>
</svg>
