<svg width="32" height="32" viewBox="0 0 32 32" fill="none" xmlns="http://www.w3.org/2000/svg">
<path fill-rule="evenodd" clip-rule="evenodd" d="M9 5C7.34315 5 6 6.34315 6 8V23C6 24.6569 7.34315 26 9 26H23C24.6569 26 26 24.6569 26 23V8C26 6.34315 24.6569 5 23 5H9ZM15.4926 10.2447C15.7394 10.5129 16.0411 10.6471 16.3977 10.6471H16.7475L12.3892 20.3529H11.2549C10.8983 20.3529 10.5966 20.4729 10.3497 20.7129C10.1166 20.9529 10 21.2706 10 21.6659C10 22.0188 10.1166 22.3294 10.3497 22.5976C10.5966 22.8659 10.8983 23 11.2549 23H15.6023C15.9589 23 16.2537 22.8659 16.4869 22.5976C16.7337 22.3435 16.8571 22.0471 16.8571 21.7082C16.8571 21.3129 16.7337 20.9882 16.4869 20.7341C16.2537 20.48 15.9589 20.3529 15.6023 20.3529H15.2739L19.6322 10.6471H20.7451C21.1017 10.6471 21.3966 10.5129 21.6297 10.2447C21.8766 9.99059 22 9.69412 22 9.3553C22 8.96 21.8766 8.63529 21.6297 8.38118C21.3966 8.12706 21.1017 8 20.7451 8H16.3977C16.0411 8 15.7394 8.12 15.4926 8.36C15.2594 8.6 15.1429 8.91765 15.1429 9.31294C15.1429 9.66588 15.2594 9.97647 15.4926 10.2447Z" fill="#404040"/>
</svg>
