<svg width="32" height="32" viewBox="0 0 32 32" fill="none" xmlns="http://www.w3.org/2000/svg">
<path fill-rule="evenodd" clip-rule="evenodd" d="M7 4C5.34315 4 4 5.34315 4 7V24C4 25.6569 5.34315 27 7 27H25C26.6569 27 28 25.6569 28 24V7C28 5.34315 26.6569 4 25 4H7ZM8.43532 10.5097C8.43532 10.7079 8.50753 10.8877 8.64873 11.0291L8.65542 11.0356C8.80262 11.1748 8.98689 11.2362 9.18057 11.2362C9.37514 11.2362 9.56323 11.1765 9.71263 11.0353C9.8601 10.8954 9.9389 10.7137 9.9389 10.5097V6.72653C9.9389 6.53558 9.87374 6.35732 9.7353 6.21696C9.58923 6.06414 9.39827 6 9.20018 6C9.12293 6 9.04563 6.01044 8.96978 6.02796L8.96401 6.02941C8.87483 6.05173 8.79133 6.0893 8.71549 6.14183L7.77861 6.76718C7.56818 6.90396 7.42857 7.11269 7.42857 7.38106C7.42857 7.5787 7.50349 7.75525 7.64198 7.89392C7.7776 8.0297 7.95072 8.10759 8.14768 8.10759C8.24559 8.10759 8.34353 8.09044 8.43532 8.05085V10.5097ZM13.3348 10.7578C13.5711 11.0187 13.8599 11.1491 14.2012 11.1491L23.7988 11.1491C24.1401 11.1491 24.4224 11.0187 24.6455 10.7578C24.8818 10.5106 25 10.2223 25 9.89275C25 9.50828 24.8818 9.19247 24.6455 8.94531C24.4224 8.69815 24.1401 8.57457 23.7988 8.57457H14.2012C13.8599 8.57457 13.5711 8.69128 13.3348 8.92471C13.1116 9.15814 13 9.46709 13 9.85155C13 10.1948 13.1116 10.4969 13.3348 10.7578ZM13.3348 16.7651C13.5711 17.026 13.8599 17.1565 14.2012 17.1565L23.7988 17.1565C24.1401 17.1565 24.4224 17.026 24.6455 16.7651C24.8818 16.518 25 16.2296 25 15.9001C25 15.5156 24.8818 15.1998 24.6455 14.9526C24.4224 14.7055 24.1401 14.5819 23.7988 14.5819L14.2012 14.5819C13.8599 14.5819 13.5711 14.6986 13.3348 14.932C13.1116 15.1655 13 15.4744 13 15.8589C13 16.2022 13.1116 16.5042 13.3348 16.7651ZM14.2012 23.1638C13.8599 23.1638 13.5711 23.0333 13.3348 22.7725C13.1116 22.5116 13 22.2095 13 21.8662C13 21.4817 13.1116 21.1728 13.3348 20.9394C13.5711 20.7059 13.8599 20.5892 14.2012 20.5892H23.7988C24.1401 20.5892 24.4224 20.7128 24.6455 20.96C24.8818 21.2071 25 21.5229 25 21.9074C25 22.2369 24.8818 22.5253 24.6455 22.7725C24.4224 23.0333 24.1401 23.1638 23.7988 23.1638H14.2012ZM10.4465 17.8279C10.3103 17.9558 10.1406 18.0146 9.9615 18.0146H7.73881C7.55334 18.0146 7.37091 17.9545 7.23232 17.8065C7.10214 17.6674 7.04585 17.494 7.04585 17.3143C7.04585 17.1176 7.11982 16.9424 7.25231 16.802L8.67557 15.279C8.81884 15.1238 8.92672 14.9696 9.00233 14.8182L9.00509 14.8126C9.08829 14.6536 9.11164 14.5484 9.11164 14.4867C9.11164 14.3355 9.07001 14.2486 9.01392 14.1905L9.0102 14.1867C8.95399 14.1265 8.87731 14.0874 8.74555 14.0874C8.7156 14.0874 8.6762 14.0943 8.62473 14.1175C8.56951 14.1424 8.51099 14.1789 8.44951 14.2303C8.38959 14.284 8.33096 14.3477 8.27402 14.4224C8.20325 14.5166 8.10162 14.619 7.95984 14.6663C7.88263 14.692 7.79926 14.7092 7.71266 14.7092C7.52978 14.7092 7.36773 14.6403 7.23408 14.5276L7.22696 14.5216L7.2202 14.5152C7.0854 14.3877 7.00009 14.2198 7.00009 14.022C7.00009 13.8725 7.04962 13.7369 7.12952 13.6206L7.13333 13.615L7.13738 13.6096C7.20059 13.5253 7.2744 13.4416 7.35732 13.3586C7.48495 13.2308 7.62735 13.1189 7.78373 13.023C7.94001 12.9271 8.10347 12.8524 8.27384 12.8003C8.44556 12.7434 8.61851 12.7129 8.79132 12.7129C9.12617 12.7129 9.43418 12.7804 9.70393 12.9284C9.97652 13.0711 10.1902 13.2796 10.3386 13.5486C10.4883 13.8156 10.5564 14.1214 10.5564 14.454C10.5564 14.7581 10.4658 15.0758 10.3083 15.401C10.1534 15.7255 9.94433 16.0275 9.68414 16.3069L9.37215 16.6401H9.9615C10.1469 16.6401 10.3191 16.7055 10.4541 16.8407C10.5892 16.9759 10.6545 17.1482 10.6545 17.3339C10.6545 17.5195 10.5863 17.6883 10.4541 17.8206L10.4465 17.8279ZM9.87446 21.6361C9.81354 21.5924 9.75014 21.5544 9.68448 21.5219L10.1774 20.9921C10.2386 20.9301 10.2916 20.8615 10.3354 20.7862L10.3407 20.7764C10.3934 20.6785 10.4256 20.5689 10.4256 20.451C10.4256 20.2661 10.3666 20.0903 10.2356 19.949C10.0881 19.7844 9.88471 19.731 9.69337 19.731H7.69296C7.5092 19.731 7.33852 19.7952 7.20405 19.9279C7.06747 20.0581 7 20.2276 7 20.4117C7 20.5974 7.0653 20.7698 7.20033 20.905C7.33537 21.0402 7.5075 21.1055 7.69296 21.1055H8.22661L7.73012 21.6337L7.72453 21.6403C7.66702 21.7084 7.61572 21.7791 7.57597 21.8521L7.57028 21.8625L7.56536 21.8734C7.52143 21.9701 7.50337 22.072 7.50337 22.1724C7.50337 22.3318 7.54819 22.4853 7.64719 22.6175L7.651 22.6226L7.655 22.6275C7.78143 22.7833 7.95826 22.8531 8.14403 22.8531C8.2452 22.8531 8.34681 22.8421 8.44281 22.8125L8.44977 22.8103L8.45662 22.8079C8.51003 22.7888 8.56323 22.7716 8.61623 22.7564C8.64567 22.7489 8.69537 22.7419 8.77161 22.7419C8.84709 22.7419 8.91282 22.7583 8.97381 22.7901L8.97845 22.7924C9.03598 22.8212 9.07876 22.861 9.11226 22.9169L9.11735 22.9248C9.14516 22.9683 9.17039 23.0401 9.17039 23.1608C9.17039 23.2837 9.14358 23.3716 9.10316 23.4377C9.05287 23.5153 8.99181 23.5729 8.91842 23.6153C8.85001 23.653 8.77881 23.6713 8.6997 23.6713C8.60083 23.6713 8.52559 23.6556 8.46798 23.6319C8.38916 23.5974 8.32651 23.5604 8.27721 23.5226L8.27107 23.5179L8.26471 23.5135C8.18962 23.4615 8.10489 23.4155 8.01197 23.3895C7.94378 23.3693 7.87185 23.3571 7.79755 23.3571C7.5812 23.3571 7.39934 23.4546 7.26893 23.6159L7.26775 23.6174C7.15723 23.7557 7.09152 23.9201 7.09152 24.1033C7.09152 24.219 7.12258 24.3276 7.16795 24.425L7.17366 24.4372L7.18035 24.4489C7.25683 24.5829 7.3794 24.6756 7.50028 24.7421C7.64443 24.8249 7.80798 24.8867 7.98631 24.9313C8.16905 24.9771 8.35475 25 8.54281 25C8.93098 25 9.28641 24.9295 9.60027 24.7776C9.91512 24.6252 10.1666 24.4025 10.3449 24.1103C10.5251 23.8151 10.6086 23.4746 10.6086 23.1019C10.6086 22.8104 10.5461 22.5343 10.419 22.2784C10.295 22.0155 10.1125 21.7995 9.87446 21.6361Z" fill="#404040"/>
</svg>
