<svg width="32" height="32" viewBox="0 0 32 32" fill="none" xmlns="http://www.w3.org/2000/svg">
<path d="M20.1111 14.5771C20.9617 14.9171 21.6519 15.4352 22.1815 16.1314C22.7272 16.8276 23 17.7262 23 18.8271C23 20.7538 22.4543 22.0976 21.363 22.8586C20.2716 23.6195 18.9716 24 17.463 24H11.4685C11.0512 24 10.6981 23.8624 10.4093 23.5871C10.1364 23.2957 10 22.9395 10 22.5186V8.48143C10 8.06048 10.1364 7.71238 10.4093 7.43714C10.6981 7.14571 11.0512 7 11.4685 7H17.5352C20.5846 7 22.1093 8.44095 22.1093 11.3229C22.1093 12.0514 21.9327 12.699 21.5796 13.2657C21.2426 13.8162 20.7531 14.2533 20.1111 14.5771ZM18.9796 11.8571C18.9796 11.1933 18.8111 10.6995 18.4741 10.3757C18.1531 10.0357 17.6957 9.86571 17.1019 9.86571H13.1296V13.6543H17.1741C17.6556 13.6543 18.0728 13.4924 18.4259 13.1686C18.7951 12.8448 18.9796 12.4076 18.9796 11.8571ZM17.463 21.2071C18.2173 21.2071 18.8031 21.0048 19.2204 20.6C19.6537 20.1952 19.8704 19.6043 19.8704 18.8271C19.8704 17.8719 19.6216 17.2486 19.1241 16.9571C18.6265 16.6657 18.0167 16.52 17.2944 16.52H13.1296V21.2071H17.463Z" fill="#404040"/>
</svg>
