<svg width="32" height="32" viewBox="0 0 32 32" fill="none" xmlns="http://www.w3.org/2000/svg">
<path d="M13.4014 10C13.0032 10 12.6663 9.848 12.3906 9.544C12.1302 9.24 12 8.888 12 8.488C12 8.04 12.1302 7.68 12.3906 7.408C12.6663 7.136 13.0032 7 13.4014 7L24.5986 7C24.9968 7 25.3261 7.144 25.5865 7.432C25.8622 7.72 26 8.088 26 8.536C26 8.92 25.8622 9.256 25.5865 9.544C25.3261 9.848 24.9968 10 24.5986 10L13.4014 10Z" fill="#404040"/>
<path d="M13.4014 17C13.0032 17 12.6663 16.848 12.3906 16.544C12.1302 16.24 12 15.888 12 15.488C12 15.04 12.1302 14.68 12.3906 14.408C12.6663 14.136 13.0032 14 13.4014 14L24.5986 14C24.9968 14 25.3261 14.144 25.5865 14.432C25.8622 14.72 26 15.088 26 15.536C26 15.92 25.8622 16.256 25.5865 16.544C25.3261 16.848 24.9968 17 24.5986 17L13.4014 17Z" fill="#404040"/>
<path d="M13.4014 24C13.0032 24 12.6663 23.848 12.3906 23.544C12.1302 23.24 12 22.888 12 22.488C12 22.04 12.1302 21.68 12.3906 21.408C12.6663 21.136 13.0032 21 13.4014 21H24.5986C24.9968 21 25.3261 21.144 25.5865 21.432C25.8622 21.72 26 22.088 26 22.536C26 22.92 25.8622 23.256 25.5865 23.544C25.3261 23.848 24.9968 24 24.5986 24H13.4014Z" fill="#404040"/>
<path fill-rule="evenodd" clip-rule="evenodd" d="M6.92351 9.86014C6.75878 9.69541 6.67454 9.48582 6.67454 9.25491V6.38974C6.56745 6.43587 6.45319 6.45585 6.33896 6.45585C6.10918 6.45585 5.9072 6.3651 5.74898 6.20687C5.5874 6.0453 5.5 5.83957 5.5 5.60927C5.5 5.29656 5.66287 5.05333 5.90838 4.89395L7.00141 4.16527C7.08989 4.10405 7.18731 4.06028 7.29135 4.03427L7.29807 4.03259C7.38657 4.01216 7.47675 4 7.56688 4C7.79798 4 8.02077 4.07474 8.19118 4.25281C8.3527 4.41637 8.42872 4.62408 8.42872 4.84658V9.25491C8.42872 9.49261 8.33678 9.70433 8.16473 9.86733C7.99044 10.0319 7.77099 10.1015 7.544 10.1015C7.31803 10.1015 7.10305 10.0299 6.93132 9.86773L6.92351 9.86014Z" fill="#404040"/>
<path d="M9.02097 17.7824C8.86199 17.9315 8.66404 18 8.45508 18H5.86194C5.64556 18 5.43273 17.9299 5.27104 17.7574C5.11916 17.5954 5.0535 17.3933 5.0535 17.1839C5.0535 16.9547 5.13979 16.7506 5.29436 16.587L6.95484 14.8123L6.95554 14.8115C7.12269 14.6307 7.24784 14.4517 7.33605 14.2753L7.33927 14.2689C7.43634 14.0836 7.46359 13.9609 7.46359 13.8891C7.46359 13.7129 7.41502 13.6117 7.34957 13.544L7.34523 13.5395C7.27965 13.4694 7.19019 13.4238 7.03648 13.4238C7.00153 13.4238 6.95556 13.4319 6.89552 13.4589C6.83109 13.4879 6.76282 13.5304 6.6911 13.5903C6.62119 13.6529 6.55278 13.7271 6.48636 13.8141C6.40379 13.9239 6.28523 14.0432 6.11982 14.0983C6.02974 14.1283 5.93248 14.1484 5.83144 14.1484C5.61808 14.1484 5.42902 14.068 5.2731 13.9367L5.26479 13.9297L5.2569 13.9223C5.09963 13.7737 5.00011 13.578 5.00011 13.3476C5.00011 13.1734 5.05789 13.0154 5.1511 12.8798L5.15556 12.8734L5.16027 12.8671C5.23402 12.7688 5.32014 12.6713 5.41688 12.5745C5.56578 12.4256 5.7319 12.2953 5.91435 12.1835C6.09668 12.0717 6.28738 11.9847 6.48615 11.924C6.68649 11.8577 6.88826 11.8222 7.08987 11.8222C7.48054 11.8222 7.83988 11.9009 8.15459 12.0733C8.47261 12.2396 8.72193 12.4825 8.89504 12.796C9.06968 13.1071 9.14912 13.4635 9.14912 13.8509C9.14912 14.2053 9.04345 14.5755 8.8597 14.9545C8.67893 15.3326 8.43505 15.6844 8.1315 16.0101L8.13076 16.0109L7.76751 16.3983H8.45508C8.67143 16.3983 8.87226 16.4745 9.0298 16.632C9.18735 16.7896 9.26353 16.9904 9.26353 17.2068C9.26353 17.423 9.18398 17.6197 9.0298 17.7739L9.02097 17.7824Z" fill="#404040"/>
<path fill-rule="evenodd" clip-rule="evenodd" d="M8.1319 22.0867C8.2085 22.1246 8.28247 22.1689 8.35354 22.2198C8.6313 22.4102 8.84414 22.6619 8.98883 22.9683C9.13708 23.2665 9.21003 23.5882 9.21003 23.9278C9.21003 24.3622 9.11259 24.759 8.90239 25.1029C8.69435 25.4434 8.40097 25.7029 8.03365 25.8804C7.66748 26.0574 7.2528 26.1396 6.79994 26.1396C6.58054 26.1396 6.36389 26.1129 6.15069 26.0596C5.94264 26.0076 5.75183 25.9356 5.58366 25.8392C5.44264 25.7617 5.29963 25.6536 5.21041 25.4975L5.2026 25.4838L5.19594 25.4696C5.14301 25.3561 5.10678 25.2296 5.10678 25.0947C5.10678 24.8813 5.18344 24.6897 5.31237 24.5286L5.31375 24.5268C5.4659 24.3389 5.67806 24.2253 5.93048 24.2253C6.01716 24.2253 6.10107 24.2395 6.18063 24.263C6.28904 24.2933 6.38789 24.3468 6.4755 24.4075L6.48291 24.4126L6.49008 24.4181C6.5476 24.4621 6.62068 24.5052 6.71264 24.5455C6.77985 24.573 6.86763 24.5914 6.98298 24.5914C7.07528 24.5914 7.15835 24.57 7.23815 24.5261C7.32377 24.4767 7.39501 24.4096 7.45368 24.3192C7.50084 24.2421 7.53212 24.1397 7.53212 23.9965C7.53212 23.8559 7.50268 23.7722 7.47024 23.7215L7.4643 23.7123C7.42523 23.6471 7.37532 23.6008 7.30819 23.5672L7.30278 23.5645C7.23162 23.5275 7.15494 23.5084 7.06688 23.5084C6.97794 23.5084 6.91995 23.5165 6.88561 23.5253C6.82377 23.5431 6.7617 23.563 6.69939 23.5853L6.6914 23.5881L6.68328 23.5906C6.57128 23.6251 6.45273 23.638 6.3347 23.638C6.11797 23.638 5.91167 23.5566 5.76417 23.3751L5.7595 23.3694L5.75506 23.3634C5.63956 23.2094 5.58727 23.0305 5.58727 22.8448C5.58727 22.7278 5.60833 22.6091 5.65958 22.4963L5.66532 22.4837L5.67197 22.4715C5.71834 22.3865 5.77819 22.3041 5.84529 22.2248L5.8518 22.2171L6.43104 21.6016H5.80845C5.59209 21.6016 5.39127 21.5255 5.23372 21.3679C5.07618 21.2104 5 21.0096 5 20.7932C5 20.5786 5.07871 20.3811 5.23806 20.2294C5.39494 20.0748 5.59407 20 5.80845 20H8.14227C8.36549 20 8.60273 20.0622 8.77484 20.254C8.92772 20.4187 8.99648 20.6235 8.99648 20.839C8.99648 20.9763 8.95891 21.104 8.89751 21.2181L8.89133 21.2295C8.84018 21.3172 8.77832 21.3972 8.70694 21.4695L8.1319 22.0867Z" fill="#404040"/>
</svg>
