<svg width="32" height="32" viewBox="0 0 32 32" fill="none" xmlns="http://www.w3.org/2000/svg">
<path d="M11.638 26C11.1726 26 10.7787 25.848 10.4565 25.544C10.1522 25.24 10 24.888 10 24.488C10 24.04 10.1522 23.68 10.4565 23.408C10.7787 23.136 11.1726 23 11.638 23H20.362C20.8274 23 21.2123 23.144 21.5166 23.432C21.8389 23.72 22 24.088 22 24.536C22 24.92 21.8389 25.256 21.5166 25.544C21.2123 25.848 20.8274 26 20.362 26H11.638Z" fill="#404040"/>
<path d="M21.1414 7C21.5474 7 21.8754 7.12842 22.1252 7.38527C22.3751 7.64212 22.5 7.9745 22.5 8.38244V14.5864C22.5 15.8404 22.2267 16.9509 21.6802 17.9178C21.1336 18.8848 20.3685 19.6402 19.3847 20.1841C18.4009 20.728 17.2766 21 16.0117 21C14.7468 21 13.6147 20.728 12.6153 20.1841C11.6315 19.6402 10.8664 18.8848 10.3198 17.9178C9.77327 16.9509 9.5 15.8404 9.5 14.5864V8.38244C9.5 7.98961 9.64054 7.66478 9.92162 7.40793C10.2027 7.13598 10.5619 7 10.9991 7C11.3739 7 11.7018 7.13598 11.9829 7.40793C12.264 7.66478 12.4045 7.98961 12.4045 8.38244V14.5864C12.4045 15.3116 12.5685 15.9613 12.8964 16.5354C13.2243 17.0944 13.6616 17.525 14.2081 17.8272C14.7703 18.1294 15.3715 18.2805 16.0117 18.2805C16.6832 18.2805 17.3078 18.1294 17.8856 17.8272C18.479 17.525 18.9474 17.0944 19.291 16.5354C19.6502 15.9613 19.8297 15.3116 19.8297 14.5864V8.38244C19.8297 7.9745 19.9468 7.64212 20.1811 7.38527C20.4153 7.12842 20.7354 7 21.1414 7Z" fill="#404040"/>
</svg>
