<svg width="32" height="32" viewBox="0 0 32 32" fill="none" xmlns="http://www.w3.org/2000/svg">
<path fill-rule="evenodd" clip-rule="evenodd" d="M7 4C5.34315 4 4 5.34315 4 7V24C4 25.6569 5.34315 27 7 27H25C26.6569 27 28 25.6569 28 24V7C28 5.34315 26.6569 4 25 4H7ZM21.2961 7C20.7358 7 20.2816 7.42716 20.2816 7.95408C20.2816 8.481 20.7358 8.90816 21.2961 8.90816H23.4557C23.5786 8.90816 23.6872 8.94261 23.7443 8.986C23.7662 9.00271 23.7932 9.02927 23.8186 9.08373C23.8454 9.14143 23.8809 9.25378 23.8809 9.44993C23.8809 9.58644 23.8513 9.6671 23.8258 9.71412C23.7996 9.7624 23.7612 9.80544 23.7043 9.84531C23.5757 9.93541 23.3734 9.99171 23.1858 9.99171C22.2231 9.99171 21.4822 10.4475 21.0102 10.9874C20.5556 11.5073 20.2816 12.1788 20.2816 12.7936V14.0255C20.2816 14.5524 20.7358 14.9796 21.2961 14.9796H24.9854C25.5458 14.9796 26 14.5524 26 14.0255C26 13.4986 25.5458 13.0714 24.9854 13.0714L22.3107 13.0709V12.7936C22.3107 12.6715 22.3854 12.419 22.5775 12.1993C22.7522 11.9995 22.9562 11.8999 23.1858 11.8999C23.718 11.8999 24.3705 11.7582 24.9168 11.3753C25.5032 10.9644 25.91 10.3105 25.91 9.44993C25.91 8.59919 25.5863 7.93288 25.0203 7.50235C24.4952 7.10303 23.884 7 23.4557 7H21.2961ZM9.48015 10.6302C9.01428 10.0607 8.14566 9.95414 7.54003 10.3922C6.9344 10.8303 6.8211 11.6472 7.28697 12.2167L11.2497 17.0612L7.28697 21.9057C6.8211 22.4752 6.9344 23.292 7.54003 23.7301C8.14566 24.1682 9.01428 24.0617 9.48015 23.4922L12.9952 19.195L16.5102 23.4922C16.9761 24.0617 17.8447 24.1682 18.4504 23.7301C19.056 23.292 19.1693 22.4752 18.7034 21.9057L14.7406 17.0612L18.7034 12.2167C19.1693 11.6472 19.056 10.8303 18.4504 10.3922C17.8447 9.95414 16.9761 10.0607 16.5102 10.6302L12.9952 14.9274L9.48015 10.6302Z" fill="#404040"/>
</svg>
