<svg width="32" height="32" viewBox="0 0 32 32" fill="none" xmlns="http://www.w3.org/2000/svg">
<path fill-rule="evenodd" clip-rule="evenodd" d="M7 4C5.34315 4 4 5.34315 4 7V24C4 25.6569 5.34315 27 7 27H25C26.6569 27 28 25.6569 28 24V7C28 5.34315 26.6569 4 25 4H7ZM9.48015 7.50784C9.01428 6.93831 8.14566 6.83177 7.54003 7.26986C6.9344 7.70796 6.8211 8.5248 7.28697 9.09432L11.2497 13.9388L7.28697 18.7833C6.8211 19.3528 6.9344 20.1697 7.54003 20.6078C8.14566 21.0459 9.01428 20.9393 9.48015 20.3698L12.9952 16.0726L16.5102 20.3698C16.9761 20.9393 17.8447 21.0459 18.4504 20.6078C19.056 20.1697 19.1693 19.3528 18.7034 18.7833L14.7406 13.9388L18.7034 9.09432C19.1693 8.5248 19.056 7.70796 18.4504 7.26986C17.8447 6.83177 16.9761 6.93831 16.5102 7.50784L12.9952 11.805L9.48015 7.50784ZM21.2961 16.0204C20.7358 16.0204 20.2816 16.4476 20.2816 16.9745C20.2816 17.5014 20.7358 17.9286 21.2961 17.9286H23.4557C23.5786 17.9286 23.6872 17.9631 23.7443 18.0064C23.7662 18.0231 23.7932 18.0497 23.8186 18.1042C23.8454 18.1619 23.8809 18.2742 23.8809 18.4704C23.8809 18.6069 23.8513 18.6875 23.8258 18.7346C23.7996 18.7828 23.7612 18.8259 23.7043 18.8657C23.5757 18.9559 23.3734 19.0121 23.1858 19.0121C22.2231 19.0121 21.4822 19.468 21.0102 20.0078C20.5556 20.5278 20.2816 21.1992 20.2816 21.814V23.0459C20.2816 23.5728 20.7358 24 21.2961 24H24.9854C25.5458 24 26 23.5728 26 23.0459C26 22.519 25.5458 22.0918 24.9854 22.0918L22.3107 22.0913V21.814C22.3107 21.6919 22.3854 21.4395 22.5775 21.2197C22.7522 21.0199 22.9562 20.9203 23.1858 20.9203C23.718 20.9203 24.3705 20.7786 24.9168 20.3958C25.5032 19.9848 25.91 19.3309 25.91 18.4704C25.91 17.6196 25.5863 16.9533 25.0203 16.5228C24.4952 16.1235 23.884 16.0204 23.4557 16.0204H21.2961Z" fill="#404040"/>
</svg>
