<svg width="32" height="32" viewBox="0 0 32 32" fill="none" xmlns="http://www.w3.org/2000/svg">
<path d="M13.0015 10C12.5749 10 12.2138 9.84803 11.9185 9.54403C11.6395 9.24003 11.5 8.88803 11.5 8.48803C11.5 8.04003 11.6395 7.68003 11.9185 7.40803C12.2138 7.13603 12.5749 7.00003 13.0015 7.00003L24.4983 7C24.925 7 25.2778 7.144 25.5568 7.432C25.8522 7.72 25.9999 8.088 25.9999 8.536C25.9999 8.92 25.8522 9.256 25.5568 9.544C25.2778 9.848 24.925 10 24.4983 10L13.0015 10Z" fill="#404040"/>
<path d="M7.50154 10C7.07487 10 6.71385 9.84803 6.41846 9.54403C6.13949 9.24003 6 8.88803 6 8.48803C6 8.04003 6.13949 7.68003 6.41846 7.40803C6.71385 7.13603 7.07487 7.00003 7.50154 7.00003L8.49846 7.00003C8.92513 7.00003 9.27795 7.14403 9.55692 7.43203C9.85231 7.72003 10 8.08803 10 8.53603C10 8.92003 9.85231 9.25603 9.55692 9.54403C9.27795 9.84803 8.92513 10 8.49846 10L7.50154 10Z" fill="#404040"/>
<path d="M7.50154 17C7.07487 17 6.71385 16.848 6.41846 16.544C6.13949 16.24 6 15.888 6 15.488C6 15.04 6.13949 14.68 6.41846 14.408C6.71385 14.136 7.07487 14 7.50154 14L8.49846 14C8.92513 14 9.27795 14.144 9.55692 14.432C9.85231 14.72 10 15.088 10 15.536C10 15.92 9.85231 16.256 9.55692 16.544C9.27795 16.848 8.92513 17 8.49846 17H7.50154Z" fill="#404040"/>
<path d="M13.0015 17C12.5749 17 12.2138 16.848 11.9185 16.544C11.6395 16.24 11.5 15.888 11.5 15.488C11.5 15.04 11.6395 14.68 11.9185 14.408C12.2138 14.136 12.5749 14 13.0015 14L24.4985 14C24.9251 14 25.2779 14.144 25.5569 14.432C25.8523 14.72 26 15.088 26 15.536C26 15.92 25.8523 16.256 25.5569 16.544C25.2779 16.848 24.9251 17 24.4985 17L13.0015 17Z" fill="#404040"/>
<path d="M11.9185 23.544C12.2138 23.848 12.5749 24 13.0015 24L24.4986 24C24.9253 24 25.2781 23.848 25.5571 23.544C25.8525 23.256 26.0001 22.92 26.0001 22.536C26.0001 22.088 25.8525 21.72 25.5571 21.432C25.2781 21.144 24.9253 21 24.4986 21L13.0015 21C12.5749 21 12.2138 21.136 11.9185 21.408C11.6395 21.68 11.5 22.04 11.5 22.488C11.5 22.888 11.6395 23.24 11.9185 23.544Z" fill="#404040"/>
<path d="M6.41846 23.544C6.71385 23.848 7.07487 24 7.50154 24L8.49846 24C8.92513 24 9.27795 23.848 9.55692 23.544C9.85231 23.256 10 22.92 10 22.536C10 22.088 9.85231 21.72 9.55692 21.432C9.27795 21.144 8.92513 21 8.49846 21L7.50154 21C7.07487 21 6.71385 21.136 6.41846 21.408C6.13949 21.68 6 22.04 6 22.488C6 22.888 6.13949 23.24 6.41846 23.544Z" fill="#404040"/>
</svg>
