<svg width="32" height="32" viewBox="0 0 32 32" fill="none" xmlns="http://www.w3.org/2000/svg">
<path fill-rule="evenodd" clip-rule="evenodd" d="M7 4C5.34315 4 4 5.34315 4 7V24C4 25.6569 5.34315 27 7 27H25C26.6569 27 28 25.6569 28 24V7C28 5.34315 26.6569 4 25 4H7ZM13.2266 10.2447C13.4924 10.513 13.8173 10.6471 14.2013 10.6471L23.6484 10.6471C24.0324 10.6471 24.3499 10.5129 24.601 10.2447C24.8668 9.99059 24.9997 9.69412 24.9997 9.35529C24.9997 8.96 24.8668 8.63529 24.601 8.38118C24.3499 8.12706 24.0324 8 23.6484 8L14.2013 8.00002C13.8173 8.00002 13.4924 8.12002 13.2266 8.36002C12.9755 8.60002 12.85 8.91767 12.85 9.31296C12.85 9.6659 12.9755 9.97649 13.2266 10.2447ZM7.37661 10.2447C7.64246 10.513 7.96738 10.6471 8.35138 10.6471H9.2486C9.6326 10.6471 9.95013 10.513 10.2012 10.2447C10.4671 9.99061 10.6 9.69414 10.6 9.35532C10.6 8.96002 10.4671 8.63532 10.2012 8.3812C9.95013 8.12708 9.6326 8.00002 9.2486 8.00002H8.35138C7.96738 8.00002 7.64246 8.12002 7.37661 8.36002C7.12554 8.60002 7 8.91767 7 9.31296C7 9.6659 7.12554 9.97649 7.37661 10.2447ZM8.35138 16.8235C7.96738 16.8235 7.64246 16.6894 7.37661 16.4212C7.12554 16.153 7 15.8424 7 15.4894C7 15.0941 7.12554 14.7765 7.37661 14.5365C7.64246 14.2965 7.96738 14.1765 8.35138 14.1765H9.2486C9.6326 14.1765 9.95013 14.3035 10.2012 14.5577C10.4671 14.8118 10.6 15.1365 10.6 15.5318C10.6 15.8706 10.4671 16.1671 10.2012 16.4212C9.95013 16.6894 9.6326 16.8235 9.2486 16.8235H8.35138ZM13.2266 16.4212C13.4924 16.6894 13.8173 16.8235 14.2013 16.8235H23.6485C24.0325 16.8235 24.35 16.6894 24.6011 16.4212C24.8669 16.1671 24.9999 15.8706 24.9999 15.5318C24.9999 15.1365 24.8669 14.8118 24.6011 14.5577C24.35 14.3035 24.0325 14.1765 23.6485 14.1765H14.2013C13.8173 14.1765 13.4924 14.2965 13.2266 14.5365C12.9755 14.7765 12.85 15.0941 12.85 15.4894C12.85 15.8424 12.9755 16.153 13.2266 16.4212ZM13.2266 22.5976C13.4924 22.8659 13.8173 23 14.2013 23L23.6486 23C24.0326 23 24.3502 22.8659 24.6012 22.5976C24.8671 22.3435 25 22.047 25 21.7082C25 21.3129 24.8671 20.9882 24.6012 20.7341C24.3502 20.48 24.0326 20.3529 23.6486 20.3529L14.2013 20.3529C13.8173 20.3529 13.4924 20.4729 13.2266 20.7129C12.9755 20.9529 12.85 21.2706 12.85 21.6659C12.85 22.0188 12.9755 22.3294 13.2266 22.5976ZM8.35138 23C7.96738 23 7.64246 22.8659 7.37661 22.5976C7.12554 22.3294 7 22.0188 7 21.6659C7 21.2706 7.12554 20.9529 7.37661 20.7129C7.64246 20.4729 7.96738 20.3529 8.35138 20.3529H9.2486C9.6326 20.3529 9.95013 20.48 10.2012 20.7341C10.4671 20.9882 10.6 21.3129 10.6 21.7082C10.6 22.0471 10.4671 22.3435 10.2012 22.5976C9.95013 22.8659 9.6326 23 9.2486 23L8.35138 23Z" fill="#404040"/>
</svg>
