<svg viewBox="0 0 48 48" xmlns="http://www.w3.org/2000/svg">
  <path stroke="none" fill="currentColor" fill-rule="evenodd" d="M5,11 C4.44666667,11 4,11.4466667 4,12 C4,12.5533333 4.44666667,13 5,13 C5.55333333,13 6,12.5533333 6,12 C6,11.4466667 5.55333333,11 5,11 Z M5,5 C4.44666667,5 4,5.44666667 4,6 C4,6.55333333 4.44666667,7 5,7 C5.55333333,7 6,6.55333333 6,6 C6,5.44666667 5.55333333,5 5,5 Z M5,17 C4.44666667,17 4,17.4533333 4,18 C4,18.5466667 4.45333333,19 5,19 C5.54666667,19 6,18.5466667 6,18 C6,17.4533333 5.55333333,17 5,17 Z M7,19 L20,19 L20,17 L7,17 L7,19 Z M7,13 L20,13 L20,11 L7,11 L7,13 Z M7,5 L7,7 L20,7 L20,5 L7,5 Z"></path>
</svg>
