<svg width="32" height="32" viewBox="0 0 32 32" fill="none" xmlns="http://www.w3.org/2000/svg">
<path d="M16.4641 10C16.0481 10 15.6961 9.848 15.4081 9.544C15.1361 9.24 15.0001 8.888 15.0001 8.488C15.0001 8.04 15.1361 7.68 15.4081 7.408C15.6961 7.136 16.0481 7 16.4641 7H21.5361C21.9521 7 22.2961 7.144 22.5681 7.432C22.8561 7.72 23.0001 8.088 23.0001 8.536C23.0001 8.92 22.8561 9.256 22.5681 9.544C22.2961 9.848 21.9521 10 21.5361 10H20.2377L15.153 21H15.5361C15.9521 21 16.2961 21.144 16.5681 21.432C16.8561 21.72 17.0001 22.088 17.0001 22.536C17.0001 22.92 16.8561 23.256 16.5681 23.544C16.2961 23.848 15.9521 24 15.5361 24H10.4641C10.0481 24 9.69611 23.848 9.40811 23.544C9.13611 23.24 9.00011 22.888 9.00011 22.488C9.00011 22.04 9.13611 21.68 9.40811 21.408C9.69611 21.136 10.0481 21 10.4641 21H11.7875L16.8722 10H16.4641Z" fill="#404040"/>
</svg>
