<svg width="32" height="32" viewBox="0 0 32 32" fill="none" xmlns="http://www.w3.org/2000/svg">
<path fill-rule="evenodd" clip-rule="evenodd" d="M7.08543 7.81097C7.74206 7.30587 8.68383 7.4287 9.18893 8.08534L13 13.0397L16.8111 8.08534C17.3162 7.4287 18.2579 7.30587 18.9146 7.81097C19.5712 8.31607 19.694 9.25784 19.1889 9.91447L14.8924 15.4999L19.1889 21.0853C19.694 21.742 19.5712 22.6837 18.9146 23.1888C18.2579 23.6939 17.3162 23.5711 16.8111 22.9145L13 17.9601L9.18893 22.9145C8.68383 23.5711 7.74206 23.6939 7.08543 23.1888C6.4288 22.6837 6.30596 21.742 6.81106 21.0853L11.1076 15.4999L6.81106 9.91447C6.30596 9.25784 6.4288 8.31607 7.08543 7.81097Z" fill="#404040"/>
<path fill-rule="evenodd" clip-rule="evenodd" d="M20.9 4.9999C20.9 4.39239 21.3925 3.8999 22 3.8999H24.3415C24.8058 3.8999 25.4685 4.01869 26.0378 4.47909C26.6515 4.97546 27.0024 5.74368 27.0024 6.72454C27.0024 7.71669 26.5614 8.47063 25.9256 8.94442C25.3333 9.38582 24.6259 9.54918 24.0488 9.54918C23.7999 9.54918 23.5787 9.66404 23.3893 9.89441C23.181 10.1478 23.1 10.4388 23.1 10.5796V10.8993L26 10.8999C26.6075 10.8999 27.1 11.3924 27.1 11.9999C27.1 12.6074 26.6075 13.0999 26 13.0999H22C21.3925 13.0999 20.9 12.6074 20.9 11.9999V10.5796C20.9 9.87076 21.1971 9.09661 21.69 8.49715C22.2018 7.87472 23.005 7.34918 24.0488 7.34918C24.2522 7.34918 24.4716 7.28428 24.611 7.18039C24.6727 7.13442 24.7143 7.0848 24.7427 7.02914C24.7704 6.97492 24.8024 6.88193 24.8024 6.72454C24.8024 6.49838 24.764 6.36885 24.7349 6.30233C24.7074 6.23954 24.6781 6.20892 24.6543 6.18965C24.5925 6.13963 24.4747 6.0999 24.3415 6.0999H22C21.3925 6.0999 20.9 5.60742 20.9 4.9999Z" fill="#404040"/>
</svg>
