<svg width="32" height="32" viewBox="0 0 32 32" fill="none" xmlns="http://www.w3.org/2000/svg">
<path fill-rule="evenodd" clip-rule="evenodd" d="M9 5C7.34315 5 6 6.34315 6 8V24C6 25.6569 7.34315 27 9 27H23C24.6569 27 26 25.6569 26 24V8C26 6.34315 24.6569 5 23 5H9ZM21.6541 7.36499C21.4234 7.12166 21.1207 7 20.7459 7C20.3712 7 20.0757 7.12166 19.8595 7.36499C19.6432 7.60832 19.5351 7.92321 19.5351 8.30968V14.1871C19.5351 14.8742 19.3694 15.4896 19.0378 16.0335C18.7207 16.5631 18.2883 16.9711 17.7405 17.2573C17.2072 17.5436 16.6306 17.6867 16.0108 17.6867C15.4198 17.6867 14.8649 17.5436 14.3459 17.2573C13.8414 16.9711 13.4378 16.5631 13.1351 16.0335C12.8324 15.4896 12.6811 14.8742 12.6811 14.1871V8.30968C12.6811 7.93753 12.5514 7.62979 12.2919 7.38646C12.0324 7.12882 11.7297 7 11.3838 7C10.9802 7 10.6486 7.12882 10.3892 7.38646C10.1297 7.62979 10 7.93753 10 8.30968V14.1871C10 15.3751 10.2523 16.4272 10.7568 17.3432C11.2613 18.2593 11.9676 18.975 12.8757 19.4902C13.7982 20.0055 14.8432 20.2632 16.0108 20.2632C17.1784 20.2632 18.2162 20.0055 19.1243 19.4902C20.0324 18.975 20.7387 18.2593 21.2432 17.3432C21.7477 16.4272 22 15.3751 22 14.1871V8.30968C22 7.92321 21.8847 7.60832 21.6541 7.36499ZM10.8829 24.568C11.1804 24.856 11.5439 25 11.9736 25H20.0264C20.4561 25 20.8114 24.856 21.0923 24.568C21.3897 24.2952 21.5385 23.9768 21.5385 23.6131C21.5385 23.1886 21.3897 22.84 21.0923 22.5672C20.8114 22.2943 20.4561 22.1579 20.0264 22.1579H11.9736C11.5439 22.1579 11.1804 22.2867 10.8829 22.5444C10.602 22.8021 10.4615 23.1432 10.4615 23.5676C10.4615 23.9465 10.602 24.28 10.8829 24.568Z" fill="#404040"/>
</svg>
