<svg width="32" height="32" viewBox="0 0 32 32" fill="none" xmlns="http://www.w3.org/2000/svg">
<path d="M18.1704 10.9786C18.4556 11.2643 18.5981 11.7 18.5981 12.2857C18.5981 12.7714 18.442 13.1571 18.1296 13.4429C17.8309 13.7286 17.4778 13.8714 17.0704 13.8714H13.6481V10.5286H17.0093C17.5117 10.5286 17.8988 10.6786 18.1704 10.9786Z" fill="#404040"/>
<path d="M18.8019 20C18.4488 20.3571 17.9531 20.5357 17.3148 20.5357H13.6481V16.4H17.1722C17.7833 16.4 18.2994 16.5286 18.7204 16.7857C19.1414 17.0429 19.3519 17.5929 19.3519 18.4357C19.3519 19.1214 19.1685 19.6429 18.8019 20Z" fill="#404040"/>
<path fill-rule="evenodd" clip-rule="evenodd" d="M9 5C7.34315 5 6 6.34315 6 8V23C6 24.6569 7.34315 26 9 26H23C24.6569 26 26 24.6569 26 23V8C26 6.34315 24.6569 5 23 5H9ZM21.3074 16.0571C20.8593 15.4429 20.2753 14.9857 19.5556 14.6857C20.0988 14.4 20.513 14.0143 20.7981 13.5286C21.0969 13.0286 21.2463 12.4571 21.2463 11.8143C21.2463 9.27143 19.9562 8 17.3759 8H12.2426C11.8895 8 11.5907 8.12857 11.3463 8.38571C11.1154 8.62857 11 8.93571 11 9.30714V21.6929C11 22.0643 11.1154 22.3786 11.3463 22.6357C11.5907 22.8786 11.8895 23 12.2426 23H17.3148C18.5914 23 19.6914 22.6643 20.6148 21.9929C21.5383 21.3214 22 20.1357 22 18.4357C22 17.4643 21.7691 16.6714 21.3074 16.0571Z" fill="#404040"/>
</svg>
